M48
;DRILL file {PCBnew (2011-07-08 BZR 3044)-stable} date Thu 19 Jan 2012 04:26:23 PM COT
;FORMAT={2:4/ absolute / inch / keep zeros}
FMAT,2
INCH,TZ
T1C0.012
T2C0.032
T3C0.035
T4C0.039
T5C0.039
T6C0.040
T7C0.050
T8C0.063
T9C0.091
T10C0.118
T11C0.120
%
G90
G05
M72
T1
X031650Y022450
X031700Y036250
X032150Y022850
X032250Y014400
X032300Y012050
X033050Y025850
X033175Y015175
X033400Y010400
X033450Y023000
X033550Y014050
X033550Y025250
X033750Y011200
X034000Y016350
X034150Y018000
X034150Y026950
X034150Y028200
X034300Y019075
X034500Y032500
X034550Y023075
X035050Y028150
X035100Y027600
X035150Y032450
X035275Y008550
X035275Y023475
X035400Y015000
X035450Y006450
X035475Y032200
X035480Y014520
X035500Y013600
X035500Y031450
X035550Y027300
X035591Y025699
X035800Y033450
X035850Y017100
X035900Y013850
X035950Y012250
X036050Y022300
X036050Y027050
X036200Y014950
X036300Y014250
X036410Y033150
X036520Y019200
X036550Y030150
X036600Y031650
X036650Y029150
X036700Y027850
X036760Y013080
X036770Y032090
X036800Y025750
X036900Y013550
X036925Y031400
X037300Y033850
X037350Y017500
X037350Y028650
X037400Y024750
X037400Y025300
X037400Y031900
X037550Y027400
X037750Y016300
X037750Y032150
X037958Y024824
X037980Y013560
X038000Y009450
X038050Y027850
X038076Y024074
X038150Y033925
X038300Y018650
X038400Y029450
X038430Y027334
X038500Y024750
X038550Y016600
X038550Y017150
X038582Y025896
X038612Y021486
X038800Y032250
X038850Y025550
X038950Y013650
X038960Y033880
X038975Y015700
X039000Y027950
X039100Y012900
X039100Y031150
X039200Y026350
X039200Y031750
X039250Y025950
X039300Y008000
X039300Y023150
X039378Y027362
X039450Y016750
X039525Y021825
X039525Y025675
X039575Y021275
X039600Y025300
X039650Y010200
X039675Y028350
X039700Y023000
X039734Y017970
X039775Y029950
X039800Y032250
X039825Y024075
X039850Y015300
X039850Y016800
X039975Y022750
X040050Y024600
X040125Y027950
X040150Y012900
X040175Y021600
X040200Y027450
X040250Y026100
X040300Y030850
X040300Y032450
X040350Y015300
X040400Y022750
X040575Y024925
X040575Y029850
X040600Y026350
X040650Y020050
X040800Y010050
X040850Y007050
X040880Y013820
X040950Y007600
X040975Y031950
X041050Y015100
X041050Y030975
X041150Y032400
X041160Y013120
X041200Y012300
X041200Y026300
X041250Y027650
X041250Y028075
X041450Y031650
X041500Y006200
X041500Y008860
X041550Y030400
X041550Y032000
X041600Y014950
X041600Y028750
X041625Y032625
X041700Y028300
X041720Y012100
X041725Y027350
X041750Y026750
X041800Y033025
X041950Y025600
X042100Y009400
X042120Y027370
X042200Y014550
X042200Y015750
X042200Y024900
X042300Y033025
X042475Y023125
X042500Y006600
X042500Y018700
X042500Y020775
X042550Y025650
X042575Y032725
X042580Y011920
X042600Y018000
X042600Y032000
X042650Y009700
X042700Y028150
X042750Y016650
X042775Y031625
X042800Y024950
X042800Y025350
X042800Y027400
X042880Y007880
X042900Y006200
X042900Y015060
X042950Y020300
X043000Y027800
X043040Y011360
X043050Y010700
X043100Y013050
X043150Y019300
X043160Y008780
X043180Y016260
X043200Y024850
X043250Y032000
X043280Y028270
X043350Y022800
X043560Y024920
X043600Y015650
X043650Y020400
X043650Y028290
X043700Y031650
X043750Y029400
X043760Y023030
X043820Y024620
X043900Y015150
X043920Y013340
X043920Y027940
X044100Y023150
X044125Y024825
X044180Y028450
X044200Y032800
X044300Y033250
X044330Y023440
X044350Y021650
X044450Y024600
X044450Y027400
X044500Y022250
X044650Y032500
X044670Y023210
X044680Y010940
X044740Y012140
X044850Y021550
X044850Y027450
X044875Y016375
X044900Y028850
X044900Y033800
X044920Y016840
X045020Y028390
X045025Y027825
X045084Y022342
X045100Y021200
X045181Y017619
X045207Y013258
X045300Y020800
X045675Y027525
X045750Y029800
X045800Y020500
X045866Y016378
X045925Y034675
X046000Y032800
X046050Y007250
X046050Y015800
X046100Y022180
X046150Y011850
X046150Y020350
X046150Y021200
X046150Y031000
X046250Y019550
X046300Y023050
X046400Y007850
X046400Y008500
X046650Y019900
X046700Y022200
X046950Y018750
X047200Y021750
X047200Y032400
X047250Y021300
X047260Y023400
X047275Y033800
X047450Y016000
X047550Y017750
X047550Y031050
X047550Y033450
X047650Y012150
X047650Y035925
X047800Y028275
X047850Y021050
X047850Y023200
X047900Y027425
X048100Y027950
X048200Y020650
X048490Y021390
X048500Y012200
X048600Y007850
X048661Y015787
X048700Y009050
X048750Y011300
X048770Y022040
X048875Y028300
X049075Y027950
X049100Y025600
X049120Y021070
X049150Y017750
X049218Y007190
X049250Y012700
X049300Y033150
X049350Y013100
X049350Y035600
X049450Y021450
X049650Y013350
X049730Y021070
X049750Y008950
X049800Y015400
X049900Y028250
X050000Y022200
X050050Y013400
X050100Y011050
X050150Y011625
X050400Y015200
X050400Y021750
X050675Y016700
X050700Y021440
X050700Y024950
X050900Y035320
X050950Y010900
X050950Y034200
X051050Y021150
X051050Y021550
X051050Y024850
X051100Y015700
X051200Y027475
X051400Y009750
X051400Y024150
X051550Y013550
X051600Y016600
X051650Y025750
X051700Y015900
X051700Y020050
X051700Y021450
X051750Y027475
X051850Y015350
X052100Y022050
X052150Y017200
X052150Y023850
X052200Y012250
X052200Y031800
X052325Y018300
X052350Y020750
X052350Y021550
X052400Y019200
X052450Y011525
X052450Y024550
X052525Y035425
X052650Y016100
X052650Y016850
X052650Y020100
X052650Y021100
X052700Y015650
X052700Y018100
X052750Y026850
X052850Y016500
X052850Y027300
X052900Y008900
X052900Y024850
X053000Y011450
X053050Y036050
X053175Y013975
X053400Y036600
X053500Y014750
X053850Y008775
X053850Y013850
X053900Y028350
X054275Y028075
X054400Y013700
X054400Y015250
X054400Y019500
X054400Y025450
X054850Y013700
X054900Y034500
X055100Y019575
X055175Y012600
X055280Y018250
X055350Y019850
X055400Y027650
X055475Y018875
X055500Y020400
X055520Y019430
X055550Y012800
X055550Y015150
X055700Y026900
X055750Y018250
X055775Y012000
X055790Y020020
X055800Y011475
X055920Y012400
X056000Y014200
X056083Y009213
X056200Y018250
X056200Y020650
X056350Y011525
X056450Y019000
X056500Y018000
X056700Y009525
X056800Y014200
X056880Y021320
X056950Y012425
X056950Y031050
X057000Y015350
X057125Y015800
X057140Y017360
X057225Y021950
X057350Y011950
X057350Y014725
X057350Y015500
X057500Y015850
X057550Y012600
X057675Y014450
X058000Y017050
X058000Y018475
X058000Y021600
X058050Y019700
X058050Y020450
X058050Y033000
X058150Y016400
X058400Y035300
X058425Y016675
X058475Y016075
X058600Y009250
X058600Y031350
X058725Y007675
X058725Y015775
X058775Y015075
X058825Y018550
X058900Y013050
X058940Y015440
X058950Y033100
X059000Y014425
X059150Y033600
X059250Y017600
X059300Y014725
X059300Y018450
X059375Y013600
X059500Y014150
X059500Y023350
X059650Y021650
X059725Y016725
X059750Y022875
X059800Y014525
X059850Y021100
X059900Y016400
X059950Y023325
X060300Y018850
X060300Y019350
X060350Y020350
X060400Y015100
X060400Y016000
X060700Y014450
X060700Y031500
X061200Y012150
X061225Y021550
T2
X045000Y034500
X046800Y030050
X056778Y006589
X056778Y008589
X059778Y006589
X059778Y008589
X060200Y024000
T3
X050900Y010250
X051400Y009250
X051900Y010250
X052400Y009250
X052900Y010250
X053400Y009250
X053900Y010250
X054400Y009250
T4
X050499Y012151
X051499Y012151
X053801Y012151
X054801Y012151
T5
X037400Y011350
X038400Y011350
X039200Y011350
X040200Y011350
T6
X031950Y027400
X031950Y028400
X031950Y029400
X031950Y030400
X031950Y031400
X031950Y032400
X031950Y033400
X032050Y020100
X032050Y021100
X032950Y027400
X032950Y028400
X032950Y029400
X032950Y030400
X032950Y031400
X032950Y032400
X032950Y033400
X034000Y034500
X034000Y035500
X035000Y034500
X035000Y035500
X036000Y034500
X036000Y035500
X037000Y034500
X037000Y035500
X037150Y014700
X037150Y015700
X037800Y019675
X037800Y020675
X037800Y021625
X037800Y022625
X038000Y034500
X038000Y035500
X039000Y034500
X039000Y035500
X040000Y034500
X040000Y035500
X040450Y012400
X040450Y013400
X040450Y014400
X041000Y034500
X041000Y035500
X042000Y034500
X042000Y035500
X043000Y034500
X043000Y035500
X044000Y034500
X044000Y035500
X044020Y010680
X044020Y011680
X044020Y012680
X044060Y007160
X044060Y008160
X044060Y009160
X045000Y035500
X045450Y006650
X045450Y007650
X045450Y008650
X045450Y009650
X045450Y010650
X045450Y011650
X045450Y012650
X046800Y029050
X047050Y006650
X047050Y007650
X047050Y008650
X047050Y009650
X047050Y010650
X047050Y011650
X047800Y029050
X047800Y030050
X048050Y006650
X048050Y007650
X048050Y008650
X048050Y009650
X048050Y010650
X048050Y011650
X048800Y029050
X048800Y030050
X049800Y029050
X049800Y030050
X050800Y029050
X050800Y030050
X051800Y029050
X051800Y030050
X052650Y013050
X052800Y029050
X052800Y030050
X053650Y013050
X053650Y035600
X053800Y029050
X053800Y030050
X054650Y013050
X054650Y035600
X054800Y029050
X054800Y030050
X055650Y035600
X056650Y029050
X056650Y030050
X056650Y035600
X057650Y035600
X060050Y012650
X060050Y013650
X060200Y025000
X060200Y026000
X060200Y027000
X060200Y028000
X060200Y029000
X060200Y030000
X060200Y031000
X060200Y032000
X060200Y033000
X061200Y024000
X061200Y025000
X061200Y026000
X061200Y027000
X061200Y028000
X061200Y029000
X061200Y030000
X061200Y031000
X061200Y032000
X061200Y033000
T7
X032760Y006360
X033760Y006360
X034760Y006360
T8
X049550Y007951
X055750Y007951
T9
X036200Y010300
X041600Y010300
T10
X032319Y010600
X033500Y012489
X034681Y010600
T11
X032350Y034850
X032600Y007880
X050400Y006750
X054900Y006750
X060600Y034550
X060915Y006890
T0
M30
