M48
;DRILL file {PCBnew (2011-04-29 BZR 2986)-stable} date Mon 18 Jul 2011 10:00:20 AM COT
;FORMAT={2:4/ absolute / inch / keep zeros}
FMAT,2
INCH,TZ
T1C0.012
T2C0.030
T3C0.031
T4C0.032
T5C0.035
T6C0.039
T7C0.039
T8C0.040
T9C0.043
T10C0.055
T11C0.063
T12C0.091
T13C0.120
%
G90
G05
M72
T1
X036400Y-040100
X036700Y-019000
X036900Y-014250
X036950Y-015200
X037000Y-009750
X037100Y-038450
X037100Y-041500
X037150Y-054050
X037300Y-016850
X037300Y-019100
X037700Y-019100
X037800Y-018250
X037900Y-036050
X038050Y-052300
X038350Y-057100
X038400Y-018300
X038450Y-053200
X038450Y-055650
X038500Y-018700
X038500Y-022300
X038600Y-040100
X038650Y-029600
X038750Y-028900
X038900Y-016000
X039100Y-032100
X039250Y-031050
X039250Y-053250
X039450Y-022050
X039550Y-048750
X039700Y-032100
X039750Y-015850
X039750Y-023500
X039800Y-016500
X039900Y-050200
X040000Y-051700
X040250Y-049100
X040400Y-025250
X040400Y-050550
X040450Y-027800
X040600Y-022250
X041000Y-054350
X041150Y-027800
X041250Y-039400
X041300Y-040650
X041700Y-018550
X041725Y-051250
X042450Y-051200
X042475Y-051250
X042750Y-009450
X042850Y-027250
X043000Y-025300
X043000Y-028500
X043000Y-051200
X043100Y-016200
X043300Y-026950
X043400Y-023650
X043850Y-021850
X044150Y-011850
X044150Y-015750
X044150Y-026850
X044200Y-012250
X044250Y-014300
X044450Y-055600
X044500Y-010150
X044500Y-022650
X044600Y-043250
X044650Y-016500
X044750Y-016950
X045100Y-038200
X045100Y-048700
X045150Y-031300
X045150Y-032600
X045150Y-039550
X045150Y-039950
X045150Y-040350
X045150Y-040750
X045150Y-041150
X045150Y-042800
X045150Y-044100
X045200Y-032100
X045500Y-013550
X045500Y-031650
X045550Y-030950
X045600Y-014600
X045650Y-011650
X045750Y-012750
X045800Y-041950
X045900Y-045200
X045950Y-010450
X045950Y-013250
X046050Y-040650
X046050Y-041050
X046100Y-031050
X046100Y-041650
X046200Y-030650
X046350Y-015250
X046350Y-018750
X046500Y-012200
X046500Y-041050
X046700Y-045700
X046750Y-030700
X046800Y-026950
X046900Y-041250
X046950Y-012350
X046950Y-025500
X047000Y-017600
X047000Y-044150
X047200Y-017000
X047250Y-015000
X047350Y-045150
X047400Y-019600
X047400Y-030300
X047650Y-041250
X047650Y-044850
X047700Y-016850
X047700Y-036850
X047700Y-041700
X047950Y-036100
X048050Y-041450
X048100Y-044850
X048150Y-026000
X048250Y-026600
X048300Y-035150
X048350Y-013450
X048450Y-005800
X048450Y-013850
X048450Y-041600
X048500Y-033300
X048500Y-044050
X048725Y-015775
X048800Y-024400
X048850Y-023100
X048850Y-049000
X048900Y-042950
X049000Y-013400
X049050Y-012700
X049150Y-006500
X049150Y-015550
X049200Y-037850
X049250Y-010550
X049250Y-046000
X049300Y-025950
X049350Y-011200
X049550Y-036200
X049650Y-025050
X049650Y-026200
X049700Y-010900
X049750Y-008200
X049800Y-045400
X049950Y-013450
X049950Y-033950
X050050Y-005700
X050100Y-037400
X050150Y-011700
X050150Y-037850
X050250Y-008200
X050250Y-023650
X050350Y-010200
X050500Y-042950
X050650Y-008250
X050700Y-054600
X050750Y-011150
X050800Y-010550
X050850Y-007050
X050950Y-037950
X050950Y-052250
X051050Y-009750
X051100Y-038400
X051200Y-054600
X051350Y-045400
X051450Y-052250
X051700Y-012600
X051750Y-023750
X051800Y-037950
X051850Y-010800
X052100Y-014150
X052100Y-038200
X052200Y-048700
X052400Y-038450
X052450Y-053250
X052450Y-053750
X052500Y-016750
X052650Y-011200
X052850Y-038450
X052900Y-022800
X053100Y-020650
X053100Y-021300
X053150Y-010850
X053300Y-052300
X053350Y-039000
X053400Y-022200
X053425Y-006925
X053450Y-045350
X053500Y-010300
X053550Y-015200
X053550Y-036450
X053650Y-043500
X053700Y-019900
X053700Y-035100
X053800Y-013050
X053800Y-052300
X053900Y-020300
X054000Y-034800
X054100Y-021400
X054100Y-021800
X054100Y-022800
X054150Y-012600
X054300Y-034500
X054600Y-015750
X054600Y-034200
X054750Y-021100
X054750Y-043800
X054800Y-033800
X054900Y-020300
X055200Y-033900
X055600Y-046050
X055650Y-016900
X055700Y-025200
X055950Y-021100
X055950Y-023650
X056000Y-046150
X056100Y-051550
X056350Y-046450
X056700Y-046650
X056900Y-036600
X056900Y-041600
X057000Y-006150
X057000Y-033300
X057050Y-046850
X057200Y-044750
X057200Y-050550
X057300Y-033600
X057300Y-034200
X057300Y-034800
X057450Y-047000
X057500Y-021050
X057500Y-045050
X057550Y-032250
X057600Y-034500
X057700Y-033900
X057700Y-035100
X057800Y-047200
X057850Y-019550
X057850Y-045400
X057950Y-032300
X057950Y-032950
X058100Y-051600
X058100Y-052900
X058100Y-055550
X058350Y-043800
X058450Y-033000
X058500Y-050650
X058550Y-054350
X058600Y-053300
X058600Y-053500
X058750Y-029400
X058800Y-012350
X058800Y-031750
X059050Y-032600
X059050Y-043650
X059200Y-032000
X059200Y-039000
X059250Y-036100
X059300Y-008400
X059300Y-016700
X059300Y-030200
X059450Y-011700
X059700Y-024450
X059700Y-025100
X059700Y-027550
X059750Y-025500
X059800Y-020700
X059800Y-039500
X059800Y-039900
X059800Y-044500
X059900Y-018500
X059900Y-027950
X060100Y-042900
X060150Y-008700
X060150Y-023000
X060150Y-024000
X060150Y-024500
X060200Y-019000
X060200Y-040050
X060250Y-019700
X060450Y-026150
X060500Y-023600
X060550Y-021350
X060550Y-028450
X060600Y-042650
X060650Y-028850
X060650Y-040050
X060650Y-040450
X060800Y-045700
X060900Y-019700
X060950Y-021050
X060950Y-025950
X061050Y-042500
X061100Y-040450
X061100Y-040850
X061400Y-046250
X061450Y-023400
X061450Y-028150
X061500Y-019700
X061500Y-035750
X061500Y-041000
X061600Y-012500
X061600Y-032300
X061600Y-042300
X061650Y-044650
X061900Y-013200
X061950Y-041050
X061950Y-054450
X062000Y-011850
X062050Y-027700
X062100Y-020750
X062200Y-018600
X062200Y-019900
X062300Y-022950
X062300Y-023450
X062300Y-045200
X062400Y-019250
X062400Y-041050
X062500Y-011950
X062600Y-044800
X062650Y-041650
X062700Y-019550
X062700Y-022800
X062800Y-014600
X062850Y-041050
X063000Y-018600
X063050Y-009400
X063050Y-020450
X063200Y-051500
X063350Y-018400
X063400Y-008450
X063400Y-042650
X063550Y-045800
X063750Y-016750
X063850Y-038450
X064000Y-019000
X064100Y-018600
X064150Y-016650
X064200Y-051050
X064250Y-029050
X064300Y-051850
X064350Y-033150
X064400Y-034050
X064550Y-033500
X064550Y-038450
X064550Y-045300
X064600Y-008800
X064700Y-012300
X064750Y-011850
X064750Y-033850
X064850Y-014300
X064850Y-038200
X064900Y-034250
X064950Y-027750
X064950Y-051250
X065000Y-009700
X065000Y-014700
X065050Y-034650
X065150Y-035050
X065150Y-038450
X065150Y-045800
X065200Y-015050
X065250Y-013300
X065300Y-019000
X065350Y-032750
X065350Y-051250
X065400Y-018600
X065400Y-028150
X065450Y-014600
X065550Y-038200
X065600Y-056350
X065750Y-038550
X065950Y-041300
X066100Y-019450
X066100Y-044850
X066150Y-032800
X066250Y-029000
X066450Y-038500
X066600Y-041050
X066650Y-008200
X066650Y-008800
X066650Y-050900
X066750Y-038200
X066850Y-006500
X067000Y-014400
X067300Y-019000
X067300Y-025550
X067400Y-008550
X067450Y-022650
X067450Y-054900
X067600Y-014900
X067600Y-018600
X067600Y-038250
X067650Y-029000
X067700Y-014300
X067850Y-020150
X067850Y-022950
X067850Y-055250
X067900Y-008900
X067900Y-043250
X068000Y-028150
X068150Y-034350
X068200Y-015300
X068200Y-055700
X068300Y-014300
X068300Y-021000
X068300Y-022350
X068400Y-028950
X068400Y-045250
X068450Y-028500
X068450Y-034650
X068500Y-016500
X068650Y-033650
X068750Y-026150
X068800Y-019000
X068850Y-016250
X068900Y-011300
X068900Y-028250
X069100Y-014400
X069150Y-025400
X069150Y-044000
X069200Y-018600
X069200Y-027800
X069300Y-033300
X069300Y-034150
X069300Y-053900
X069400Y-028200
X069450Y-022250
X069450Y-032650
X069500Y-014950
X069500Y-016200
X069700Y-020150
X069700Y-034050
X069700Y-041050
X069750Y-018400
X069750Y-019500
X069800Y-014650
X069800Y-025700
X069800Y-026150
X069800Y-051000
X069950Y-022800
X069950Y-024300
X069950Y-024950
X069950Y-055600
X070000Y-053000
X070101Y-020449
X070150Y-018350
X070150Y-046250
X070200Y-015050
X070200Y-023500
X070200Y-024000
X070250Y-022200
X070300Y-021050
X070300Y-023100
X070300Y-027750
X070300Y-041350
X070550Y-029750
X070650Y-014550
X070750Y-016050
X070750Y-041350
X070750Y-054600
X070800Y-055125
X070900Y-050150
X071100Y-033650
X071150Y-014300
X071150Y-029150
X071200Y-012100
X071250Y-017750
X071650Y-037350
X071800Y-012700
X071850Y-016400
X071850Y-046000
X071900Y-034300
X072000Y-020350
X072000Y-022700
X072050Y-043800
X072100Y-028450
X072150Y-027850
X072200Y-018750
X072200Y-048400
X072350Y-019550
X072350Y-039050
X072400Y-042950
X072450Y-026050
X072500Y-028550
X072500Y-048700
X072600Y-012100
X072750Y-042750
X072750Y-045350
X072800Y-022350
X072800Y-049000
X073100Y-049300
X073150Y-039050
X073200Y-042300
X073250Y-010900
X073250Y-042750
X073400Y-049600
X073500Y-015400
X073550Y-011300
X073600Y-038750
X073650Y-042300
X073700Y-046500
X073725Y-056050
X073800Y-053400
X073950Y-041200
X074000Y-040800
X074250Y-017450
X074300Y-045000
X074400Y-014300
X074600Y-054150
X074700Y-054600
X074850Y-043650
X074950Y-029500
X075050Y-022900
X075100Y-046000
X075300Y-029000
X075400Y-027900
X075700Y-022400
X075800Y-028050
X075850Y-016800
X076000Y-028450
X076050Y-017750
X076100Y-022900
X076300Y-021950
X076350Y-025050
X076400Y-028400
X076600Y-011600
X076600Y-013000
X076700Y-022150
X076700Y-029200
X076800Y-012500
X076800Y-028550
X076950Y-023100
X077100Y-021700
X077100Y-029150
X077150Y-022200
X077350Y-014550
X077350Y-019400
X077350Y-055000
X077400Y-028500
X077450Y-029450
X077550Y-017900
X077650Y-022800
X077650Y-043900
X077700Y-019200
X077700Y-036850
X077750Y-021200
X077900Y-040450
X077950Y-053900
X078050Y-018100
X078100Y-019200
X078300Y-018400
X078300Y-053050
X078500Y-014550
X078750Y-017850
X078900Y-014750
X078900Y-043850
X078950Y-016750
X078950Y-017150
X079000Y-018150
X079000Y-020750
X079100Y-010950
X079150Y-052800
X079250Y-009350
X079300Y-043200
X079600Y-021200
X079700Y-014650
X079700Y-035550
X079700Y-038900
X079750Y-019750
X079750Y-046750
X079900Y-047200
X080050Y-021150
X080150Y-016800
X080150Y-017900
X080200Y-017500
X080400Y-008600
X080400Y-029350
X080450Y-018800
X080950Y-036750
X081050Y-032950
X081250Y-036400
X081725Y-025450
X081850Y-035350
X081900Y-036550
X081900Y-047350
X082250Y-019650
X082450Y-023350
X082450Y-025400
X082500Y-014150
X082500Y-015400
X082550Y-037200
X082600Y-008700
X082750Y-038350
X082750Y-047550
X082900Y-036450
X083100Y-034100
X083200Y-037200
X083250Y-036750
X083250Y-048650
X083350Y-005250
X083452Y-038550
X083550Y-033100
X083550Y-038950
X083650Y-011600
X083650Y-015000
X083800Y-023350
X084050Y-040500
X084150Y-038650
X084400Y-005200
X084400Y-009000
X084400Y-040300
X084500Y-024000
X084550Y-029850
X084900Y-024100
X085100Y-023700
X085300Y-028250
X085400Y-005200
X085400Y-008950
X085500Y-038600
X085650Y-021450
X085650Y-034550
X085700Y-018150
X085700Y-028100
X085750Y-040900
X085750Y-043050
X085800Y-033250
X085950Y-022600
X085950Y-029500
X086050Y-043300
X086100Y-024200
X086100Y-033600
X086100Y-039200
X086150Y-004900
X086150Y-027900
X086200Y-019050
X086200Y-045500
X086300Y-012450
X086300Y-015700
X086350Y-040650
X086350Y-042750
X086350Y-050150
X086450Y-005150
X086450Y-021050
X086500Y-042000
X086550Y-043850
X086600Y-053800
X086650Y-045400
X086650Y-046750
X086650Y-054450
X086670Y-039480
X086700Y-040250
X086750Y-040650
X086850Y-019200
X086850Y-023250
X086900Y-044150
X087000Y-027450
X087050Y-047100
X087150Y-023800
X087200Y-020700
X087250Y-039850
X087250Y-045950
X087300Y-021700
X087300Y-040650
X087350Y-023400
X087350Y-046800
X087350Y-055250
X087400Y-043350
X087500Y-005200
X087550Y-027400
X087700Y-018450
X087750Y-046600
X087900Y-050600
X087900Y-053200
X087950Y-048900
X088050Y-043800
X088100Y-040200
X088150Y-022950
X088200Y-011100
X088200Y-029850
X088200Y-047400
X088250Y-015450
X088400Y-036500
X088440Y-039840
X088450Y-010250
X088450Y-044100
X088500Y-033000
X088550Y-005250
X088600Y-043500
X088600Y-053150
X088700Y-018150
X088700Y-042050
X088850Y-036550
X089050Y-043800
X089150Y-039200
X089200Y-035000
X089300Y-012950
X089350Y-009650
X089350Y-021400
X089350Y-039850
X089400Y-045500
X089600Y-054950
X089650Y-036700
X089650Y-044100
X089700Y-055900
X089750Y-053850
X089850Y-029450
X089850Y-040400
X089850Y-043000
X089900Y-045750
X089900Y-048300
X089950Y-008750
X089950Y-043800
X090050Y-027700
X090150Y-026900
X090150Y-041550
X090150Y-042500
X090150Y-043400
X090200Y-039950
X090250Y-007000
X090250Y-007400
X090250Y-007800
X090300Y-009050
X090400Y-038100
X090500Y-039550
X090500Y-042000
X090550Y-031750
X090600Y-033200
X090700Y-035400
X090800Y-032150
X090800Y-038400
X090800Y-043300
X090850Y-019950
X091000Y-035900
X091150Y-037050
X091250Y-045150
X091250Y-054900
X091400Y-035700
X091450Y-038900
X091700Y-033850
X091700Y-044450
X091750Y-011250
X091850Y-039700
X092100Y-034900
X092100Y-042850
X092100Y-044000
X092150Y-014000
X092150Y-046250
X092350Y-012550
X092500Y-013500
X092500Y-026850
X092700Y-011150
X092700Y-042600
X092750Y-016650
X092800Y-050100
X092950Y-006950
X092950Y-043000
X092950Y-044000
X093050Y-040050
X093100Y-042400
X093100Y-046550
X093150Y-010200
X093150Y-034250
X093150Y-038850
X093330Y-010900
X093350Y-040400
X093400Y-034700
X093400Y-043600
X093400Y-044000
X093450Y-009850
X093550Y-006500
X093550Y-009250
X093600Y-008050
X093600Y-008450
X093600Y-008850
X093650Y-039000
X093700Y-037300
X094000Y-040450
X094150Y-012750
X094150Y-044100
X094200Y-006950
X094200Y-040800
X094200Y-046200
X094450Y-011300
X094450Y-012400
X094450Y-045150
X094500Y-041100
X094650Y-045800
X094800Y-040300
X094850Y-049550
X094850Y-049950
X095100Y-026150
X095100Y-033450
X095200Y-007450
X095200Y-010250
X095250Y-038050
X095300Y-006150
X095300Y-040300
X095350Y-018250
X095350Y-052100
X095400Y-039750
X095450Y-021750
X095450Y-037300
X095550Y-028750
X095600Y-015950
X095650Y-013350
X095650Y-045300
X095700Y-019000
X095800Y-008400
X095800Y-052450
X095900Y-019900
X095900Y-039250
X096150Y-050800
X096200Y-042150
X096250Y-043750
X096350Y-012150
X096350Y-012850
X096450Y-041750
X096450Y-042450
X096550Y-015500
X096600Y-016050
X096750Y-020450
X096800Y-039550
X096900Y-040950
X097000Y-040100
X097100Y-031750
X097150Y-016050
X097250Y-040550
X097250Y-044150
X097550Y-028100
X097600Y-010400
X097600Y-015050
X097850Y-012650
X097850Y-014600
X098500Y-029050
X098550Y-031250
X098650Y-014350
X098750Y-007100
X098900Y-030050
X099200Y-020450
X099200Y-028900
X099300Y-033250
X099600Y-042100
X100000Y-023600
X100400Y-044600
X100900Y-019950
X101700Y-042500
X102100Y-044300
X102300Y-040450
X103000Y-042050
X103050Y-041600
X103050Y-043400
X103150Y-043000
T3
X044900Y-052981
X046789Y-051800
T4
X040163Y-036400
X040163Y-037400
X040950Y-036400
X040950Y-037400
X041050Y-049500
X042050Y-049500
X044250Y-048000
X044250Y-049000
X060900Y-014600
X061900Y-014600
X065750Y-046200
X066750Y-046200
X074031Y-031827
X075031Y-031827
X075850Y-036500
X076031Y-031827
X077031Y-031827
X078031Y-031827
X079031Y-031827
X080031Y-031827
X081031Y-031827
X082031Y-031827
X083031Y-031827
X084031Y-031827
X085031Y-031827
X086031Y-031827
X087031Y-031827
X088031Y-031827
X088600Y-050100
X088600Y-051100
X088600Y-052100
X089030Y-031827
X091600Y-050100
X091600Y-051100
X091600Y-052100
X099700Y-019650
X099700Y-020650
T5
X074650Y-010000
X075150Y-009000
X075650Y-010000
X076150Y-009000
X076650Y-010000
X077150Y-009000
X077650Y-010000
X078150Y-009000
X096446Y-051800
X096896Y-050800
X096896Y-052800
X097346Y-051800
X097796Y-050800
X097796Y-052800
X098246Y-051800
X098695Y-050800
X098695Y-052800
X099145Y-051800
X099595Y-050800
X099595Y-052800
X100045Y-051800
X100245Y-007587
X100245Y-010263
X100495Y-050800
X100495Y-052800
X101229Y-007587
X101229Y-008414
X101229Y-009436
X101229Y-010263
T6
X044900Y-050619
X055500Y-006700
X055500Y-007700
X056500Y-006700
X056500Y-007700
X057500Y-006700
X057500Y-007700
X058500Y-006700
X058500Y-007700
X059500Y-006700
X059500Y-007700
X060500Y-006700
X060500Y-007700
X060800Y-052050
X060800Y-053050
X060850Y-055850
X061500Y-006700
X061500Y-007700
X061800Y-052050
X061800Y-053050
X061850Y-055850
X062500Y-006700
X062500Y-007700
X062800Y-052050
X062800Y-053050
X062850Y-055850
X063500Y-006700
X063500Y-007700
X063800Y-052050
X063800Y-053050
X064500Y-006700
X064500Y-007700
X064800Y-052050
X064800Y-053050
X065800Y-052050
X065800Y-053050
X066800Y-052050
X066800Y-053050
X074249Y-011901
X075249Y-011901
X077551Y-011901
X078551Y-011901
T7
X041300Y-041900
X041300Y-042900
X041300Y-043700
X041300Y-044700
T8
X036400Y-053300
X036400Y-054300
X037500Y-055550
X037500Y-056550
X041100Y-010350
X041100Y-011450
X041100Y-012500
X041100Y-013600
X041100Y-023650
X041100Y-024750
X041100Y-025800
X041100Y-026900
X042100Y-009800
X042100Y-010900
X042100Y-012000
X042100Y-013050
X042100Y-014150
X042100Y-023100
X042100Y-024200
X042100Y-025300
X042100Y-026350
X042100Y-027450
X043150Y-006800
X043150Y-007800
X043500Y-018100
X043500Y-019100
X044500Y-018100
X044500Y-019100
X045000Y-008900
X048000Y-008900
X050000Y-018100
X050000Y-019100
X051000Y-049050
X051000Y-050050
X051350Y-025250
X051350Y-026250
X055700Y-010000
X055700Y-011800
X055700Y-013500
X056700Y-010000
X056700Y-011800
X056700Y-013500
X057700Y-010000
X057700Y-011800
X057700Y-013500
X065800Y-012300
X065800Y-013300
X066800Y-012300
X066800Y-013300
X067400Y-006100
X067400Y-007100
X067400Y-009400
X067400Y-010400
X067800Y-012300
X067800Y-013300
X068400Y-006100
X068400Y-007100
X068400Y-009400
X068400Y-010400
X068800Y-012300
X068800Y-013300
X069400Y-006100
X069400Y-007100
X069400Y-009400
X069400Y-010400
X069800Y-012300
X069800Y-013300
X070400Y-006100
X070400Y-007100
X070400Y-009400
X070400Y-010400
X071400Y-006100
X071400Y-007100
X071400Y-009400
X071400Y-010400
X071750Y-051500
X071750Y-052500
X071750Y-053500
X071750Y-054500
X071750Y-055500
X072750Y-051500
X072750Y-052500
X072750Y-053500
X072750Y-054500
X072750Y-055500
X074200Y-026050
X075200Y-026050
X075850Y-037500
X075850Y-038500
X075850Y-039500
X075850Y-040500
X075850Y-041500
X075850Y-042500
X075850Y-043500
X075850Y-044500
X075850Y-045500
X075850Y-046500
X075850Y-047500
X075850Y-048500
X075850Y-049500
X075850Y-050500
X075850Y-051500
X075850Y-052500
X075850Y-053500
X075850Y-054500
X075850Y-055500
X076850Y-036500
X076850Y-037500
X076850Y-038500
X076850Y-039500
X076850Y-040500
X076850Y-041500
X076850Y-042500
X076850Y-043500
X076850Y-044500
X076850Y-045500
X076850Y-046500
X076850Y-047500
X076850Y-048500
X076850Y-049500
X076850Y-050500
X076850Y-051500
X076850Y-052500
X076850Y-053500
X076850Y-054500
X076850Y-055500
X080450Y-049800
X080450Y-050800
X080450Y-051800
X080550Y-053400
X081550Y-053400
X081950Y-021100
X081950Y-022100
X082250Y-049800
X082250Y-050800
X082250Y-051800
X082550Y-053400
X083550Y-053400
X084000Y-049800
X084000Y-050800
X084000Y-051800
X084550Y-053400
X085550Y-053400
X085600Y-049750
X085600Y-050750
X085600Y-051750
X088400Y-024200
X088400Y-025200
X088400Y-026200
X088400Y-027200
X088400Y-028200
X089400Y-024200
X089400Y-025200
X089400Y-026200
X089400Y-027200
X089400Y-028200
X093200Y-017600
X093200Y-018600
X093200Y-019600
X093200Y-020600
X093200Y-021600
X093200Y-022600
X093200Y-023600
X093200Y-024600
X093200Y-025600
X093200Y-026600
X093200Y-027600
X093200Y-028600
X093200Y-029600
X093200Y-030600
X093200Y-031600
X094200Y-017600
X094200Y-018600
X094200Y-019600
X094200Y-020600
X094200Y-021600
X094200Y-022600
X094200Y-023600
X094200Y-024600
X094200Y-025600
X094200Y-026600
X094200Y-027600
X094200Y-028600
X094200Y-029600
X094200Y-030600
X094200Y-031600
X103300Y-027100
X103300Y-028100
X103300Y-029100
X103300Y-030100
X103300Y-031100
X103300Y-032100
X103300Y-033350
X103300Y-034350
X103300Y-035350
X103300Y-036350
X103300Y-037350
X103300Y-038350
X103400Y-012700
X103400Y-013700
X103400Y-014700
X103400Y-019150
X103400Y-020150
X103400Y-021150
X103400Y-022150
T9
X102000Y-047000
T10
X101000Y-046000
X101000Y-048000
X103000Y-046000
X103000Y-048000
T11
X073300Y-007701
X079500Y-007701
T12
X039100Y-034538
X039100Y-039262
X040250Y-040500
X040250Y-045900
T13
X035700Y-057050
X041100Y-006950
X041100Y-016950
X041100Y-020250
X041100Y-030250
X048500Y-020000
X103600Y-005950
X103650Y-056700
T2
X080800Y-005800G85X080800Y-005300
G05
X081400Y-016950G85X081600Y-016950
G05
X084200Y-016350G85X084200Y-016150
G05
X087200Y-016350G85X087200Y-016150
G05
X090700Y-016050G85X090900Y-016050
G05
X091600Y-005550G85X091600Y-005350
G05
T0
M30
