0
SECTION
2
HEADER
9
$ANGBASE
50
0.0
9
$ANGDIR
70
0
0
ENDSEC
0
SECTION
2
TABLES
0
TABLE
2
LTYPE
70
1
0
LTYPE
2
CONTINUOUS
70
0
3
Solid line
72
65
73
0
40
0.0
0
ENDTAB
0
TABLE
2
LAYER
70
24
0
LAYER
2
BLACK
70
0
62
1
6
CONTINUOUS
0
LAYER
2
BLUE
70
0
62
2
6
CONTINUOUS
0
LAYER
2
GREEN
70
0
62
3
6
CONTINUOUS
0
LAYER
2
CYAN
70
0
62
4
6
CONTINUOUS
0
LAYER
2
RED
70
0
62
5
6
CONTINUOUS
0
LAYER
2
MAGENTA
70
0
62
6
6
CONTINUOUS
0
LAYER
2
BROWN
70
0
62
7
6
CONTINUOUS
0
LAYER
2
GRAY
70
0
62
8
6
CONTINUOUS
0
LAYER
2
DARKGRAY
70
0
62
9
6
CONTINUOUS
0
LAYER
2
LIGHTBLUE
70
0
62
10
6
CONTINUOUS
0
LAYER
2
LIGHTGREEN
70
0
62
11
6
CONTINUOUS
0
LAYER
2
LIGHTCYAN
70
0
62
12
6
CONTINUOUS
0
LAYER
2
LIGHTRED
70
0
62
13
6
CONTINUOUS
0
LAYER
2
LIGHTMAGENTA
70
0
62
14
6
CONTINUOUS
0
LAYER
2
YELLOW
70
0
62
15
6
CONTINUOUS
0
LAYER
2
WHITE
70
0
62
16
6
CONTINUOUS
0
LAYER
2
DARKDARKGRAY
70
0
62
17
6
CONTINUOUS
0
LAYER
2
DARKBLUE
70
0
62
18
6
CONTINUOUS
0
LAYER
2
DARKGREEN
70
0
62
19
6
CONTINUOUS
0
LAYER
2
DARKCYAN
70
0
62
20
6
CONTINUOUS
0
LAYER
2
DARKRED
70
0
62
21
6
CONTINUOUS
0
LAYER
2
DARKMAGENTA
70
0
62
22
6
CONTINUOUS
0
LAYER
2
DARKBROWN
70
0
62
23
6
CONTINUOUS
0
LAYER
2
LIGHTYELLOW
70
0
62
24
6
CONTINUOUS
0
ENDTAB
0
ENDSEC
0
SECTION
2
ENTITIES
0
LINE
8
BLACK
10
67430.0
20
48698.0
11
67430.0
21
48355.0
0
LINE
8
BLACK
10
67430.0
20
48527.0
11
66630.0
21
48527.0
0
LINE
8
BLACK
10
66630.0
20
48527.0
11
66744.0
21
48470.0
0
LINE
8
BLACK
10
66744.0
20
48470.0
11
66820.0
21
48412.0
0
LINE
8
BLACK
10
66820.0
20
48412.0
11
66858.0
21
48355.0
0
LINE
8
BLACK
10
66630.0
20
48898.0
11
66630.0
21
49269.0
0
LINE
8
BLACK
10
66630.0
20
49269.0
11
66935.0
21
49069.0
0
LINE
8
BLACK
10
66935.0
20
49069.0
11
66935.0
21
49155.0
0
LINE
8
BLACK
10
66935.0
20
49155.0
11
66973.0
21
49212.0
0
LINE
8
BLACK
10
66973.0
20
49212.0
11
67011.0
21
49241.0
0
LINE
8
BLACK
10
67011.0
20
49241.0
11
67087.0
21
49269.0
0
LINE
8
BLACK
10
67087.0
20
49269.0
11
67277.0
21
49269.0
0
LINE
8
BLACK
10
67277.0
20
49269.0
11
67354.0
21
49241.0
0
LINE
8
BLACK
10
67354.0
20
49241.0
11
67392.0
21
49212.0
0
LINE
8
BLACK
10
67392.0
20
49212.0
11
67430.0
21
49155.0
0
LINE
8
BLACK
10
67430.0
20
49155.0
11
67430.0
21
48983.0
0
LINE
8
BLACK
10
67430.0
20
48983.0
11
67392.0
21
48926.0
0
LINE
8
BLACK
10
67392.0
20
48926.0
11
67354.0
21
48898.0
0
LINE
8
BLACK
10
66630.0
20
49812.0
11
66630.0
21
49526.0
0
LINE
8
BLACK
10
66630.0
20
49526.0
11
67011.0
21
49497.0
0
LINE
8
BLACK
10
67011.0
20
49497.0
11
66973.0
21
49526.0
0
LINE
8
BLACK
10
66973.0
20
49526.0
11
66935.0
21
49583.0
0
LINE
8
BLACK
10
66935.0
20
49583.0
11
66935.0
21
49726.0
0
LINE
8
BLACK
10
66935.0
20
49726.0
11
66973.0
21
49783.0
0
LINE
8
BLACK
10
66973.0
20
49783.0
11
67011.0
21
49812.0
0
LINE
8
BLACK
10
67011.0
20
49812.0
11
67087.0
21
49840.0
0
LINE
8
BLACK
10
67087.0
20
49840.0
11
67277.0
21
49840.0
0
LINE
8
BLACK
10
67277.0
20
49840.0
11
67354.0
21
49812.0
0
LINE
8
BLACK
10
67354.0
20
49812.0
11
67392.0
21
49783.0
0
LINE
8
BLACK
10
67392.0
20
49783.0
11
67430.0
21
49726.0
0
LINE
8
BLACK
10
67430.0
20
49726.0
11
67430.0
21
49583.0
0
LINE
8
BLACK
10
67430.0
20
49583.0
11
67392.0
21
49526.0
0
LINE
8
BLACK
10
67392.0
20
49526.0
11
67354.0
21
49497.0
0
LINE
8
BLACK
10
67354.0
20
50097.0
11
67392.0
21
50125.0
0
LINE
8
BLACK
10
67392.0
20
50125.0
11
67430.0
21
50097.0
0
LINE
8
BLACK
10
67430.0
20
50097.0
11
67392.0
21
50068.0
0
LINE
8
BLACK
10
67392.0
20
50068.0
11
67354.0
21
50097.0
0
LINE
8
BLACK
10
67354.0
20
50097.0
11
67430.0
21
50097.0
0
LINE
8
BLACK
10
66630.0
20
50326.0
11
66630.0
21
50697.0
0
LINE
8
BLACK
10
66630.0
20
50697.0
11
66935.0
21
50497.0
0
LINE
8
BLACK
10
66935.0
20
50497.0
11
66935.0
21
50583.0
0
LINE
8
BLACK
10
66935.0
20
50583.0
11
66973.0
21
50640.0
0
LINE
8
BLACK
10
66973.0
20
50640.0
11
67011.0
21
50669.0
0
LINE
8
BLACK
10
67011.0
20
50669.0
11
67087.0
21
50697.0
0
LINE
8
BLACK
10
67087.0
20
50697.0
11
67277.0
21
50697.0
0
LINE
8
BLACK
10
67277.0
20
50697.0
11
67354.0
21
50669.0
0
LINE
8
BLACK
10
67354.0
20
50669.0
11
67392.0
21
50640.0
0
LINE
8
BLACK
10
67392.0
20
50640.0
11
67430.0
21
50583.0
0
LINE
8
BLACK
10
67430.0
20
50583.0
11
67430.0
21
50411.0
0
LINE
8
BLACK
10
67430.0
20
50411.0
11
67392.0
21
50354.0
0
LINE
8
BLACK
10
67392.0
20
50354.0
11
67354.0
21
50326.0
0
LINE
8
BLACK
10
66973.0
20
51040.0
11
66935.0
21
50982.0
0
LINE
8
BLACK
10
66935.0
20
50982.0
11
66896.0
21
50954.0
0
LINE
8
BLACK
10
66896.0
20
50954.0
11
66820.0
21
50925.0
0
LINE
8
BLACK
10
66820.0
20
50925.0
11
66782.0
21
50925.0
0
LINE
8
BLACK
10
66782.0
20
50925.0
11
66706.0
21
50954.0
0
LINE
8
BLACK
10
66706.0
20
50954.0
11
66668.0
21
50982.0
0
LINE
8
BLACK
10
66668.0
20
50982.0
11
66630.0
21
51040.0
0
LINE
8
BLACK
10
66630.0
20
51040.0
11
66630.0
21
51154.0
0
LINE
8
BLACK
10
66630.0
20
51154.0
11
66668.0
21
51211.0
0
LINE
8
BLACK
10
66668.0
20
51211.0
11
66706.0
21
51240.0
0
LINE
8
BLACK
10
66706.0
20
51240.0
11
66782.0
21
51268.0
0
LINE
8
BLACK
10
66782.0
20
51268.0
11
66820.0
21
51268.0
0
LINE
8
BLACK
10
66820.0
20
51268.0
11
66896.0
21
51240.0
0
LINE
8
BLACK
10
66896.0
20
51240.0
11
66935.0
21
51211.0
0
LINE
8
BLACK
10
66935.0
20
51211.0
11
66973.0
21
51154.0
0
LINE
8
BLACK
10
66973.0
20
51154.0
11
66973.0
21
51040.0
0
LINE
8
BLACK
10
66973.0
20
51040.0
11
67011.0
21
50982.0
0
LINE
8
BLACK
10
67011.0
20
50982.0
11
67049.0
21
50954.0
0
LINE
8
BLACK
10
67049.0
20
50954.0
11
67125.0
21
50925.0
0
LINE
8
BLACK
10
67125.0
20
50925.0
11
67277.0
21
50925.0
0
LINE
8
BLACK
10
67277.0
20
50925.0
11
67354.0
21
50954.0
0
LINE
8
BLACK
10
67354.0
20
50954.0
11
67392.0
21
50982.0
0
LINE
8
BLACK
10
67392.0
20
50982.0
11
67430.0
21
51040.0
0
LINE
8
BLACK
10
67430.0
20
51040.0
11
67430.0
21
51154.0
0
LINE
8
BLACK
10
67430.0
20
51154.0
11
67392.0
21
51211.0
0
LINE
8
BLACK
10
67392.0
20
51211.0
11
67354.0
21
51240.0
0
LINE
8
BLACK
10
67354.0
20
51240.0
11
67277.0
21
51268.0
0
LINE
8
BLACK
10
67277.0
20
51268.0
11
67125.0
21
51268.0
0
LINE
8
BLACK
10
67125.0
20
51268.0
11
67049.0
21
51240.0
0
LINE
8
BLACK
10
67049.0
20
51240.0
11
67011.0
21
51211.0
0
LINE
8
BLACK
10
67011.0
20
51211.0
11
66973.0
21
51154.0
0
LINE
8
BLACK
10
66706.0
20
51496.0
11
66668.0
21
51525.0
0
LINE
8
BLACK
10
66668.0
20
51525.0
11
66630.0
21
51582.0
0
LINE
8
BLACK
10
66630.0
20
51582.0
11
66630.0
21
51725.0
0
LINE
8
BLACK
10
66630.0
20
51725.0
11
66668.0
21
51782.0
0
LINE
8
BLACK
10
66668.0
20
51782.0
11
66706.0
21
51811.0
0
LINE
8
BLACK
10
66706.0
20
51811.0
11
66782.0
21
51839.0
0
LINE
8
BLACK
10
66782.0
20
51839.0
11
66858.0
21
51839.0
0
LINE
8
BLACK
10
66858.0
20
51839.0
11
66973.0
21
51811.0
0
LINE
8
BLACK
10
66973.0
20
51811.0
11
67430.0
21
51468.0
0
LINE
8
BLACK
10
67430.0
20
51468.0
11
67430.0
21
51839.0
0
LINE
8
BLACK
10
67430.0
20
52553.0
11
66896.0
21
52553.0
0
LINE
8
BLACK
10
66973.0
20
52553.0
11
66935.0
21
52581.0
0
LINE
8
BLACK
10
66935.0
20
52581.0
11
66896.0
21
52639.0
0
LINE
8
BLACK
10
66896.0
20
52639.0
11
66896.0
21
52724.0
0
LINE
8
BLACK
10
66896.0
20
52724.0
11
66935.0
21
52781.0
0
LINE
8
BLACK
10
66935.0
20
52781.0
11
67011.0
21
52810.0
0
LINE
8
BLACK
10
67011.0
20
52810.0
11
67430.0
21
52810.0
0
LINE
8
BLACK
10
67011.0
20
52810.0
11
66935.0
21
52839.0
0
LINE
8
BLACK
10
66935.0
20
52839.0
11
66896.0
21
52896.0
0
LINE
8
BLACK
10
66896.0
20
52896.0
11
66896.0
21
52981.0
0
LINE
8
BLACK
10
66896.0
20
52981.0
11
66935.0
21
53039.0
0
LINE
8
BLACK
10
66935.0
20
53039.0
11
67011.0
21
53067.0
0
LINE
8
BLACK
10
67011.0
20
53067.0
11
67430.0
21
53067.0
0
LINE
8
BLACK
10
67430.0
20
53353.0
11
66896.0
21
53353.0
0
LINE
8
BLACK
10
66973.0
20
53353.0
11
66935.0
21
53381.0
0
LINE
8
BLACK
10
66935.0
20
53381.0
11
66896.0
21
53439.0
0
LINE
8
BLACK
10
66896.0
20
53439.0
11
66896.0
21
53524.0
0
LINE
8
BLACK
10
66896.0
20
53524.0
11
66935.0
21
53581.0
0
LINE
8
BLACK
10
66935.0
20
53581.0
11
67011.0
21
53610.0
0
LINE
8
BLACK
10
67011.0
20
53610.0
11
67430.0
21
53610.0
0
LINE
8
BLACK
10
67011.0
20
53610.0
11
66935.0
21
53639.0
0
LINE
8
BLACK
10
66935.0
20
53639.0
11
66896.0
21
53696.0
0
LINE
8
BLACK
10
66896.0
20
53696.0
11
66896.0
21
53781.0
0
LINE
8
BLACK
10
66896.0
20
53781.0
11
66935.0
21
53839.0
0
LINE
8
BLACK
10
66935.0
20
53839.0
11
67011.0
21
53867.0
0
LINE
8
BLACK
10
67011.0
20
53867.0
11
67430.0
21
53867.0
0
LINE
8
BLACK
10
66526.0
20
24474.0
11
66526.0
21
77774.0
0
LINE
8
BLACK
10
66406.0
20
24474.0
11
66406.0
21
77774.0
0
ARC
8
BLACK
10
66466.0
20
77774.0
40
60.0
50
360.0
51
540.0
0
ARC
8
BLACK
10
66466.0
20
24474.0
40
60.0
50
180.0
51
360.0
0
LINE
8
BLACK
10
61700.0
20
24413.0
11
67770.0
21
24413.0
0
LINE
8
BLACK
10
61700.0
20
24533.0
11
67770.0
21
24533.0
0
ARC
8
BLACK
10
67770.0
20
24473.0
40
60.0
50
270.0
51
450.0
0
ARC
8
BLACK
10
61700.0
20
24473.0
40
60.0
50
90.0
51
270.0
0
LINE
8
BLACK
10
61650.0
20
77713.0
11
67720.0
21
77713.0
0
LINE
8
BLACK
10
61650.0
20
77833.0
11
67720.0
21
77833.0
0
ARC
8
BLACK
10
67720.0
20
77773.0
40
60.0
50
270.0
51
450.0
0
ARC
8
BLACK
10
61650.0
20
77773.0
40
60.0
50
90.0
51
270.0
0
LINE
8
BLACK
10
66387.0
20
77746.0
11
66618.0
21
77305.0
0
LINE
8
BLACK
10
66494.0
20
77801.0
11
66725.0
21
77360.0
0
ARC
8
BLACK
10
66671.0
20
77332.0
40
60.0
50
207.0
51
387.0
0
ARC
8
BLACK
10
66441.0
20
77774.0
40
60.0
50
27.0
51
207.0
0
LINE
8
BLACK
10
66387.0
20
77802.0
11
66158.0
21
77360.0
0
LINE
8
BLACK
10
66494.0
20
77746.0
11
66265.0
21
77304.0
0
ARC
8
BLACK
10
66211.0
20
77332.0
40
60.0
50
152.0
51
332.0
0
ARC
8
BLACK
10
66441.0
20
77774.0
40
60.0
50
-27.0
51
152.0
0
LINE
8
BLACK
10
66544.0
20
24447.0
11
66774.0
21
24889.0
0
LINE
8
BLACK
10
66438.0
20
24503.0
11
66668.0
21
24945.0
0
ARC
8
BLACK
10
66721.0
20
24917.0
40
60.0
50
332.0
51
512.0
0
ARC
8
BLACK
10
66491.0
20
24475.0
40
60.0
50
152.0
51
332.0
0
LINE
8
BLACK
10
66543.0
20
24503.0
11
66313.0
21
24945.0
0
LINE
8
BLACK
10
66437.0
20
24447.0
11
66207.0
21
24889.0
0
ARC
8
BLACK
10
66260.0
20
24917.0
40
60.0
50
387.0
51
567.0
0
ARC
8
BLACK
10
66490.0
20
24475.0
40
60.0
50
207.0
51
387.0
0
LINE
8
BLACK
10
68662.0
20
49504.0
11
68662.0
21
49218.0
0
LINE
8
BLACK
10
68662.0
20
49218.0
11
69043.0
21
49189.0
0
LINE
8
BLACK
10
69043.0
20
49189.0
11
69005.0
21
49218.0
0
LINE
8
BLACK
10
69005.0
20
49218.0
11
68967.0
21
49275.0
0
LINE
8
BLACK
10
68967.0
20
49275.0
11
68967.0
21
49418.0
0
LINE
8
BLACK
10
68967.0
20
49418.0
11
69005.0
21
49475.0
0
LINE
8
BLACK
10
69005.0
20
49475.0
11
69043.0
21
49504.0
0
LINE
8
BLACK
10
69043.0
20
49504.0
11
69119.0
21
49532.0
0
LINE
8
BLACK
10
69119.0
20
49532.0
11
69309.0
21
49532.0
0
LINE
8
BLACK
10
69309.0
20
49532.0
11
69386.0
21
49504.0
0
LINE
8
BLACK
10
69386.0
20
49504.0
11
69424.0
21
49475.0
0
LINE
8
BLACK
10
69424.0
20
49475.0
11
69462.0
21
49418.0
0
LINE
8
BLACK
10
69462.0
20
49418.0
11
69462.0
21
49275.0
0
LINE
8
BLACK
10
69462.0
20
49275.0
11
69424.0
21
49218.0
0
LINE
8
BLACK
10
69424.0
20
49218.0
11
69386.0
21
49189.0
0
LINE
8
BLACK
10
69386.0
20
49789.0
11
69424.0
21
49817.0
0
LINE
8
BLACK
10
69424.0
20
49817.0
11
69462.0
21
49789.0
0
LINE
8
BLACK
10
69462.0
20
49789.0
11
69424.0
21
49760.0
0
LINE
8
BLACK
10
69424.0
20
49760.0
11
69386.0
21
49789.0
0
LINE
8
BLACK
10
69386.0
20
49789.0
11
69462.0
21
49789.0
0
LINE
8
BLACK
10
68662.0
20
50018.0
11
68662.0
21
50389.0
0
LINE
8
BLACK
10
68662.0
20
50389.0
11
68967.0
21
50189.0
0
LINE
8
BLACK
10
68967.0
20
50189.0
11
68967.0
21
50275.0
0
LINE
8
BLACK
10
68967.0
20
50275.0
11
69005.0
21
50332.0
0
LINE
8
BLACK
10
69005.0
20
50332.0
11
69043.0
21
50361.0
0
LINE
8
BLACK
10
69043.0
20
50361.0
11
69119.0
21
50389.0
0
LINE
8
BLACK
10
69119.0
20
50389.0
11
69309.0
21
50389.0
0
LINE
8
BLACK
10
69309.0
20
50389.0
11
69386.0
21
50361.0
0
LINE
8
BLACK
10
69386.0
20
50361.0
11
69424.0
21
50332.0
0
LINE
8
BLACK
10
69424.0
20
50332.0
11
69462.0
21
50275.0
0
LINE
8
BLACK
10
69462.0
20
50275.0
11
69462.0
21
50103.0
0
LINE
8
BLACK
10
69462.0
20
50103.0
11
69424.0
21
50046.0
0
LINE
8
BLACK
10
69424.0
20
50046.0
11
69386.0
21
50018.0
0
LINE
8
BLACK
10
68662.0
20
50589.0
11
68662.0
21
50960.0
0
LINE
8
BLACK
10
68662.0
20
50960.0
11
68967.0
21
50760.0
0
LINE
8
BLACK
10
68967.0
20
50760.0
11
68967.0
21
50846.0
0
LINE
8
BLACK
10
68967.0
20
50846.0
11
69005.0
21
50903.0
0
LINE
8
BLACK
10
69005.0
20
50903.0
11
69043.0
21
50932.0
0
LINE
8
BLACK
10
69043.0
20
50932.0
11
69119.0
21
50960.0
0
LINE
8
BLACK
10
69119.0
20
50960.0
11
69309.0
21
50960.0
0
LINE
8
BLACK
10
69309.0
20
50960.0
11
69386.0
21
50932.0
0
LINE
8
BLACK
10
69386.0
20
50932.0
11
69424.0
21
50903.0
0
LINE
8
BLACK
10
69424.0
20
50903.0
11
69462.0
21
50846.0
0
LINE
8
BLACK
10
69462.0
20
50846.0
11
69462.0
21
50674.0
0
LINE
8
BLACK
10
69462.0
20
50674.0
11
69424.0
21
50617.0
0
LINE
8
BLACK
10
69424.0
20
50617.0
11
69386.0
21
50589.0
0
LINE
8
BLACK
10
68662.0
20
51503.0
11
68662.0
21
51217.0
0
LINE
8
BLACK
10
68662.0
20
51217.0
11
69043.0
21
51188.0
0
LINE
8
BLACK
10
69043.0
20
51188.0
11
69005.0
21
51217.0
0
LINE
8
BLACK
10
69005.0
20
51217.0
11
68967.0
21
51274.0
0
LINE
8
BLACK
10
68967.0
20
51274.0
11
68967.0
21
51417.0
0
LINE
8
BLACK
10
68967.0
20
51417.0
11
69005.0
21
51474.0
0
LINE
8
BLACK
10
69005.0
20
51474.0
11
69043.0
21
51503.0
0
LINE
8
BLACK
10
69043.0
20
51503.0
11
69119.0
21
51531.0
0
LINE
8
BLACK
10
69119.0
20
51531.0
11
69309.0
21
51531.0
0
LINE
8
BLACK
10
69309.0
20
51531.0
11
69386.0
21
51503.0
0
LINE
8
BLACK
10
69386.0
20
51503.0
11
69424.0
21
51474.0
0
LINE
8
BLACK
10
69424.0
20
51474.0
11
69462.0
21
51417.0
0
LINE
8
BLACK
10
69462.0
20
51417.0
11
69462.0
21
51274.0
0
LINE
8
BLACK
10
69462.0
20
51274.0
11
69424.0
21
51217.0
0
LINE
8
BLACK
10
69424.0
20
51217.0
11
69386.0
21
51188.0
0
LINE
8
BLACK
10
68662.0
20
51902.0
11
68662.0
21
51959.0
0
LINE
8
BLACK
10
68662.0
20
51959.0
11
68700.0
21
52016.0
0
LINE
8
BLACK
10
68700.0
20
52016.0
11
68738.0
21
52045.0
0
LINE
8
BLACK
10
68738.0
20
52045.0
11
68814.0
21
52074.0
0
LINE
8
BLACK
10
68814.0
20
52074.0
11
68967.0
21
52102.0
0
LINE
8
BLACK
10
68967.0
20
52102.0
11
69157.0
21
52102.0
0
LINE
8
BLACK
10
69157.0
20
52102.0
11
69309.0
21
52074.0
0
LINE
8
BLACK
10
69309.0
20
52074.0
11
69386.0
21
52045.0
0
LINE
8
BLACK
10
69386.0
20
52045.0
11
69424.0
21
52016.0
0
LINE
8
BLACK
10
69424.0
20
52016.0
11
69462.0
21
51959.0
0
LINE
8
BLACK
10
69462.0
20
51959.0
11
69462.0
21
51902.0
0
LINE
8
BLACK
10
69462.0
20
51902.0
11
69424.0
21
51845.0
0
LINE
8
BLACK
10
69424.0
20
51845.0
11
69386.0
21
51816.0
0
LINE
8
BLACK
10
69386.0
20
51816.0
11
69309.0
21
51788.0
0
LINE
8
BLACK
10
69309.0
20
51788.0
11
69157.0
21
51759.0
0
LINE
8
BLACK
10
69157.0
20
51759.0
11
68967.0
21
51759.0
0
LINE
8
BLACK
10
68967.0
20
51759.0
11
68814.0
21
51788.0
0
LINE
8
BLACK
10
68814.0
20
51788.0
11
68738.0
21
51816.0
0
LINE
8
BLACK
10
68738.0
20
51816.0
11
68700.0
21
51845.0
0
LINE
8
BLACK
10
68700.0
20
51845.0
11
68662.0
21
51902.0
0
LINE
8
BLACK
10
68662.0
20
52787.0
11
68814.0
21
52787.0
0
LINE
8
BLACK
10
68662.0
20
53016.0
11
68814.0
21
53016.0
0
LINE
8
BLACK
10
68558.0
20
24426.0
11
68558.0
21
77776.0
0
LINE
8
BLACK
10
68438.0
20
24426.0
11
68438.0
21
77776.0
0
ARC
8
BLACK
10
68498.0
20
77776.0
40
60.0
50
360.0
51
540.0
0
ARC
8
BLACK
10
68498.0
20
24426.0
40
60.0
50
180.0
51
360.0
0
LINE
8
BLACK
10
61700.0
20
24364.0
11
69802.0
21
24364.0
0
LINE
8
BLACK
10
61700.0
20
24484.0
11
69802.0
21
24484.0
0
ARC
8
BLACK
10
69802.0
20
24424.0
40
60.0
50
270.0
51
450.0
0
ARC
8
BLACK
10
61700.0
20
24424.0
40
60.0
50
90.0
51
270.0
0
LINE
8
BLACK
10
61650.0
20
77714.0
11
69752.0
21
77714.0
0
LINE
8
BLACK
10
61650.0
20
77834.0
11
69752.0
21
77834.0
0
ARC
8
BLACK
10
69752.0
20
77774.0
40
60.0
50
270.0
51
450.0
0
ARC
8
BLACK
10
61650.0
20
77774.0
40
60.0
50
90.0
51
270.0
0
LINE
8
BLACK
10
68419.0
20
77748.0
11
68650.0
21
77307.0
0
LINE
8
BLACK
10
68526.0
20
77803.0
11
68757.0
21
77362.0
0
ARC
8
BLACK
10
68703.0
20
77334.0
40
60.0
50
207.0
51
387.0
0
ARC
8
BLACK
10
68473.0
20
77776.0
40
60.0
50
27.0
51
207.0
0
LINE
8
BLACK
10
68419.0
20
77804.0
11
68190.0
21
77362.0
0
LINE
8
BLACK
10
68526.0
20
77748.0
11
68297.0
21
77306.0
0
ARC
8
BLACK
10
68243.0
20
77334.0
40
60.0
50
152.0
51
332.0
0
ARC
8
BLACK
10
68473.0
20
77776.0
40
60.0
50
-27.0
51
152.0
0
LINE
8
BLACK
10
68576.0
20
24399.0
11
68806.0
21
24841.0
0
LINE
8
BLACK
10
68470.0
20
24455.0
11
68700.0
21
24897.0
0
ARC
8
BLACK
10
68753.0
20
24869.0
40
60.0
50
332.0
51
512.0
0
ARC
8
BLACK
10
68523.0
20
24427.0
40
60.0
50
152.0
51
332.0
0
LINE
8
BLACK
10
68575.0
20
24455.0
11
68345.0
21
24897.0
0
LINE
8
BLACK
10
68469.0
20
24399.0
11
68239.0
21
24841.0
0
ARC
8
BLACK
10
68292.0
20
24869.0
40
60.0
50
387.0
51
567.0
0
ARC
8
BLACK
10
68522.0
20
24427.0
40
60.0
50
207.0
51
387.0
0
LINE
8
BLACK
10
-8600.0
20
26145.0
11
-8500.0
21
26145.0
0
LINE
8
BLACK
10
-8600.0
20
26295.0
11
-8500.0
21
26295.0
0
ARC
8
BLACK
10
-8500.0
20
26220.0
40
75.0
50
270.0
51
450.0
0
ARC
8
BLACK
10
-8600.0
20
26220.0
40
75.0
50
90.0
51
270.0
0
LINE
8
BLACK
10
-8425.0
20
24420.0
11
-8425.0
21
26220.0
0
LINE
8
BLACK
10
-8575.0
20
24420.0
11
-8575.0
21
26220.0
0
ARC
8
BLACK
10
-8500.0
20
26220.0
40
75.0
50
360.0
51
540.0
0
ARC
8
BLACK
10
-8500.0
20
24420.0
40
75.0
50
180.0
51
360.0
0
LINE
8
BLACK
10
61775.0
20
24420.0
11
61775.0
21
26120.0
0
LINE
8
BLACK
10
61625.0
20
24420.0
11
61625.0
21
26120.0
0
ARC
8
BLACK
10
61700.0
20
26120.0
40
75.0
50
360.0
51
540.0
0
ARC
8
BLACK
10
61700.0
20
24420.0
40
75.0
50
180.0
51
360.0
0
LINE
8
BLACK
10
-8450.0
20
24345.0
11
61700.0
21
24345.0
0
LINE
8
BLACK
10
-8450.0
20
24495.0
11
61700.0
21
24495.0
0
ARC
8
BLACK
10
61700.0
20
24420.0
40
75.0
50
270.0
51
450.0
0
ARC
8
BLACK
10
-8450.0
20
24420.0
40
75.0
50
90.0
51
270.0
0
LINE
8
BLACK
10
-8500.0
20
77695.0
11
-7700.0
21
77695.0
0
LINE
8
BLACK
10
-8500.0
20
77845.0
11
-7700.0
21
77845.0
0
ARC
8
BLACK
10
-7700.0
20
77770.0
40
75.0
50
270.0
51
450.0
0
ARC
8
BLACK
10
-8500.0
20
77770.0
40
75.0
50
90.0
51
270.0
0
LINE
8
BLACK
10
-8425.0
20
26120.0
11
-8425.0
21
77770.0
0
LINE
8
BLACK
10
-8575.0
20
26120.0
11
-8575.0
21
77770.0
0
ARC
8
BLACK
10
-8500.0
20
77770.0
40
75.0
50
360.0
51
540.0
0
ARC
8
BLACK
10
-8500.0
20
26120.0
40
75.0
50
180.0
51
360.0
0
LINE
8
BLACK
10
61650.0
20
34995.0
11
61700.0
21
34995.0
0
LINE
8
BLACK
10
61650.0
20
35145.0
11
61700.0
21
35145.0
0
ARC
8
BLACK
10
61700.0
20
35070.0
40
75.0
50
270.0
51
450.0
0
ARC
8
BLACK
10
61650.0
20
35070.0
40
75.0
50
90.0
51
270.0
0
LINE
8
BLACK
10
61725.0
20
26170.0
11
61725.0
21
35070.0
0
LINE
8
BLACK
10
61575.0
20
26170.0
11
61575.0
21
35070.0
0
ARC
8
BLACK
10
61650.0
20
35070.0
40
75.0
50
360.0
51
540.0
0
ARC
8
BLACK
10
61650.0
20
26170.0
40
75.0
50
180.0
51
360.0
0
LINE
8
BLACK
10
61725.0
20
26120.0
11
61725.0
21
26170.0
0
LINE
8
BLACK
10
61575.0
20
26120.0
11
61575.0
21
26170.0
0
ARC
8
BLACK
10
61650.0
20
26170.0
40
75.0
50
360.0
51
540.0
0
ARC
8
BLACK
10
61650.0
20
26120.0
40
75.0
50
180.0
51
360.0
0
LINE
8
BLACK
10
34150.0
20
26045.0
11
61650.0
21
26045.0
0
LINE
8
BLACK
10
34150.0
20
26195.0
11
61650.0
21
26195.0
0
ARC
8
BLACK
10
61650.0
20
26120.0
40
75.0
50
270.0
51
450.0
0
ARC
8
BLACK
10
34150.0
20
26120.0
40
75.0
50
90.0
51
270.0
0
LINE
8
BLACK
10
24148.0
20
81336.0
11
23805.0
21
81336.0
0
LINE
8
BLACK
10
23977.0
20
81336.0
11
23977.0
21
82136.0
0
LINE
8
BLACK
10
23977.0
20
82136.0
11
23920.0
21
82022.0
0
LINE
8
BLACK
10
23920.0
20
82022.0
11
23862.0
21
81946.0
0
LINE
8
BLACK
10
23862.0
20
81946.0
11
23805.0
21
81908.0
0
LINE
8
BLACK
10
24348.0
20
82136.0
11
24748.0
21
82136.0
0
LINE
8
BLACK
10
24748.0
20
82136.0
11
24491.0
21
81336.0
0
LINE
8
BLACK
10
25062.0
20
81793.0
11
25004.0
21
81831.0
0
LINE
8
BLACK
10
25004.0
20
81831.0
11
24976.0
21
81870.0
0
LINE
8
BLACK
10
24976.0
20
81870.0
11
24947.0
21
81946.0
0
LINE
8
BLACK
10
24947.0
20
81946.0
11
24947.0
21
81984.0
0
LINE
8
BLACK
10
24947.0
20
81984.0
11
24976.0
21
82060.0
0
LINE
8
BLACK
10
24976.0
20
82060.0
11
25004.0
21
82098.0
0
LINE
8
BLACK
10
25004.0
20
82098.0
11
25062.0
21
82136.0
0
LINE
8
BLACK
10
25062.0
20
82136.0
11
25176.0
21
82136.0
0
LINE
8
BLACK
10
25176.0
20
82136.0
11
25233.0
21
82098.0
0
LINE
8
BLACK
10
25233.0
20
82098.0
11
25262.0
21
82060.0
0
LINE
8
BLACK
10
25262.0
20
82060.0
11
25290.0
21
81984.0
0
LINE
8
BLACK
10
25290.0
20
81984.0
11
25290.0
21
81946.0
0
LINE
8
BLACK
10
25290.0
20
81946.0
11
25262.0
21
81870.0
0
LINE
8
BLACK
10
25262.0
20
81870.0
11
25233.0
21
81831.0
0
LINE
8
BLACK
10
25233.0
20
81831.0
11
25176.0
21
81793.0
0
LINE
8
BLACK
10
25176.0
20
81793.0
11
25062.0
21
81793.0
0
LINE
8
BLACK
10
25062.0
20
81793.0
11
25004.0
21
81755.0
0
LINE
8
BLACK
10
25004.0
20
81755.0
11
24976.0
21
81717.0
0
LINE
8
BLACK
10
24976.0
20
81717.0
11
24947.0
21
81641.0
0
LINE
8
BLACK
10
24947.0
20
81641.0
11
24947.0
21
81489.0
0
LINE
8
BLACK
10
24947.0
20
81489.0
11
24976.0
21
81412.0
0
LINE
8
BLACK
10
24976.0
20
81412.0
11
25004.0
21
81374.0
0
LINE
8
BLACK
10
25004.0
20
81374.0
11
25062.0
21
81336.0
0
LINE
8
BLACK
10
25062.0
20
81336.0
11
25176.0
21
81336.0
0
LINE
8
BLACK
10
25176.0
20
81336.0
11
25233.0
21
81374.0
0
LINE
8
BLACK
10
25233.0
20
81374.0
11
25262.0
21
81412.0
0
LINE
8
BLACK
10
25262.0
20
81412.0
11
25290.0
21
81489.0
0
LINE
8
BLACK
10
25290.0
20
81489.0
11
25290.0
21
81641.0
0
LINE
8
BLACK
10
25290.0
20
81641.0
11
25262.0
21
81717.0
0
LINE
8
BLACK
10
25262.0
20
81717.0
11
25233.0
21
81755.0
0
LINE
8
BLACK
10
25233.0
20
81755.0
11
25176.0
21
81793.0
0
LINE
8
BLACK
10
25547.0
20
81412.0
11
25575.0
21
81374.0
0
LINE
8
BLACK
10
25575.0
20
81374.0
11
25547.0
21
81336.0
0
LINE
8
BLACK
10
25547.0
20
81336.0
11
25518.0
21
81374.0
0
LINE
8
BLACK
10
25518.0
20
81374.0
11
25547.0
21
81412.0
0
LINE
8
BLACK
10
25547.0
20
81412.0
11
25547.0
21
81336.0
0
LINE
8
BLACK
10
26147.0
20
81336.0
11
25804.0
21
81336.0
0
LINE
8
BLACK
10
25976.0
20
81336.0
11
25976.0
21
82136.0
0
LINE
8
BLACK
10
25976.0
20
82136.0
11
25919.0
21
82022.0
0
LINE
8
BLACK
10
25919.0
20
82022.0
11
25861.0
21
81946.0
0
LINE
8
BLACK
10
25861.0
20
81946.0
11
25804.0
21
81908.0
0
LINE
8
BLACK
10
26490.0
20
81793.0
11
26432.0
21
81831.0
0
LINE
8
BLACK
10
26432.0
20
81831.0
11
26404.0
21
81870.0
0
LINE
8
BLACK
10
26404.0
20
81870.0
11
26375.0
21
81946.0
0
LINE
8
BLACK
10
26375.0
20
81946.0
11
26375.0
21
81984.0
0
LINE
8
BLACK
10
26375.0
20
81984.0
11
26404.0
21
82060.0
0
LINE
8
BLACK
10
26404.0
20
82060.0
11
26432.0
21
82098.0
0
LINE
8
BLACK
10
26432.0
20
82098.0
11
26490.0
21
82136.0
0
LINE
8
BLACK
10
26490.0
20
82136.0
11
26604.0
21
82136.0
0
LINE
8
BLACK
10
26604.0
20
82136.0
11
26661.0
21
82098.0
0
LINE
8
BLACK
10
26661.0
20
82098.0
11
26690.0
21
82060.0
0
LINE
8
BLACK
10
26690.0
20
82060.0
11
26718.0
21
81984.0
0
LINE
8
BLACK
10
26718.0
20
81984.0
11
26718.0
21
81946.0
0
LINE
8
BLACK
10
26718.0
20
81946.0
11
26690.0
21
81870.0
0
LINE
8
BLACK
10
26690.0
20
81870.0
11
26661.0
21
81831.0
0
LINE
8
BLACK
10
26661.0
20
81831.0
11
26604.0
21
81793.0
0
LINE
8
BLACK
10
26604.0
20
81793.0
11
26490.0
21
81793.0
0
LINE
8
BLACK
10
26490.0
20
81793.0
11
26432.0
21
81755.0
0
LINE
8
BLACK
10
26432.0
20
81755.0
11
26404.0
21
81717.0
0
LINE
8
BLACK
10
26404.0
20
81717.0
11
26375.0
21
81641.0
0
LINE
8
BLACK
10
26375.0
20
81641.0
11
26375.0
21
81489.0
0
LINE
8
BLACK
10
26375.0
20
81489.0
11
26404.0
21
81412.0
0
LINE
8
BLACK
10
26404.0
20
81412.0
11
26432.0
21
81374.0
0
LINE
8
BLACK
10
26432.0
20
81374.0
11
26490.0
21
81336.0
0
LINE
8
BLACK
10
26490.0
20
81336.0
11
26604.0
21
81336.0
0
LINE
8
BLACK
10
26604.0
20
81336.0
11
26661.0
21
81374.0
0
LINE
8
BLACK
10
26661.0
20
81374.0
11
26690.0
21
81412.0
0
LINE
8
BLACK
10
26690.0
20
81412.0
11
26718.0
21
81489.0
0
LINE
8
BLACK
10
26718.0
20
81489.0
11
26718.0
21
81641.0
0
LINE
8
BLACK
10
26718.0
20
81641.0
11
26690.0
21
81717.0
0
LINE
8
BLACK
10
26690.0
20
81717.0
11
26661.0
21
81755.0
0
LINE
8
BLACK
10
26661.0
20
81755.0
11
26604.0
21
81793.0
0
LINE
8
BLACK
10
27289.0
20
81336.0
11
26946.0
21
81336.0
0
LINE
8
BLACK
10
27118.0
20
81336.0
11
27118.0
21
82136.0
0
LINE
8
BLACK
10
27118.0
20
82136.0
11
27061.0
21
82022.0
0
LINE
8
BLACK
10
27061.0
20
82022.0
11
27003.0
21
81946.0
0
LINE
8
BLACK
10
27003.0
20
81946.0
11
26946.0
21
81908.0
0
LINE
8
BLACK
10
28003.0
20
81336.0
11
28003.0
21
81870.0
0
LINE
8
BLACK
10
28003.0
20
81793.0
11
28031.0
21
81831.0
0
LINE
8
BLACK
10
28031.0
20
81831.0
11
28089.0
21
81870.0
0
LINE
8
BLACK
10
28089.0
20
81870.0
11
28174.0
21
81870.0
0
LINE
8
BLACK
10
28174.0
20
81870.0
11
28231.0
21
81831.0
0
LINE
8
BLACK
10
28231.0
20
81831.0
11
28260.0
21
81755.0
0
LINE
8
BLACK
10
28260.0
20
81755.0
11
28260.0
21
81336.0
0
LINE
8
BLACK
10
28260.0
20
81755.0
11
28289.0
21
81831.0
0
LINE
8
BLACK
10
28289.0
20
81831.0
11
28346.0
21
81870.0
0
LINE
8
BLACK
10
28346.0
20
81870.0
11
28431.0
21
81870.0
0
LINE
8
BLACK
10
28431.0
20
81870.0
11
28489.0
21
81831.0
0
LINE
8
BLACK
10
28489.0
20
81831.0
11
28517.0
21
81755.0
0
LINE
8
BLACK
10
28517.0
20
81755.0
11
28517.0
21
81336.0
0
LINE
8
BLACK
10
28803.0
20
81336.0
11
28803.0
21
81870.0
0
LINE
8
BLACK
10
28803.0
20
81793.0
11
28831.0
21
81831.0
0
LINE
8
BLACK
10
28831.0
20
81831.0
11
28889.0
21
81870.0
0
LINE
8
BLACK
10
28889.0
20
81870.0
11
28974.0
21
81870.0
0
LINE
8
BLACK
10
28974.0
20
81870.0
11
29031.0
21
81831.0
0
LINE
8
BLACK
10
29031.0
20
81831.0
11
29060.0
21
81755.0
0
LINE
8
BLACK
10
29060.0
20
81755.0
11
29060.0
21
81336.0
0
LINE
8
BLACK
10
29060.0
20
81755.0
11
29089.0
21
81831.0
0
LINE
8
BLACK
10
29089.0
20
81831.0
11
29146.0
21
81870.0
0
LINE
8
BLACK
10
29146.0
20
81870.0
11
29231.0
21
81870.0
0
LINE
8
BLACK
10
29231.0
20
81870.0
11
29289.0
21
81831.0
0
LINE
8
BLACK
10
29289.0
20
81831.0
11
29317.0
21
81755.0
0
LINE
8
BLACK
10
29317.0
20
81755.0
11
29317.0
21
81336.0
0
LINE
8
BLACK
10
-8500.0
20
80960.0
11
61650.0
21
80960.0
0
LINE
8
BLACK
10
-8500.0
20
81080.0
11
61650.0
21
81080.0
0
ARC
8
BLACK
10
61650.0
20
81020.0
40
60.0
50
270.0
51
450.0
0
ARC
8
BLACK
10
-8500.0
20
81020.0
40
60.0
50
90.0
51
270.0
0
LINE
8
BLACK
10
61710.0
20
77720.0
11
61710.0
21
82300.0
0
LINE
8
BLACK
10
61590.0
20
77720.0
11
61590.0
21
82300.0
0
ARC
8
BLACK
10
61650.0
20
82300.0
40
60.0
50
360.0
51
540.0
0
ARC
8
BLACK
10
61650.0
20
77720.0
40
60.0
50
180.0
51
360.0
0
LINE
8
BLACK
10
-8440.0
20
77720.0
11
-8440.0
21
82300.0
0
LINE
8
BLACK
10
-8560.0
20
77720.0
11
-8560.0
21
82300.0
0
ARC
8
BLACK
10
-8500.0
20
82300.0
40
60.0
50
360.0
51
540.0
0
ARC
8
BLACK
10
-8500.0
20
77720.0
40
60.0
50
180.0
51
360.0
0
LINE
8
BLACK
10
-8471.0
20
80967.0
11
-8029.0
21
81196.0
0
LINE
8
BLACK
10
-8527.0
20
81074.0
11
-8085.0
21
81303.0
0
ARC
8
BLACK
10
-8057.0
20
81250.0
40
60.0
50
297.0
51
477.0
0
ARC
8
BLACK
10
-8499.0
20
81020.0
40
60.0
50
117.0
51
297.0
0
LINE
8
BLACK
10
-8527.0
20
80966.0
11
-8085.0
21
80737.0
0
LINE
8
BLACK
10
-8471.0
20
81073.0
11
-8029.0
21
80844.0
0
ARC
8
BLACK
10
-8057.0
20
80790.0
40
60.0
50
242.0
51
422.0
0
ARC
8
BLACK
10
-8499.0
20
81020.0
40
60.0
50
62.0
51
242.0
0
LINE
8
BLACK
10
61677.0
20
81073.0
11
61235.0
21
81303.0
0
LINE
8
BLACK
10
61621.0
20
80967.0
11
61179.0
21
81197.0
0
ARC
8
BLACK
10
61207.0
20
81250.0
40
60.0
50
422.0
51
602.0
0
ARC
8
BLACK
10
61649.0
20
81020.0
40
60.0
50
242.0
51
422.0
0
LINE
8
BLACK
10
61621.0
20
81073.0
11
61179.0
21
80843.0
0
LINE
8
BLACK
10
61677.0
20
80967.0
11
61235.0
21
80737.0
0
ARC
8
BLACK
10
61207.0
20
80790.0
40
60.0
50
117.0
51
297.0
0
ARC
8
BLACK
10
61649.0
20
81020.0
40
60.0
50
-62.0
51
117.0
0
LINE
8
BLACK
10
-8500.0
20
77695.0
11
-7850.0
21
77695.0
0
LINE
8
BLACK
10
-8500.0
20
77845.0
11
-7850.0
21
77845.0
0
ARC
8
BLACK
10
-7850.0
20
77770.0
40
75.0
50
270.0
51
450.0
0
ARC
8
BLACK
10
-8500.0
20
77770.0
40
75.0
50
90.0
51
270.0
0
LINE
8
BLACK
10
61725.0
20
77020.0
11
61725.0
21
77620.0
0
LINE
8
BLACK
10
61575.0
20
77020.0
11
61575.0
21
77620.0
0
ARC
8
BLACK
10
61650.0
20
77620.0
40
75.0
50
360.0
51
540.0
0
ARC
8
BLACK
10
61650.0
20
77020.0
40
75.0
50
180.0
51
360.0
0
LINE
8
BLACK
10
61725.0
20
77620.0
11
61725.0
21
77770.0
0
LINE
8
BLACK
10
61575.0
20
77620.0
11
61575.0
21
77770.0
0
ARC
8
BLACK
10
61650.0
20
77770.0
40
75.0
50
360.0
51
540.0
0
ARC
8
BLACK
10
61650.0
20
77620.0
40
75.0
50
180.0
51
360.0
0
LINE
8
BLACK
10
-7900.0
20
77695.0
11
61650.0
21
77695.0
0
LINE
8
BLACK
10
-7900.0
20
77845.0
11
61650.0
21
77845.0
0
ARC
8
BLACK
10
61650.0
20
77770.0
40
75.0
50
270.0
51
450.0
0
ARC
8
BLACK
10
-7900.0
20
77770.0
40
75.0
50
90.0
51
270.0
0
LINE
8
BLACK
10
61725.0
20
75620.0
11
61725.0
21
77120.0
0
LINE
8
BLACK
10
61575.0
20
75620.0
11
61575.0
21
77120.0
0
ARC
8
BLACK
10
61650.0
20
77120.0
40
75.0
50
360.0
51
540.0
0
ARC
8
BLACK
10
61650.0
20
75620.0
40
75.0
50
180.0
51
360.0
0
LINE
8
BLACK
10
61725.0
20
34920.0
11
61725.0
21
75920.0
0
LINE
8
BLACK
10
61575.0
20
34920.0
11
61575.0
21
75920.0
0
ARC
8
BLACK
10
61650.0
20
75920.0
40
75.0
50
360.0
51
540.0
0
ARC
8
BLACK
10
61650.0
20
34920.0
40
75.0
50
180.0
51
360.0
0
LINE
8
BLACK
10
60550.0
20
80545.0
11
60750.0
21
80545.0
0
LINE
8
BLACK
10
60550.0
20
80695.0
11
60750.0
21
80695.0
0
ARC
8
BLACK
10
60750.0
20
80620.0
40
75.0
50
270.0
51
450.0
0
ARC
8
BLACK
10
60550.0
20
80620.0
40
75.0
50
90.0
51
270.0
0
CIRCLE
8
BLACK
10
51050.0
20
60870.0
40
1250
0
LINE
8
BLACK
10
48550.0
20
60795.0
11
53550.0
21
60795.0
0
LINE
8
BLACK
10
48550.0
20
60945.0
11
53550.0
21
60945.0
0
ARC
8
BLACK
10
53550.0
20
60870.0
40
75.0
50
270.0
51
450.0
0
ARC
8
BLACK
10
48550.0
20
60870.0
40
75.0
50
90.0
51
270.0
0
LINE
8
BLACK
10
51125.0
20
58370.0
11
51125.0
21
63370.0
0
LINE
8
BLACK
10
50975.0
20
58370.0
11
50975.0
21
63370.0
0
ARC
8
BLACK
10
51050.0
20
63370.0
40
75.0
50
360.0
51
540.0
0
ARC
8
BLACK
10
51050.0
20
58370.0
40
75.0
50
180.0
51
360.0
0
LINE
8
BLACK
10
49870.0
20
54706.0
11
49927.0
21
54706.0
0
LINE
8
BLACK
10
49927.0
20
54706.0
11
49984.0
21
54668.0
0
LINE
8
BLACK
10
49984.0
20
54668.0
11
50013.0
21
54630.0
0
LINE
8
BLACK
10
50013.0
20
54630.0
11
50042.0
21
54554.0
0
LINE
8
BLACK
10
50042.0
20
54554.0
11
50070.0
21
54401.0
0
LINE
8
BLACK
10
50070.0
20
54401.0
11
50070.0
21
54211.0
0
LINE
8
BLACK
10
50070.0
20
54211.0
11
50042.0
21
54059.0
0
LINE
8
BLACK
10
50042.0
20
54059.0
11
50013.0
21
53982.0
0
LINE
8
BLACK
10
50013.0
20
53982.0
11
49984.0
21
53944.0
0
LINE
8
BLACK
10
49984.0
20
53944.0
11
49927.0
21
53906.0
0
LINE
8
BLACK
10
49927.0
20
53906.0
11
49870.0
21
53906.0
0
LINE
8
BLACK
10
49870.0
20
53906.0
11
49813.0
21
53944.0
0
LINE
8
BLACK
10
49813.0
20
53944.0
11
49784.0
21
53982.0
0
LINE
8
BLACK
10
49784.0
20
53982.0
11
49756.0
21
54059.0
0
LINE
8
BLACK
10
49756.0
20
54059.0
11
49727.0
21
54211.0
0
LINE
8
BLACK
10
49727.0
20
54211.0
11
49727.0
21
54401.0
0
LINE
8
BLACK
10
49727.0
20
54401.0
11
49756.0
21
54554.0
0
LINE
8
BLACK
10
49756.0
20
54554.0
11
49784.0
21
54630.0
0
LINE
8
BLACK
10
49784.0
20
54630.0
11
49813.0
21
54668.0
0
LINE
8
BLACK
10
49813.0
20
54668.0
11
49870.0
21
54706.0
0
LINE
8
BLACK
10
50327.0
20
53982.0
11
50355.0
21
53944.0
0
LINE
8
BLACK
10
50355.0
20
53944.0
11
50327.0
21
53906.0
0
LINE
8
BLACK
10
50327.0
20
53906.0
11
50298.0
21
53944.0
0
LINE
8
BLACK
10
50298.0
20
53944.0
11
50327.0
21
53982.0
0
LINE
8
BLACK
10
50327.0
20
53982.0
11
50327.0
21
53906.0
0
LINE
8
BLACK
10
50727.0
20
54706.0
11
50784.0
21
54706.0
0
LINE
8
BLACK
10
50784.0
20
54706.0
11
50841.0
21
54668.0
0
LINE
8
BLACK
10
50841.0
20
54668.0
11
50870.0
21
54630.0
0
LINE
8
BLACK
10
50870.0
20
54630.0
11
50899.0
21
54554.0
0
LINE
8
BLACK
10
50899.0
20
54554.0
11
50927.0
21
54401.0
0
LINE
8
BLACK
10
50927.0
20
54401.0
11
50927.0
21
54211.0
0
LINE
8
BLACK
10
50927.0
20
54211.0
11
50899.0
21
54059.0
0
LINE
8
BLACK
10
50899.0
20
54059.0
11
50870.0
21
53982.0
0
LINE
8
BLACK
10
50870.0
20
53982.0
11
50841.0
21
53944.0
0
LINE
8
BLACK
10
50841.0
20
53944.0
11
50784.0
21
53906.0
0
LINE
8
BLACK
10
50784.0
20
53906.0
11
50727.0
21
53906.0
0
LINE
8
BLACK
10
50727.0
20
53906.0
11
50670.0
21
53944.0
0
LINE
8
BLACK
10
50670.0
20
53944.0
11
50641.0
21
53982.0
0
LINE
8
BLACK
10
50641.0
20
53982.0
11
50613.0
21
54059.0
0
LINE
8
BLACK
10
50613.0
20
54059.0
11
50584.0
21
54211.0
0
LINE
8
BLACK
10
50584.0
20
54211.0
11
50584.0
21
54401.0
0
LINE
8
BLACK
10
50584.0
20
54401.0
11
50613.0
21
54554.0
0
LINE
8
BLACK
10
50613.0
20
54554.0
11
50641.0
21
54630.0
0
LINE
8
BLACK
10
50641.0
20
54630.0
11
50670.0
21
54668.0
0
LINE
8
BLACK
10
50670.0
20
54668.0
11
50727.0
21
54706.0
0
LINE
8
BLACK
10
51298.0
20
54706.0
11
51355.0
21
54706.0
0
LINE
8
BLACK
10
51355.0
20
54706.0
11
51412.0
21
54668.0
0
LINE
8
BLACK
10
51412.0
20
54668.0
11
51441.0
21
54630.0
0
LINE
8
BLACK
10
51441.0
20
54630.0
11
51470.0
21
54554.0
0
LINE
8
BLACK
10
51470.0
20
54554.0
11
51498.0
21
54401.0
0
LINE
8
BLACK
10
51498.0
20
54401.0
11
51498.0
21
54211.0
0
LINE
8
BLACK
10
51498.0
20
54211.0
11
51470.0
21
54059.0
0
LINE
8
BLACK
10
51470.0
20
54059.0
11
51441.0
21
53982.0
0
LINE
8
BLACK
10
51441.0
20
53982.0
11
51412.0
21
53944.0
0
LINE
8
BLACK
10
51412.0
20
53944.0
11
51355.0
21
53906.0
0
LINE
8
BLACK
10
51355.0
20
53906.0
11
51298.0
21
53906.0
0
LINE
8
BLACK
10
51298.0
20
53906.0
11
51241.0
21
53944.0
0
LINE
8
BLACK
10
51241.0
20
53944.0
11
51212.0
21
53982.0
0
LINE
8
BLACK
10
51212.0
20
53982.0
11
51184.0
21
54059.0
0
LINE
8
BLACK
10
51184.0
20
54059.0
11
51155.0
21
54211.0
0
LINE
8
BLACK
10
51155.0
20
54211.0
11
51155.0
21
54401.0
0
LINE
8
BLACK
10
51155.0
20
54401.0
11
51184.0
21
54554.0
0
LINE
8
BLACK
10
51184.0
20
54554.0
11
51212.0
21
54630.0
0
LINE
8
BLACK
10
51212.0
20
54630.0
11
51241.0
21
54668.0
0
LINE
8
BLACK
10
51241.0
20
54668.0
11
51298.0
21
54706.0
0
LINE
8
BLACK
10
51869.0
20
54706.0
11
51926.0
21
54706.0
0
LINE
8
BLACK
10
51926.0
20
54706.0
11
51983.0
21
54668.0
0
LINE
8
BLACK
10
51983.0
20
54668.0
11
52012.0
21
54630.0
0
LINE
8
BLACK
10
52012.0
20
54630.0
11
52041.0
21
54554.0
0
LINE
8
BLACK
10
52041.0
20
54554.0
11
52069.0
21
54401.0
0
LINE
8
BLACK
10
52069.0
20
54401.0
11
52069.0
21
54211.0
0
LINE
8
BLACK
10
52069.0
20
54211.0
11
52041.0
21
54059.0
0
LINE
8
BLACK
10
52041.0
20
54059.0
11
52012.0
21
53982.0
0
LINE
8
BLACK
10
52012.0
20
53982.0
11
51983.0
21
53944.0
0
LINE
8
BLACK
10
51983.0
20
53944.0
11
51926.0
21
53906.0
0
LINE
8
BLACK
10
51926.0
20
53906.0
11
51869.0
21
53906.0
0
LINE
8
BLACK
10
51869.0
20
53906.0
11
51812.0
21
53944.0
0
LINE
8
BLACK
10
51812.0
20
53944.0
11
51783.0
21
53982.0
0
LINE
8
BLACK
10
51783.0
20
53982.0
11
51755.0
21
54059.0
0
LINE
8
BLACK
10
51755.0
20
54059.0
11
51726.0
21
54211.0
0
LINE
8
BLACK
10
51726.0
20
54211.0
11
51726.0
21
54401.0
0
LINE
8
BLACK
10
51726.0
20
54401.0
11
51755.0
21
54554.0
0
LINE
8
BLACK
10
51755.0
20
54554.0
11
51783.0
21
54630.0
0
LINE
8
BLACK
10
51783.0
20
54630.0
11
51812.0
21
54668.0
0
LINE
8
BLACK
10
51812.0
20
54668.0
11
51869.0
21
54706.0
0
LINE
8
BLACK
10
52440.0
20
54706.0
11
52497.0
21
54706.0
0
LINE
8
BLACK
10
52497.0
20
54706.0
11
52554.0
21
54668.0
0
LINE
8
BLACK
10
52554.0
20
54668.0
11
52583.0
21
54630.0
0
LINE
8
BLACK
10
52583.0
20
54630.0
11
52612.0
21
54554.0
0
LINE
8
BLACK
10
52612.0
20
54554.0
11
52640.0
21
54401.0
0
LINE
8
BLACK
10
52640.0
20
54401.0
11
52640.0
21
54211.0
0
LINE
8
BLACK
10
52640.0
20
54211.0
11
52612.0
21
54059.0
0
LINE
8
BLACK
10
52612.0
20
54059.0
11
52583.0
21
53982.0
0
LINE
8
BLACK
10
52583.0
20
53982.0
11
52554.0
21
53944.0
0
LINE
8
BLACK
10
52554.0
20
53944.0
11
52497.0
21
53906.0
0
LINE
8
BLACK
10
52497.0
20
53906.0
11
52440.0
21
53906.0
0
LINE
8
BLACK
10
52440.0
20
53906.0
11
52383.0
21
53944.0
0
LINE
8
BLACK
10
52383.0
20
53944.0
11
52354.0
21
53982.0
0
LINE
8
BLACK
10
52354.0
20
53982.0
11
52326.0
21
54059.0
0
LINE
8
BLACK
10
52326.0
20
54059.0
11
52297.0
21
54211.0
0
LINE
8
BLACK
10
52297.0
20
54211.0
11
52297.0
21
54401.0
0
LINE
8
BLACK
10
52297.0
20
54401.0
11
52326.0
21
54554.0
0
LINE
8
BLACK
10
52326.0
20
54554.0
11
52354.0
21
54630.0
0
LINE
8
BLACK
10
52354.0
20
54630.0
11
52383.0
21
54668.0
0
LINE
8
BLACK
10
52383.0
20
54668.0
11
52440.0
21
54706.0
0
LINE
8
BLACK
10
53325.0
20
54706.0
11
53325.0
21
54554.0
0
LINE
8
BLACK
10
53554.0
20
54706.0
11
53554.0
21
54554.0
0
ARC
8
BLACK
10
51000.0
20
54870.0
40
60.0
50
180.0
51
360.0
0
ARC
8
BLACK
10
51000.0
20
54870.0
40
60.0
50
0.0
51
180.0
0
LINE
8
BLACK
10
50958.0
20
54828.0
11
52238.0
21
53548.0
0
LINE
8
BLACK
10
51042.0
20
54912.0
11
52322.0
21
53632.0
0
ARC
8
BLACK
10
52280.0
20
53590.0
40
60.0
50
225.0
51
405.0
0
ARC
8
BLACK
10
51000.0
20
54870.0
40
60.0
50
45.0
51
225.0
0
LINE
8
BLACK
10
50958.0
20
54828.0
11
52238.0
21
53548.0
0
LINE
8
BLACK
10
51042.0
20
54912.0
11
52322.0
21
53632.0
0
ARC
8
BLACK
10
52280.0
20
53590.0
40
60.0
50
225.0
51
405.0
0
ARC
8
BLACK
10
51000.0
20
54870.0
40
60.0
50
45.0
51
225.0
0
ARC
8
BLACK
10
51000.0
20
54870.0
40
60.0
50
180.0
51
360.0
0
ARC
8
BLACK
10
51000.0
20
54870.0
40
60.0
50
0.0
51
180.0
0
ARC
8
BLACK
10
51000.0
20
54870.0
40
60.0
50
180.0
51
360.0
0
ARC
8
BLACK
10
51000.0
20
54870.0
40
60.0
50
0.0
51
180.0
0
ARC
8
BLACK
10
51000.0
20
54870.0
40
60.0
50
180.0
51
360.0
0
ARC
8
BLACK
10
51000.0
20
54870.0
40
60.0
50
0.0
51
180.0
0
ARC
8
BLACK
10
51000.0
20
54870.0
40
60.0
50
180.0
51
360.0
0
ARC
8
BLACK
10
51000.0
20
54870.0
40
60.0
50
0.0
51
180.0
0
LINE
8
BLACK
10
16014.0
20
57480.0
11
16243.0
21
57480.0
0
LINE
8
BLACK
10
16100.0
20
56946.0
11
16100.0
21
57632.0
0
LINE
8
BLACK
10
16100.0
20
57632.0
11
16128.0
21
57708.0
0
LINE
8
BLACK
10
16128.0
20
57708.0
11
16186.0
21
57746.0
0
LINE
8
BLACK
10
16186.0
20
57746.0
11
16243.0
21
57746.0
0
LINE
8
BLACK
10
16700.0
20
56946.0
11
16700.0
21
57365.0
0
LINE
8
BLACK
10
16700.0
20
57365.0
11
16671.0
21
57441.0
0
LINE
8
BLACK
10
16671.0
20
57441.0
11
16614.0
21
57480.0
0
LINE
8
BLACK
10
16614.0
20
57480.0
11
16500.0
21
57480.0
0
LINE
8
BLACK
10
16500.0
20
57480.0
11
16443.0
21
57441.0
0
LINE
8
BLACK
10
16700.0
20
56984.0
11
16643.0
21
56946.0
0
LINE
8
BLACK
10
16643.0
20
56946.0
11
16500.0
21
56946.0
0
LINE
8
BLACK
10
16500.0
20
56946.0
11
16443.0
21
56984.0
0
LINE
8
BLACK
10
16443.0
20
56984.0
11
16414.0
21
57060.0
0
LINE
8
BLACK
10
16414.0
20
57060.0
11
16414.0
21
57137.0
0
LINE
8
BLACK
10
16414.0
20
57137.0
11
16443.0
21
57213.0
0
LINE
8
BLACK
10
16443.0
20
57213.0
11
16500.0
21
57251.0
0
LINE
8
BLACK
10
16500.0
20
57251.0
11
16643.0
21
57251.0
0
LINE
8
BLACK
10
16643.0
20
57251.0
11
16700.0
21
57289.0
0
LINE
8
BLACK
10
17072.0
20
56946.0
11
17014.0
21
56984.0
0
LINE
8
BLACK
10
17014.0
20
56984.0
11
16986.0
21
57060.0
0
LINE
8
BLACK
10
16986.0
20
57060.0
11
16986.0
21
57746.0
0
LINE
8
BLACK
10
17214.0
20
57480.0
11
17443.0
21
57480.0
0
LINE
8
BLACK
10
17300.0
20
57746.0
11
17300.0
21
57060.0
0
LINE
8
BLACK
10
17300.0
20
57060.0
11
17328.0
21
56984.0
0
LINE
8
BLACK
10
17328.0
20
56984.0
11
17386.0
21
56946.0
0
LINE
8
BLACK
10
17386.0
20
56946.0
11
17443.0
21
56946.0
0
LINE
8
BLACK
10
17900.0
20
56946.0
11
17900.0
21
57365.0
0
LINE
8
BLACK
10
17900.0
20
57365.0
11
17871.0
21
57441.0
0
LINE
8
BLACK
10
17871.0
20
57441.0
11
17814.0
21
57480.0
0
LINE
8
BLACK
10
17814.0
20
57480.0
11
17700.0
21
57480.0
0
LINE
8
BLACK
10
17700.0
20
57480.0
11
17643.0
21
57441.0
0
LINE
8
BLACK
10
17900.0
20
56984.0
11
17843.0
21
56946.0
0
LINE
8
BLACK
10
17843.0
20
56946.0
11
17700.0
21
56946.0
0
LINE
8
BLACK
10
17700.0
20
56946.0
11
17643.0
21
56984.0
0
LINE
8
BLACK
10
17643.0
20
56984.0
11
17614.0
21
57060.0
0
LINE
8
BLACK
10
17614.0
20
57060.0
11
17614.0
21
57137.0
0
LINE
8
BLACK
10
17614.0
20
57137.0
11
17643.0
21
57213.0
0
LINE
8
BLACK
10
17643.0
20
57213.0
11
17700.0
21
57251.0
0
LINE
8
BLACK
10
17700.0
20
57251.0
11
17843.0
21
57251.0
0
LINE
8
BLACK
10
17843.0
20
57251.0
11
17900.0
21
57289.0
0
LINE
8
BLACK
10
46673.0
20
47885.0
11
47044.0
21
47885.0
0
LINE
8
BLACK
10
47044.0
20
47885.0
11
46844.0
21
47580.0
0
LINE
8
BLACK
10
46844.0
20
47580.0
11
46930.0
21
47580.0
0
LINE
8
BLACK
10
46930.0
20
47580.0
11
46987.0
21
47542.0
0
LINE
8
BLACK
10
46987.0
20
47542.0
11
47016.0
21
47504.0
0
LINE
8
BLACK
10
47016.0
20
47504.0
11
47044.0
21
47428.0
0
LINE
8
BLACK
10
47044.0
20
47428.0
11
47044.0
21
47238.0
0
LINE
8
BLACK
10
47044.0
20
47238.0
11
47016.0
21
47161.0
0
LINE
8
BLACK
10
47016.0
20
47161.0
11
46987.0
21
47123.0
0
LINE
8
BLACK
10
46987.0
20
47123.0
11
46930.0
21
47085.0
0
LINE
8
BLACK
10
46930.0
20
47085.0
11
46758.0
21
47085.0
0
LINE
8
BLACK
10
46758.0
20
47085.0
11
46701.0
21
47123.0
0
LINE
8
BLACK
10
46701.0
20
47123.0
11
46673.0
21
47161.0
0
LINE
8
BLACK
10
47301.0
20
47161.0
11
47329.0
21
47123.0
0
LINE
8
BLACK
10
47329.0
20
47123.0
11
47301.0
21
47085.0
0
LINE
8
BLACK
10
47301.0
20
47085.0
11
47272.0
21
47123.0
0
LINE
8
BLACK
10
47272.0
20
47123.0
11
47301.0
21
47161.0
0
LINE
8
BLACK
10
47301.0
20
47161.0
11
47301.0
21
47085.0
0
LINE
8
BLACK
10
47701.0
20
47885.0
11
47758.0
21
47885.0
0
LINE
8
BLACK
10
47758.0
20
47885.0
11
47815.0
21
47847.0
0
LINE
8
BLACK
10
47815.0
20
47847.0
11
47844.0
21
47809.0
0
LINE
8
BLACK
10
47844.0
20
47809.0
11
47873.0
21
47733.0
0
LINE
8
BLACK
10
47873.0
20
47733.0
11
47901.0
21
47580.0
0
LINE
8
BLACK
10
47901.0
20
47580.0
11
47901.0
21
47390.0
0
LINE
8
BLACK
10
47901.0
20
47390.0
11
47873.0
21
47238.0
0
LINE
8
BLACK
10
47873.0
20
47238.0
11
47844.0
21
47161.0
0
LINE
8
BLACK
10
47844.0
20
47161.0
11
47815.0
21
47123.0
0
LINE
8
BLACK
10
47815.0
20
47123.0
11
47758.0
21
47085.0
0
LINE
8
BLACK
10
47758.0
20
47085.0
11
47701.0
21
47085.0
0
LINE
8
BLACK
10
47701.0
20
47085.0
11
47644.0
21
47123.0
0
LINE
8
BLACK
10
47644.0
20
47123.0
11
47615.0
21
47161.0
0
LINE
8
BLACK
10
47615.0
20
47161.0
11
47587.0
21
47238.0
0
LINE
8
BLACK
10
47587.0
20
47238.0
11
47558.0
21
47390.0
0
LINE
8
BLACK
10
47558.0
20
47390.0
11
47558.0
21
47580.0
0
LINE
8
BLACK
10
47558.0
20
47580.0
11
47587.0
21
47733.0
0
LINE
8
BLACK
10
47587.0
20
47733.0
11
47615.0
21
47809.0
0
LINE
8
BLACK
10
47615.0
20
47809.0
11
47644.0
21
47847.0
0
LINE
8
BLACK
10
47644.0
20
47847.0
11
47701.0
21
47885.0
0
LINE
8
BLACK
10
48415.0
20
47619.0
11
48415.0
21
47085.0
0
LINE
8
BLACK
10
48272.0
20
47923.0
11
48129.0
21
47352.0
0
LINE
8
BLACK
10
48129.0
20
47352.0
11
48501.0
21
47352.0
0
LINE
8
BLACK
10
48815.0
20
47542.0
11
48757.0
21
47580.0
0
LINE
8
BLACK
10
48757.0
20
47580.0
11
48729.0
21
47619.0
0
LINE
8
BLACK
10
48729.0
20
47619.0
11
48700.0
21
47695.0
0
LINE
8
BLACK
10
48700.0
20
47695.0
11
48700.0
21
47733.0
0
LINE
8
BLACK
10
48700.0
20
47733.0
11
48729.0
21
47809.0
0
LINE
8
BLACK
10
48729.0
20
47809.0
11
48757.0
21
47847.0
0
LINE
8
BLACK
10
48757.0
20
47847.0
11
48815.0
21
47885.0
0
LINE
8
BLACK
10
48815.0
20
47885.0
11
48929.0
21
47885.0
0
LINE
8
BLACK
10
48929.0
20
47885.0
11
48986.0
21
47847.0
0
LINE
8
BLACK
10
48986.0
20
47847.0
11
49015.0
21
47809.0
0
LINE
8
BLACK
10
49015.0
20
47809.0
11
49043.0
21
47733.0
0
LINE
8
BLACK
10
49043.0
20
47733.0
11
49043.0
21
47695.0
0
LINE
8
BLACK
10
49043.0
20
47695.0
11
49015.0
21
47619.0
0
LINE
8
BLACK
10
49015.0
20
47619.0
11
48986.0
21
47580.0
0
LINE
8
BLACK
10
48986.0
20
47580.0
11
48929.0
21
47542.0
0
LINE
8
BLACK
10
48929.0
20
47542.0
11
48815.0
21
47542.0
0
LINE
8
BLACK
10
48815.0
20
47542.0
11
48757.0
21
47504.0
0
LINE
8
BLACK
10
48757.0
20
47504.0
11
48729.0
21
47466.0
0
LINE
8
BLACK
10
48729.0
20
47466.0
11
48700.0
21
47390.0
0
LINE
8
BLACK
10
48700.0
20
47390.0
11
48700.0
21
47238.0
0
LINE
8
BLACK
10
48700.0
20
47238.0
11
48729.0
21
47161.0
0
LINE
8
BLACK
10
48729.0
20
47161.0
11
48757.0
21
47123.0
0
LINE
8
BLACK
10
48757.0
20
47123.0
11
48815.0
21
47085.0
0
LINE
8
BLACK
10
48815.0
20
47085.0
11
48929.0
21
47085.0
0
LINE
8
BLACK
10
48929.0
20
47085.0
11
48986.0
21
47123.0
0
LINE
8
BLACK
10
48986.0
20
47123.0
11
49015.0
21
47161.0
0
LINE
8
BLACK
10
49015.0
20
47161.0
11
49043.0
21
47238.0
0
LINE
8
BLACK
10
49043.0
20
47238.0
11
49043.0
21
47390.0
0
LINE
8
BLACK
10
49043.0
20
47390.0
11
49015.0
21
47466.0
0
LINE
8
BLACK
10
49015.0
20
47466.0
11
48986.0
21
47504.0
0
LINE
8
BLACK
10
48986.0
20
47504.0
11
48929.0
21
47542.0
0
LINE
8
BLACK
10
49757.0
20
47085.0
11
49757.0
21
47619.0
0
LINE
8
BLACK
10
49757.0
20
47542.0
11
49785.0
21
47580.0
0
LINE
8
BLACK
10
49785.0
20
47580.0
11
49843.0
21
47619.0
0
LINE
8
BLACK
10
49843.0
20
47619.0
11
49928.0
21
47619.0
0
LINE
8
BLACK
10
49928.0
20
47619.0
11
49985.0
21
47580.0
0
LINE
8
BLACK
10
49985.0
20
47580.0
11
50014.0
21
47504.0
0
LINE
8
BLACK
10
50014.0
20
47504.0
11
50014.0
21
47085.0
0
LINE
8
BLACK
10
50014.0
20
47504.0
11
50043.0
21
47580.0
0
LINE
8
BLACK
10
50043.0
20
47580.0
11
50100.0
21
47619.0
0
LINE
8
BLACK
10
50100.0
20
47619.0
11
50185.0
21
47619.0
0
LINE
8
BLACK
10
50185.0
20
47619.0
11
50243.0
21
47580.0
0
LINE
8
BLACK
10
50243.0
20
47580.0
11
50271.0
21
47504.0
0
LINE
8
BLACK
10
50271.0
20
47504.0
11
50271.0
21
47085.0
0
LINE
8
BLACK
10
50557.0
20
47085.0
11
50557.0
21
47619.0
0
LINE
8
BLACK
10
50557.0
20
47542.0
11
50585.0
21
47580.0
0
LINE
8
BLACK
10
50585.0
20
47580.0
11
50643.0
21
47619.0
0
LINE
8
BLACK
10
50643.0
20
47619.0
11
50728.0
21
47619.0
0
LINE
8
BLACK
10
50728.0
20
47619.0
11
50785.0
21
47580.0
0
LINE
8
BLACK
10
50785.0
20
47580.0
11
50814.0
21
47504.0
0
LINE
8
BLACK
10
50814.0
20
47504.0
11
50814.0
21
47085.0
0
LINE
8
BLACK
10
50814.0
20
47504.0
11
50843.0
21
47580.0
0
LINE
8
BLACK
10
50843.0
20
47580.0
11
50900.0
21
47619.0
0
LINE
8
BLACK
10
50900.0
20
47619.0
11
50985.0
21
47619.0
0
LINE
8
BLACK
10
50985.0
20
47619.0
11
51043.0
21
47580.0
0
LINE
8
BLACK
10
51043.0
20
47580.0
11
51071.0
21
47504.0
0
LINE
8
BLACK
10
51071.0
20
47504.0
11
51071.0
21
47085.0
0
LINE
8
BLACK
10
48300.0
20
46709.0
11
49500.0
21
46709.0
0
LINE
8
BLACK
10
48300.0
20
46829.0
11
49500.0
21
46829.0
0
ARC
8
BLACK
10
49500.0
20
46769.0
40
60.0
50
270.0
51
450.0
0
ARC
8
BLACK
10
48300.0
20
46769.0
40
60.0
50
90.0
51
270.0
0
LINE
8
BLACK
10
48360.0
20
38421.0
11
48360.0
21
48049.0
0
LINE
8
BLACK
10
48240.0
20
38421.0
11
48240.0
21
48049.0
0
ARC
8
BLACK
10
48300.0
20
48049.0
40
60.0
50
360.0
51
540.0
0
ARC
8
BLACK
10
48300.0
20
38421.0
40
60.0
50
180.0
51
360.0
0
LINE
8
BLACK
10
49560.0
20
38421.0
11
49560.0
21
48049.0
0
LINE
8
BLACK
10
49440.0
20
38421.0
11
49440.0
21
48049.0
0
ARC
8
BLACK
10
49500.0
20
48049.0
40
60.0
50
360.0
51
540.0
0
ARC
8
BLACK
10
49500.0
20
38421.0
40
60.0
50
180.0
51
360.0
0
LINE
8
BLACK
10
49471.0
20
46822.0
11
49029.0
21
46592.0
0
LINE
8
BLACK
10
49527.0
20
46716.0
11
49085.0
21
46486.0
0
ARC
8
BLACK
10
49057.0
20
46539.0
40
60.0
50
117.0
51
297.0
0
ARC
8
BLACK
10
49499.0
20
46769.0
40
60.0
50
-62.0
51
117.0
0
LINE
8
BLACK
10
49527.0
20
46822.0
11
49085.0
21
47052.0
0
LINE
8
BLACK
10
49471.0
20
46716.0
11
49029.0
21
46946.0
0
ARC
8
BLACK
10
49057.0
20
46999.0
40
60.0
50
422.0
51
602.0
0
ARC
8
BLACK
10
49499.0
20
46769.0
40
60.0
50
242.0
51
422.0
0
LINE
8
BLACK
10
48272.0
20
46715.0
11
48714.0
21
46486.0
0
LINE
8
BLACK
10
48328.0
20
46822.0
11
48770.0
21
46593.0
0
ARC
8
BLACK
10
48742.0
20
46539.0
40
60.0
50
242.0
51
422.0
0
ARC
8
BLACK
10
48300.0
20
46769.0
40
60.0
50
62.0
51
242.0
0
LINE
8
BLACK
10
48328.0
20
46716.0
11
48770.0
21
46945.0
0
LINE
8
BLACK
10
48272.0
20
46823.0
11
48714.0
21
47052.0
0
ARC
8
BLACK
10
48742.0
20
46999.0
40
60.0
50
297.0
51
477.0
0
ARC
8
BLACK
10
48300.0
20
46769.0
40
60.0
50
117.0
51
297.0
0
LINE
8
BLACK
10
52066.0
20
46847.0
11
52066.0
21
46476.0
0
LINE
8
BLACK
10
52066.0
20
46476.0
11
51761.0
21
46676.0
0
LINE
8
BLACK
10
51761.0
20
46676.0
11
51761.0
21
46590.0
0
LINE
8
BLACK
10
51761.0
20
46590.0
11
51723.0
21
46533.0
0
LINE
8
BLACK
10
51723.0
20
46533.0
11
51685.0
21
46504.0
0
LINE
8
BLACK
10
51685.0
20
46504.0
11
51609.0
21
46476.0
0
LINE
8
BLACK
10
51609.0
20
46476.0
11
51419.0
21
46476.0
0
LINE
8
BLACK
10
51419.0
20
46476.0
11
51342.0
21
46504.0
0
LINE
8
BLACK
10
51342.0
20
46504.0
11
51304.0
21
46533.0
0
LINE
8
BLACK
10
51304.0
20
46533.0
11
51266.0
21
46590.0
0
LINE
8
BLACK
10
51266.0
20
46590.0
11
51266.0
21
46762.0
0
LINE
8
BLACK
10
51266.0
20
46762.0
11
51304.0
21
46819.0
0
LINE
8
BLACK
10
51304.0
20
46819.0
11
51342.0
21
46847.0
0
LINE
8
BLACK
10
51342.0
20
46219.0
11
51304.0
21
46191.0
0
LINE
8
BLACK
10
51304.0
20
46191.0
11
51266.0
21
46219.0
0
LINE
8
BLACK
10
51266.0
20
46219.0
11
51304.0
21
46248.0
0
LINE
8
BLACK
10
51304.0
20
46248.0
11
51342.0
21
46219.0
0
LINE
8
BLACK
10
51342.0
20
46219.0
11
51266.0
21
46219.0
0
LINE
8
BLACK
10
52066.0
20
45819.0
11
52066.0
21
45762.0
0
LINE
8
BLACK
10
52066.0
20
45762.0
11
52028.0
21
45705.0
0
LINE
8
BLACK
10
52028.0
20
45705.0
11
51990.0
21
45676.0
0
LINE
8
BLACK
10
51990.0
20
45676.0
11
51914.0
21
45647.0
0
LINE
8
BLACK
10
51914.0
20
45647.0
11
51761.0
21
45619.0
0
LINE
8
BLACK
10
51761.0
20
45619.0
11
51571.0
21
45619.0
0
LINE
8
BLACK
10
51571.0
20
45619.0
11
51419.0
21
45647.0
0
LINE
8
BLACK
10
51419.0
20
45647.0
11
51342.0
21
45676.0
0
LINE
8
BLACK
10
51342.0
20
45676.0
11
51304.0
21
45705.0
0
LINE
8
BLACK
10
51304.0
20
45705.0
11
51266.0
21
45762.0
0
LINE
8
BLACK
10
51266.0
20
45762.0
11
51266.0
21
45819.0
0
LINE
8
BLACK
10
51266.0
20
45819.0
11
51304.0
21
45876.0
0
LINE
8
BLACK
10
51304.0
20
45876.0
11
51342.0
21
45905.0
0
LINE
8
BLACK
10
51342.0
20
45905.0
11
51419.0
21
45933.0
0
LINE
8
BLACK
10
51419.0
20
45933.0
11
51571.0
21
45962.0
0
LINE
8
BLACK
10
51571.0
20
45962.0
11
51761.0
21
45962.0
0
LINE
8
BLACK
10
51761.0
20
45962.0
11
51914.0
21
45933.0
0
LINE
8
BLACK
10
51914.0
20
45933.0
11
51990.0
21
45905.0
0
LINE
8
BLACK
10
51990.0
20
45905.0
11
52028.0
21
45876.0
0
LINE
8
BLACK
10
52028.0
20
45876.0
11
52066.0
21
45819.0
0
LINE
8
BLACK
10
51800.0
20
45105.0
11
51266.0
21
45105.0
0
LINE
8
BLACK
10
52104.0
20
45248.0
11
51533.0
21
45391.0
0
LINE
8
BLACK
10
51533.0
20
45391.0
11
51533.0
21
45019.0
0
LINE
8
BLACK
10
51723.0
20
44705.0
11
51761.0
21
44763.0
0
LINE
8
BLACK
10
51761.0
20
44763.0
11
51800.0
21
44791.0
0
LINE
8
BLACK
10
51800.0
20
44791.0
11
51876.0
21
44820.0
0
LINE
8
BLACK
10
51876.0
20
44820.0
11
51914.0
21
44820.0
0
LINE
8
BLACK
10
51914.0
20
44820.0
11
51990.0
21
44791.0
0
LINE
8
BLACK
10
51990.0
20
44791.0
11
52028.0
21
44763.0
0
LINE
8
BLACK
10
52028.0
20
44763.0
11
52066.0
21
44705.0
0
LINE
8
BLACK
10
52066.0
20
44705.0
11
52066.0
21
44591.0
0
LINE
8
BLACK
10
52066.0
20
44591.0
11
52028.0
21
44534.0
0
LINE
8
BLACK
10
52028.0
20
44534.0
11
51990.0
21
44505.0
0
LINE
8
BLACK
10
51990.0
20
44505.0
11
51914.0
21
44477.0
0
LINE
8
BLACK
10
51914.0
20
44477.0
11
51876.0
21
44477.0
0
LINE
8
BLACK
10
51876.0
20
44477.0
11
51800.0
21
44505.0
0
LINE
8
BLACK
10
51800.0
20
44505.0
11
51761.0
21
44534.0
0
LINE
8
BLACK
10
51761.0
20
44534.0
11
51723.0
21
44591.0
0
LINE
8
BLACK
10
51723.0
20
44591.0
11
51723.0
21
44705.0
0
LINE
8
BLACK
10
51723.0
20
44705.0
11
51685.0
21
44763.0
0
LINE
8
BLACK
10
51685.0
20
44763.0
11
51647.0
21
44791.0
0
LINE
8
BLACK
10
51647.0
20
44791.0
11
51571.0
21
44820.0
0
LINE
8
BLACK
10
51571.0
20
44820.0
11
51419.0
21
44820.0
0
LINE
8
BLACK
10
51419.0
20
44820.0
11
51342.0
21
44791.0
0
LINE
8
BLACK
10
51342.0
20
44791.0
11
51304.0
21
44763.0
0
LINE
8
BLACK
10
51304.0
20
44763.0
11
51266.0
21
44705.0
0
LINE
8
BLACK
10
51266.0
20
44705.0
11
51266.0
21
44591.0
0
LINE
8
BLACK
10
51266.0
20
44591.0
11
51304.0
21
44534.0
0
LINE
8
BLACK
10
51304.0
20
44534.0
11
51342.0
21
44505.0
0
LINE
8
BLACK
10
51342.0
20
44505.0
11
51419.0
21
44477.0
0
LINE
8
BLACK
10
51419.0
20
44477.0
11
51571.0
21
44477.0
0
LINE
8
BLACK
10
51571.0
20
44477.0
11
51647.0
21
44505.0
0
LINE
8
BLACK
10
51647.0
20
44505.0
11
51685.0
21
44534.0
0
LINE
8
BLACK
10
51685.0
20
44534.0
11
51723.0
21
44591.0
0
LINE
8
BLACK
10
51266.0
20
43763.0
11
51800.0
21
43763.0
0
LINE
8
BLACK
10
51723.0
20
43763.0
11
51761.0
21
43735.0
0
LINE
8
BLACK
10
51761.0
20
43735.0
11
51800.0
21
43677.0
0
LINE
8
BLACK
10
51800.0
20
43677.0
11
51800.0
21
43592.0
0
LINE
8
BLACK
10
51800.0
20
43592.0
11
51761.0
21
43535.0
0
LINE
8
BLACK
10
51761.0
20
43535.0
11
51685.0
21
43506.0
0
LINE
8
BLACK
10
51685.0
20
43506.0
11
51266.0
21
43506.0
0
LINE
8
BLACK
10
51685.0
20
43506.0
11
51761.0
21
43477.0
0
LINE
8
BLACK
10
51761.0
20
43477.0
11
51800.0
21
43420.0
0
LINE
8
BLACK
10
51800.0
20
43420.0
11
51800.0
21
43335.0
0
LINE
8
BLACK
10
51800.0
20
43335.0
11
51761.0
21
43277.0
0
LINE
8
BLACK
10
51761.0
20
43277.0
11
51685.0
21
43249.0
0
LINE
8
BLACK
10
51685.0
20
43249.0
11
51266.0
21
43249.0
0
LINE
8
BLACK
10
51266.0
20
42963.0
11
51800.0
21
42963.0
0
LINE
8
BLACK
10
51723.0
20
42963.0
11
51761.0
21
42935.0
0
LINE
8
BLACK
10
51761.0
20
42935.0
11
51800.0
21
42877.0
0
LINE
8
BLACK
10
51800.0
20
42877.0
11
51800.0
21
42792.0
0
LINE
8
BLACK
10
51800.0
20
42792.0
11
51761.0
21
42735.0
0
LINE
8
BLACK
10
51761.0
20
42735.0
11
51685.0
21
42706.0
0
LINE
8
BLACK
10
51685.0
20
42706.0
11
51266.0
21
42706.0
0
LINE
8
BLACK
10
51685.0
20
42706.0
11
51761.0
21
42677.0
0
LINE
8
BLACK
10
51761.0
20
42677.0
11
51800.0
21
42620.0
0
LINE
8
BLACK
10
51800.0
20
42620.0
11
51800.0
21
42535.0
0
LINE
8
BLACK
10
51800.0
20
42535.0
11
51761.0
21
42477.0
0
LINE
8
BLACK
10
51761.0
20
42477.0
11
51685.0
21
42449.0
0
LINE
8
BLACK
10
51685.0
20
42449.0
11
51266.0
21
42449.0
0
LINE
8
BLACK
10
51010.0
20
44020.0
11
51010.0
21
45220.0
0
LINE
8
BLACK
10
50890.0
20
44020.0
11
50890.0
21
45220.0
0
ARC
8
BLACK
10
50950.0
20
45220.0
40
60.0
50
360.0
51
540.0
0
ARC
8
BLACK
10
50950.0
20
44020.0
40
60.0
50
180.0
51
360.0
0
LINE
8
BLACK
10
42650.0
20
43960.0
11
52230.0
21
43960.0
0
LINE
8
BLACK
10
42650.0
20
44080.0
11
52230.0
21
44080.0
0
ARC
8
BLACK
10
52230.0
20
44020.0
40
60.0
50
270.0
51
450.0
0
ARC
8
BLACK
10
42650.0
20
44020.0
40
60.0
50
90.0
51
270.0
0
LINE
8
BLACK
10
42650.0
20
45160.0
11
52230.0
21
45160.0
0
LINE
8
BLACK
10
42650.0
20
45280.0
11
52230.0
21
45280.0
0
ARC
8
BLACK
10
52230.0
20
45220.0
40
60.0
50
270.0
51
450.0
0
ARC
8
BLACK
10
42650.0
20
45220.0
40
60.0
50
90.0
51
270.0
0
LINE
8
BLACK
10
50897.0
20
45192.0
11
51127.0
21
44750.0
0
LINE
8
BLACK
10
51003.0
20
45248.0
11
51233.0
21
44806.0
0
ARC
8
BLACK
10
51180.0
20
44778.0
40
60.0
50
207.0
51
387.0
0
ARC
8
BLACK
10
50950.0
20
45220.0
40
60.0
50
27.0
51
207.0
0
LINE
8
BLACK
10
50896.0
20
45248.0
11
50667.0
21
44806.0
0
LINE
8
BLACK
10
51003.0
20
45192.0
11
50774.0
21
44750.0
0
ARC
8
BLACK
10
50720.0
20
44778.0
40
60.0
50
152.0
51
332.0
0
ARC
8
BLACK
10
50950.0
20
45220.0
40
60.0
50
-27.0
51
152.0
0
LINE
8
BLACK
10
51003.0
20
43993.0
11
51233.0
21
44435.0
0
LINE
8
BLACK
10
50897.0
20
44049.0
11
51127.0
21
44491.0
0
ARC
8
BLACK
10
51180.0
20
44463.0
40
60.0
50
332.0
51
512.0
0
ARC
8
BLACK
10
50950.0
20
44021.0
40
60.0
50
152.0
51
332.0
0
LINE
8
BLACK
10
51003.0
20
44049.0
11
50774.0
21
44491.0
0
LINE
8
BLACK
10
50896.0
20
43993.0
11
50667.0
21
44435.0
0
ARC
8
BLACK
10
50720.0
20
44463.0
40
60.0
50
387.0
51
567.0
0
ARC
8
BLACK
10
50950.0
20
44021.0
40
60.0
50
207.0
51
387.0
0
LINE
8
BLACK
10
52065.0
20
39147.0
11
52065.0
21
38776.0
0
LINE
8
BLACK
10
52065.0
20
38776.0
11
51760.0
21
38976.0
0
LINE
8
BLACK
10
51760.0
20
38976.0
11
51760.0
21
38890.0
0
LINE
8
BLACK
10
51760.0
20
38890.0
11
51722.0
21
38833.0
0
LINE
8
BLACK
10
51722.0
20
38833.0
11
51684.0
21
38804.0
0
LINE
8
BLACK
10
51684.0
20
38804.0
11
51608.0
21
38776.0
0
LINE
8
BLACK
10
51608.0
20
38776.0
11
51418.0
21
38776.0
0
LINE
8
BLACK
10
51418.0
20
38776.0
11
51341.0
21
38804.0
0
LINE
8
BLACK
10
51341.0
20
38804.0
11
51303.0
21
38833.0
0
LINE
8
BLACK
10
51303.0
20
38833.0
11
51265.0
21
38890.0
0
LINE
8
BLACK
10
51265.0
20
38890.0
11
51265.0
21
39062.0
0
LINE
8
BLACK
10
51265.0
20
39062.0
11
51303.0
21
39119.0
0
LINE
8
BLACK
10
51303.0
20
39119.0
11
51341.0
21
39147.0
0
LINE
8
BLACK
10
51341.0
20
38519.0
11
51303.0
21
38491.0
0
LINE
8
BLACK
10
51303.0
20
38491.0
11
51265.0
21
38519.0
0
LINE
8
BLACK
10
51265.0
20
38519.0
11
51303.0
21
38548.0
0
LINE
8
BLACK
10
51303.0
20
38548.0
11
51341.0
21
38519.0
0
LINE
8
BLACK
10
51341.0
20
38519.0
11
51265.0
21
38519.0
0
LINE
8
BLACK
10
52065.0
20
38119.0
11
52065.0
21
38062.0
0
LINE
8
BLACK
10
52065.0
20
38062.0
11
52027.0
21
38005.0
0
LINE
8
BLACK
10
52027.0
20
38005.0
11
51989.0
21
37976.0
0
LINE
8
BLACK
10
51989.0
20
37976.0
11
51913.0
21
37947.0
0
LINE
8
BLACK
10
51913.0
20
37947.0
11
51760.0
21
37919.0
0
LINE
8
BLACK
10
51760.0
20
37919.0
11
51570.0
21
37919.0
0
LINE
8
BLACK
10
51570.0
20
37919.0
11
51418.0
21
37947.0
0
LINE
8
BLACK
10
51418.0
20
37947.0
11
51341.0
21
37976.0
0
LINE
8
BLACK
10
51341.0
20
37976.0
11
51303.0
21
38005.0
0
LINE
8
BLACK
10
51303.0
20
38005.0
11
51265.0
21
38062.0
0
LINE
8
BLACK
10
51265.0
20
38062.0
11
51265.0
21
38119.0
0
LINE
8
BLACK
10
51265.0
20
38119.0
11
51303.0
21
38176.0
0
LINE
8
BLACK
10
51303.0
20
38176.0
11
51341.0
21
38205.0
0
LINE
8
BLACK
10
51341.0
20
38205.0
11
51418.0
21
38233.0
0
LINE
8
BLACK
10
51418.0
20
38233.0
11
51570.0
21
38262.0
0
LINE
8
BLACK
10
51570.0
20
38262.0
11
51760.0
21
38262.0
0
LINE
8
BLACK
10
51760.0
20
38262.0
11
51913.0
21
38233.0
0
LINE
8
BLACK
10
51913.0
20
38233.0
11
51989.0
21
38205.0
0
LINE
8
BLACK
10
51989.0
20
38205.0
11
52027.0
21
38176.0
0
LINE
8
BLACK
10
52027.0
20
38176.0
11
52065.0
21
38119.0
0
LINE
8
BLACK
10
51799.0
20
37405.0
11
51265.0
21
37405.0
0
LINE
8
BLACK
10
52103.0
20
37548.0
11
51532.0
21
37691.0
0
LINE
8
BLACK
10
51532.0
20
37691.0
11
51532.0
21
37319.0
0
LINE
8
BLACK
10
51722.0
20
37005.0
11
51760.0
21
37063.0
0
LINE
8
BLACK
10
51760.0
20
37063.0
11
51799.0
21
37091.0
0
LINE
8
BLACK
10
51799.0
20
37091.0
11
51875.0
21
37120.0
0
LINE
8
BLACK
10
51875.0
20
37120.0
11
51913.0
21
37120.0
0
LINE
8
BLACK
10
51913.0
20
37120.0
11
51989.0
21
37091.0
0
LINE
8
BLACK
10
51989.0
20
37091.0
11
52027.0
21
37063.0
0
LINE
8
BLACK
10
52027.0
20
37063.0
11
52065.0
21
37005.0
0
LINE
8
BLACK
10
52065.0
20
37005.0
11
52065.0
21
36891.0
0
LINE
8
BLACK
10
52065.0
20
36891.0
11
52027.0
21
36834.0
0
LINE
8
BLACK
10
52027.0
20
36834.0
11
51989.0
21
36805.0
0
LINE
8
BLACK
10
51989.0
20
36805.0
11
51913.0
21
36777.0
0
LINE
8
BLACK
10
51913.0
20
36777.0
11
51875.0
21
36777.0
0
LINE
8
BLACK
10
51875.0
20
36777.0
11
51799.0
21
36805.0
0
LINE
8
BLACK
10
51799.0
20
36805.0
11
51760.0
21
36834.0
0
LINE
8
BLACK
10
51760.0
20
36834.0
11
51722.0
21
36891.0
0
LINE
8
BLACK
10
51722.0
20
36891.0
11
51722.0
21
37005.0
0
LINE
8
BLACK
10
51722.0
20
37005.0
11
51684.0
21
37063.0
0
LINE
8
BLACK
10
51684.0
20
37063.0
11
51646.0
21
37091.0
0
LINE
8
BLACK
10
51646.0
20
37091.0
11
51570.0
21
37120.0
0
LINE
8
BLACK
10
51570.0
20
37120.0
11
51418.0
21
37120.0
0
LINE
8
BLACK
10
51418.0
20
37120.0
11
51341.0
21
37091.0
0
LINE
8
BLACK
10
51341.0
20
37091.0
11
51303.0
21
37063.0
0
LINE
8
BLACK
10
51303.0
20
37063.0
11
51265.0
21
37005.0
0
LINE
8
BLACK
10
51265.0
20
37005.0
11
51265.0
21
36891.0
0
LINE
8
BLACK
10
51265.0
20
36891.0
11
51303.0
21
36834.0
0
LINE
8
BLACK
10
51303.0
20
36834.0
11
51341.0
21
36805.0
0
LINE
8
BLACK
10
51341.0
20
36805.0
11
51418.0
21
36777.0
0
LINE
8
BLACK
10
51418.0
20
36777.0
11
51570.0
21
36777.0
0
LINE
8
BLACK
10
51570.0
20
36777.0
11
51646.0
21
36805.0
0
LINE
8
BLACK
10
51646.0
20
36805.0
11
51684.0
21
36834.0
0
LINE
8
BLACK
10
51684.0
20
36834.0
11
51722.0
21
36891.0
0
LINE
8
BLACK
10
51265.0
20
36063.0
11
51799.0
21
36063.0
0
LINE
8
BLACK
10
51722.0
20
36063.0
11
51760.0
21
36035.0
0
LINE
8
BLACK
10
51760.0
20
36035.0
11
51799.0
21
35977.0
0
LINE
8
BLACK
10
51799.0
20
35977.0
11
51799.0
21
35892.0
0
LINE
8
BLACK
10
51799.0
20
35892.0
11
51760.0
21
35835.0
0
LINE
8
BLACK
10
51760.0
20
35835.0
11
51684.0
21
35806.0
0
LINE
8
BLACK
10
51684.0
20
35806.0
11
51265.0
21
35806.0
0
LINE
8
BLACK
10
51684.0
20
35806.0
11
51760.0
21
35777.0
0
LINE
8
BLACK
10
51760.0
20
35777.0
11
51799.0
21
35720.0
0
LINE
8
BLACK
10
51799.0
20
35720.0
11
51799.0
21
35635.0
0
LINE
8
BLACK
10
51799.0
20
35635.0
11
51760.0
21
35577.0
0
LINE
8
BLACK
10
51760.0
20
35577.0
11
51684.0
21
35549.0
0
LINE
8
BLACK
10
51684.0
20
35549.0
11
51265.0
21
35549.0
0
LINE
8
BLACK
10
51265.0
20
35263.0
11
51799.0
21
35263.0
0
LINE
8
BLACK
10
51722.0
20
35263.0
11
51760.0
21
35235.0
0
LINE
8
BLACK
10
51760.0
20
35235.0
11
51799.0
21
35177.0
0
LINE
8
BLACK
10
51799.0
20
35177.0
11
51799.0
21
35092.0
0
LINE
8
BLACK
10
51799.0
20
35092.0
11
51760.0
21
35035.0
0
LINE
8
BLACK
10
51760.0
20
35035.0
11
51684.0
21
35006.0
0
LINE
8
BLACK
10
51684.0
20
35006.0
11
51265.0
21
35006.0
0
LINE
8
BLACK
10
51684.0
20
35006.0
11
51760.0
21
34977.0
0
LINE
8
BLACK
10
51760.0
20
34977.0
11
51799.0
21
34920.0
0
LINE
8
BLACK
10
51799.0
20
34920.0
11
51799.0
21
34835.0
0
LINE
8
BLACK
10
51799.0
20
34835.0
11
51760.0
21
34777.0
0
LINE
8
BLACK
10
51760.0
20
34777.0
11
51684.0
21
34749.0
0
LINE
8
BLACK
10
51684.0
20
34749.0
11
51265.0
21
34749.0
0
LINE
8
BLACK
10
51009.0
20
36320.0
11
51009.0
21
37520.0
0
LINE
8
BLACK
10
50889.0
20
36320.0
11
50889.0
21
37520.0
0
ARC
8
BLACK
10
50949.0
20
37520.0
40
60.0
50
360.0
51
540.0
0
ARC
8
BLACK
10
50949.0
20
36320.0
40
60.0
50
180.0
51
360.0
0
LINE
8
BLACK
10
42700.0
20
37460.0
11
52228.0
21
37460.0
0
LINE
8
BLACK
10
42700.0
20
37580.0
11
52228.0
21
37580.0
0
ARC
8
BLACK
10
52228.0
20
37520.0
40
60.0
50
270.0
51
450.0
0
ARC
8
BLACK
10
42700.0
20
37520.0
40
60.0
50
90.0
51
270.0
0
LINE
8
BLACK
10
42700.0
20
36260.0
11
52228.0
21
36260.0
0
LINE
8
BLACK
10
42700.0
20
36380.0
11
52228.0
21
36380.0
0
ARC
8
BLACK
10
52228.0
20
36320.0
40
60.0
50
270.0
51
450.0
0
ARC
8
BLACK
10
42700.0
20
36320.0
40
60.0
50
90.0
51
270.0
0
LINE
8
BLACK
10
51002.0
20
36349.0
11
50773.0
21
36791.0
0
LINE
8
BLACK
10
50895.0
20
36293.0
11
50666.0
21
36735.0
0
ARC
8
BLACK
10
50719.0
20
36763.0
40
60.0
50
387.0
51
567.0
0
ARC
8
BLACK
10
50949.0
20
36321.0
40
60.0
50
207.0
51
387.0
0
LINE
8
BLACK
10
51002.0
20
36293.0
11
51232.0
21
36735.0
0
LINE
8
BLACK
10
50896.0
20
36349.0
11
51126.0
21
36791.0
0
ARC
8
BLACK
10
51179.0
20
36763.0
40
60.0
50
332.0
51
512.0
0
ARC
8
BLACK
10
50949.0
20
36321.0
40
60.0
50
152.0
51
332.0
0
LINE
8
BLACK
10
50895.0
20
37548.0
11
50666.0
21
37106.0
0
LINE
8
BLACK
10
51002.0
20
37492.0
11
50773.0
21
37050.0
0
ARC
8
BLACK
10
50719.0
20
37078.0
40
60.0
50
152.0
51
332.0
0
ARC
8
BLACK
10
50949.0
20
37520.0
40
60.0
50
-27.0
51
152.0
0
LINE
8
BLACK
10
50896.0
20
37492.0
11
51126.0
21
37050.0
0
LINE
8
BLACK
10
51002.0
20
37548.0
11
51232.0
21
37106.0
0
ARC
8
BLACK
10
51179.0
20
37078.0
40
60.0
50
207.0
51
387.0
0
ARC
8
BLACK
10
50949.0
20
37520.0
40
60.0
50
27.0
51
207.0
0
LINE
8
BLACK
10
38973.0
20
34057.0
11
39344.0
21
34057.0
0
LINE
8
BLACK
10
39344.0
20
34057.0
11
39144.0
21
33752.0
0
LINE
8
BLACK
10
39144.0
20
33752.0
11
39230.0
21
33752.0
0
LINE
8
BLACK
10
39230.0
20
33752.0
11
39287.0
21
33714.0
0
LINE
8
BLACK
10
39287.0
20
33714.0
11
39316.0
21
33676.0
0
LINE
8
BLACK
10
39316.0
20
33676.0
11
39344.0
21
33600.0
0
LINE
8
BLACK
10
39344.0
20
33600.0
11
39344.0
21
33410.0
0
LINE
8
BLACK
10
39344.0
20
33410.0
11
39316.0
21
33333.0
0
LINE
8
BLACK
10
39316.0
20
33333.0
11
39287.0
21
33295.0
0
LINE
8
BLACK
10
39287.0
20
33295.0
11
39230.0
21
33257.0
0
LINE
8
BLACK
10
39230.0
20
33257.0
11
39058.0
21
33257.0
0
LINE
8
BLACK
10
39058.0
20
33257.0
11
39001.0
21
33295.0
0
LINE
8
BLACK
10
39001.0
20
33295.0
11
38973.0
21
33333.0
0
LINE
8
BLACK
10
39601.0
20
33333.0
11
39629.0
21
33295.0
0
LINE
8
BLACK
10
39629.0
20
33295.0
11
39601.0
21
33257.0
0
LINE
8
BLACK
10
39601.0
20
33257.0
11
39572.0
21
33295.0
0
LINE
8
BLACK
10
39572.0
20
33295.0
11
39601.0
21
33333.0
0
LINE
8
BLACK
10
39601.0
20
33333.0
11
39601.0
21
33257.0
0
LINE
8
BLACK
10
40001.0
20
34057.0
11
40058.0
21
34057.0
0
LINE
8
BLACK
10
40058.0
20
34057.0
11
40115.0
21
34019.0
0
LINE
8
BLACK
10
40115.0
20
34019.0
11
40144.0
21
33981.0
0
LINE
8
BLACK
10
40144.0
20
33981.0
11
40173.0
21
33905.0
0
LINE
8
BLACK
10
40173.0
20
33905.0
11
40201.0
21
33752.0
0
LINE
8
BLACK
10
40201.0
20
33752.0
11
40201.0
21
33562.0
0
LINE
8
BLACK
10
40201.0
20
33562.0
11
40173.0
21
33410.0
0
LINE
8
BLACK
10
40173.0
20
33410.0
11
40144.0
21
33333.0
0
LINE
8
BLACK
10
40144.0
20
33333.0
11
40115.0
21
33295.0
0
LINE
8
BLACK
10
40115.0
20
33295.0
11
40058.0
21
33257.0
0
LINE
8
BLACK
10
40058.0
20
33257.0
11
40001.0
21
33257.0
0
LINE
8
BLACK
10
40001.0
20
33257.0
11
39944.0
21
33295.0
0
LINE
8
BLACK
10
39944.0
20
33295.0
11
39915.0
21
33333.0
0
LINE
8
BLACK
10
39915.0
20
33333.0
11
39887.0
21
33410.0
0
LINE
8
BLACK
10
39887.0
20
33410.0
11
39858.0
21
33562.0
0
LINE
8
BLACK
10
39858.0
20
33562.0
11
39858.0
21
33752.0
0
LINE
8
BLACK
10
39858.0
20
33752.0
11
39887.0
21
33905.0
0
LINE
8
BLACK
10
39887.0
20
33905.0
11
39915.0
21
33981.0
0
LINE
8
BLACK
10
39915.0
20
33981.0
11
39944.0
21
34019.0
0
LINE
8
BLACK
10
39944.0
20
34019.0
11
40001.0
21
34057.0
0
LINE
8
BLACK
10
40715.0
20
33791.0
11
40715.0
21
33257.0
0
LINE
8
BLACK
10
40572.0
20
34095.0
11
40429.0
21
33524.0
0
LINE
8
BLACK
10
40429.0
20
33524.0
11
40801.0
21
33524.0
0
LINE
8
BLACK
10
41115.0
20
33714.0
11
41057.0
21
33752.0
0
LINE
8
BLACK
10
41057.0
20
33752.0
11
41029.0
21
33791.0
0
LINE
8
BLACK
10
41029.0
20
33791.0
11
41000.0
21
33867.0
0
LINE
8
BLACK
10
41000.0
20
33867.0
11
41000.0
21
33905.0
0
LINE
8
BLACK
10
41000.0
20
33905.0
11
41029.0
21
33981.0
0
LINE
8
BLACK
10
41029.0
20
33981.0
11
41057.0
21
34019.0
0
LINE
8
BLACK
10
41057.0
20
34019.0
11
41115.0
21
34057.0
0
LINE
8
BLACK
10
41115.0
20
34057.0
11
41229.0
21
34057.0
0
LINE
8
BLACK
10
41229.0
20
34057.0
11
41286.0
21
34019.0
0
LINE
8
BLACK
10
41286.0
20
34019.0
11
41315.0
21
33981.0
0
LINE
8
BLACK
10
41315.0
20
33981.0
11
41343.0
21
33905.0
0
LINE
8
BLACK
10
41343.0
20
33905.0
11
41343.0
21
33867.0
0
LINE
8
BLACK
10
41343.0
20
33867.0
11
41315.0
21
33791.0
0
LINE
8
BLACK
10
41315.0
20
33791.0
11
41286.0
21
33752.0
0
LINE
8
BLACK
10
41286.0
20
33752.0
11
41229.0
21
33714.0
0
LINE
8
BLACK
10
41229.0
20
33714.0
11
41115.0
21
33714.0
0
LINE
8
BLACK
10
41115.0
20
33714.0
11
41057.0
21
33676.0
0
LINE
8
BLACK
10
41057.0
20
33676.0
11
41029.0
21
33638.0
0
LINE
8
BLACK
10
41029.0
20
33638.0
11
41000.0
21
33562.0
0
LINE
8
BLACK
10
41000.0
20
33562.0
11
41000.0
21
33410.0
0
LINE
8
BLACK
10
41000.0
20
33410.0
11
41029.0
21
33333.0
0
LINE
8
BLACK
10
41029.0
20
33333.0
11
41057.0
21
33295.0
0
LINE
8
BLACK
10
41057.0
20
33295.0
11
41115.0
21
33257.0
0
LINE
8
BLACK
10
41115.0
20
33257.0
11
41229.0
21
33257.0
0
LINE
8
BLACK
10
41229.0
20
33257.0
11
41286.0
21
33295.0
0
LINE
8
BLACK
10
41286.0
20
33295.0
11
41315.0
21
33333.0
0
LINE
8
BLACK
10
41315.0
20
33333.0
11
41343.0
21
33410.0
0
LINE
8
BLACK
10
41343.0
20
33410.0
11
41343.0
21
33562.0
0
LINE
8
BLACK
10
41343.0
20
33562.0
11
41315.0
21
33638.0
0
LINE
8
BLACK
10
41315.0
20
33638.0
11
41286.0
21
33676.0
0
LINE
8
BLACK
10
41286.0
20
33676.0
11
41229.0
21
33714.0
0
LINE
8
BLACK
10
42057.0
20
33257.0
11
42057.0
21
33791.0
0
LINE
8
BLACK
10
42057.0
20
33714.0
11
42085.0
21
33752.0
0
LINE
8
BLACK
10
42085.0
20
33752.0
11
42143.0
21
33791.0
0
LINE
8
BLACK
10
42143.0
20
33791.0
11
42228.0
21
33791.0
0
LINE
8
BLACK
10
42228.0
20
33791.0
11
42285.0
21
33752.0
0
LINE
8
BLACK
10
42285.0
20
33752.0
11
42314.0
21
33676.0
0
LINE
8
BLACK
10
42314.0
20
33676.0
11
42314.0
21
33257.0
0
LINE
8
BLACK
10
42314.0
20
33676.0
11
42343.0
21
33752.0
0
LINE
8
BLACK
10
42343.0
20
33752.0
11
42400.0
21
33791.0
0
LINE
8
BLACK
10
42400.0
20
33791.0
11
42485.0
21
33791.0
0
LINE
8
BLACK
10
42485.0
20
33791.0
11
42543.0
21
33752.0
0
LINE
8
BLACK
10
42543.0
20
33752.0
11
42571.0
21
33676.0
0
LINE
8
BLACK
10
42571.0
20
33676.0
11
42571.0
21
33257.0
0
LINE
8
BLACK
10
42857.0
20
33257.0
11
42857.0
21
33791.0
0
LINE
8
BLACK
10
42857.0
20
33714.0
11
42885.0
21
33752.0
0
LINE
8
BLACK
10
42885.0
20
33752.0
11
42943.0
21
33791.0
0
LINE
8
BLACK
10
42943.0
20
33791.0
11
43028.0
21
33791.0
0
LINE
8
BLACK
10
43028.0
20
33791.0
11
43085.0
21
33752.0
0
LINE
8
BLACK
10
43085.0
20
33752.0
11
43114.0
21
33676.0
0
LINE
8
BLACK
10
43114.0
20
33676.0
11
43114.0
21
33257.0
0
LINE
8
BLACK
10
43114.0
20
33676.0
11
43143.0
21
33752.0
0
LINE
8
BLACK
10
43143.0
20
33752.0
11
43200.0
21
33791.0
0
LINE
8
BLACK
10
43200.0
20
33791.0
11
43285.0
21
33791.0
0
LINE
8
BLACK
10
43285.0
20
33791.0
11
43343.0
21
33752.0
0
LINE
8
BLACK
10
43343.0
20
33752.0
11
43371.0
21
33676.0
0
LINE
8
BLACK
10
43371.0
20
33676.0
11
43371.0
21
33257.0
0
LINE
8
BLACK
10
40600.0
20
34161.0
11
41800.0
21
34161.0
0
LINE
8
BLACK
10
40600.0
20
34281.0
11
41800.0
21
34281.0
0
ARC
8
BLACK
10
41800.0
20
34221.0
40
60.0
50
270.0
51
450.0
0
ARC
8
BLACK
10
40600.0
20
34221.0
40
60.0
50
90.0
51
270.0
0
LINE
8
BLACK
10
41860.0
20
32942.0
11
41860.0
21
43120.0
0
LINE
8
BLACK
10
41740.0
20
32942.0
11
41740.0
21
43120.0
0
ARC
8
BLACK
10
41800.0
20
43120.0
40
60.0
50
360.0
51
540.0
0
ARC
8
BLACK
10
41800.0
20
32942.0
40
60.0
50
180.0
51
360.0
0
LINE
8
BLACK
10
40660.0
20
32942.0
11
40660.0
21
43120.0
0
LINE
8
BLACK
10
40540.0
20
32942.0
11
40540.0
21
43120.0
0
ARC
8
BLACK
10
40600.0
20
43120.0
40
60.0
50
360.0
51
540.0
0
ARC
8
BLACK
10
40600.0
20
32942.0
40
60.0
50
180.0
51
360.0
0
LINE
8
BLACK
10
40628.0
20
34168.0
11
41070.0
21
34397.0
0
LINE
8
BLACK
10
40572.0
20
34275.0
11
41014.0
21
34504.0
0
ARC
8
BLACK
10
41042.0
20
34451.0
40
60.0
50
297.0
51
477.0
0
ARC
8
BLACK
10
40600.0
20
34221.0
40
60.0
50
117.0
51
297.0
0
LINE
8
BLACK
10
40572.0
20
34167.0
11
41014.0
21
33938.0
0
LINE
8
BLACK
10
40628.0
20
34274.0
11
41070.0
21
34045.0
0
ARC
8
BLACK
10
41042.0
20
33991.0
40
60.0
50
242.0
51
422.0
0
ARC
8
BLACK
10
40600.0
20
34221.0
40
60.0
50
62.0
51
242.0
0
LINE
8
BLACK
10
41827.0
20
34274.0
11
41385.0
21
34504.0
0
LINE
8
BLACK
10
41771.0
20
34168.0
11
41329.0
21
34398.0
0
ARC
8
BLACK
10
41357.0
20
34451.0
40
60.0
50
422.0
51
602.0
0
ARC
8
BLACK
10
41799.0
20
34221.0
40
60.0
50
242.0
51
422.0
0
LINE
8
BLACK
10
41771.0
20
34274.0
11
41329.0
21
34044.0
0
LINE
8
BLACK
10
41827.0
20
34168.0
11
41385.0
21
33938.0
0
ARC
8
BLACK
10
41357.0
20
33991.0
40
60.0
50
117.0
51
297.0
0
ARC
8
BLACK
10
41799.0
20
34221.0
40
60.0
50
-62.0
51
117.0
0
LINE
8
BLACK
10
11561.0
20
53719.0
11
11599.0
21
53690.0
0
LINE
8
BLACK
10
11599.0
20
53690.0
11
11637.0
21
53633.0
0
LINE
8
BLACK
10
11637.0
20
53633.0
11
11637.0
21
53490.0
0
LINE
8
BLACK
10
11637.0
20
53490.0
11
11599.0
21
53433.0
0
LINE
8
BLACK
10
11599.0
20
53433.0
11
11561.0
21
53404.0
0
LINE
8
BLACK
10
11561.0
20
53404.0
11
11485.0
21
53376.0
0
LINE
8
BLACK
10
11485.0
20
53376.0
11
11409.0
21
53376.0
0
LINE
8
BLACK
10
11409.0
20
53376.0
11
11294.0
21
53404.0
0
LINE
8
BLACK
10
11294.0
20
53404.0
11
10837.0
21
53747.0
0
LINE
8
BLACK
10
10837.0
20
53747.0
11
10837.0
21
53376.0
0
LINE
8
BLACK
10
10913.0
20
53119.0
11
10875.0
21
53091.0
0
LINE
8
BLACK
10
10875.0
20
53091.0
11
10837.0
21
53119.0
0
LINE
8
BLACK
10
10837.0
20
53119.0
11
10875.0
21
53148.0
0
LINE
8
BLACK
10
10875.0
20
53148.0
11
10913.0
21
53119.0
0
LINE
8
BLACK
10
10913.0
20
53119.0
11
10837.0
21
53119.0
0
LINE
8
BLACK
10
11637.0
20
52890.0
11
11637.0
21
52490.0
0
LINE
8
BLACK
10
11637.0
20
52490.0
11
10837.0
21
52747.0
0
LINE
8
BLACK
10
10837.0
20
52234.0
11
10837.0
21
52119.0
0
LINE
8
BLACK
10
10837.0
20
52119.0
11
10875.0
21
52062.0
0
LINE
8
BLACK
10
10875.0
20
52062.0
11
10913.0
21
52034.0
0
LINE
8
BLACK
10
10913.0
20
52034.0
11
11028.0
21
51976.0
0
LINE
8
BLACK
10
11028.0
20
51976.0
11
11180.0
21
51948.0
0
LINE
8
BLACK
10
11180.0
20
51948.0
11
11485.0
21
51948.0
0
LINE
8
BLACK
10
11485.0
20
51948.0
11
11561.0
21
51976.0
0
LINE
8
BLACK
10
11561.0
20
51976.0
11
11599.0
21
52005.0
0
LINE
8
BLACK
10
11599.0
20
52005.0
11
11637.0
21
52062.0
0
LINE
8
BLACK
10
11637.0
20
52062.0
11
11637.0
21
52176.0
0
LINE
8
BLACK
10
11637.0
20
52176.0
11
11599.0
21
52234.0
0
LINE
8
BLACK
10
11599.0
20
52234.0
11
11561.0
21
52262.0
0
LINE
8
BLACK
10
11561.0
20
52262.0
11
11485.0
21
52291.0
0
LINE
8
BLACK
10
11485.0
20
52291.0
11
11294.0
21
52291.0
0
LINE
8
BLACK
10
11294.0
20
52291.0
11
11218.0
21
52262.0
0
LINE
8
BLACK
10
11218.0
20
52262.0
11
11180.0
21
52234.0
0
LINE
8
BLACK
10
11180.0
20
52234.0
11
11142.0
21
52176.0
0
LINE
8
BLACK
10
11142.0
20
52176.0
11
11142.0
21
52062.0
0
LINE
8
BLACK
10
11142.0
20
52062.0
11
11180.0
21
52005.0
0
LINE
8
BLACK
10
11180.0
20
52005.0
11
11218.0
21
51976.0
0
LINE
8
BLACK
10
11218.0
20
51976.0
11
11294.0
21
51948.0
0
LINE
8
BLACK
10
11371.0
20
51434.0
11
10837.0
21
51434.0
0
LINE
8
BLACK
10
11675.0
20
51577.0
11
11104.0
21
51720.0
0
LINE
8
BLACK
10
11104.0
20
51720.0
11
11104.0
21
51348.0
0
LINE
8
BLACK
10
10837.0
20
50663.0
11
11371.0
21
50663.0
0
LINE
8
BLACK
10
11294.0
20
50663.0
11
11332.0
21
50635.0
0
LINE
8
BLACK
10
11332.0
20
50635.0
11
11371.0
21
50577.0
0
LINE
8
BLACK
10
11371.0
20
50577.0
11
11371.0
21
50492.0
0
LINE
8
BLACK
10
11371.0
20
50492.0
11
11332.0
21
50435.0
0
LINE
8
BLACK
10
11332.0
20
50435.0
11
11256.0
21
50406.0
0
LINE
8
BLACK
10
11256.0
20
50406.0
11
10837.0
21
50406.0
0
LINE
8
BLACK
10
11256.0
20
50406.0
11
11332.0
21
50377.0
0
LINE
8
BLACK
10
11332.0
20
50377.0
11
11371.0
21
50320.0
0
LINE
8
BLACK
10
11371.0
20
50320.0
11
11371.0
21
50235.0
0
LINE
8
BLACK
10
11371.0
20
50235.0
11
11332.0
21
50177.0
0
LINE
8
BLACK
10
11332.0
20
50177.0
11
11256.0
21
50149.0
0
LINE
8
BLACK
10
11256.0
20
50149.0
11
10837.0
21
50149.0
0
LINE
8
BLACK
10
10837.0
20
49863.0
11
11371.0
21
49863.0
0
LINE
8
BLACK
10
11294.0
20
49863.0
11
11332.0
21
49835.0
0
LINE
8
BLACK
10
11332.0
20
49835.0
11
11371.0
21
49777.0
0
LINE
8
BLACK
10
11371.0
20
49777.0
11
11371.0
21
49692.0
0
LINE
8
BLACK
10
11371.0
20
49692.0
11
11332.0
21
49635.0
0
LINE
8
BLACK
10
11332.0
20
49635.0
11
11256.0
21
49606.0
0
LINE
8
BLACK
10
11256.0
20
49606.0
11
10837.0
21
49606.0
0
LINE
8
BLACK
10
11256.0
20
49606.0
11
11332.0
21
49577.0
0
LINE
8
BLACK
10
11332.0
20
49577.0
11
11371.0
21
49520.0
0
LINE
8
BLACK
10
11371.0
20
49520.0
11
11371.0
21
49435.0
0
LINE
8
BLACK
10
11371.0
20
49435.0
11
11332.0
21
49377.0
0
LINE
8
BLACK
10
11332.0
20
49377.0
11
11256.0
21
49349.0
0
LINE
8
BLACK
10
11256.0
20
49349.0
11
10837.0
21
49349.0
0
LINE
8
BLACK
10
11861.0
20
50970.0
11
11861.0
21
52070.0
0
LINE
8
BLACK
10
11741.0
20
50970.0
11
11741.0
21
52070.0
0
ARC
8
BLACK
10
11801.0
20
52070.0
40
60.0
50
360.0
51
540.0
0
ARC
8
BLACK
10
11801.0
20
50970.0
40
60.0
50
180.0
51
360.0
0
LINE
8
BLACK
10
10521.0
20
52010.0
11
26749.0
21
52010.0
0
LINE
8
BLACK
10
10521.0
20
52130.0
11
26749.0
21
52130.0
0
ARC
8
BLACK
10
26749.0
20
52070.0
40
60.0
50
270.0
51
450.0
0
ARC
8
BLACK
10
10521.0
20
52070.0
40
60.0
50
90.0
51
270.0
0
LINE
8
BLACK
10
10521.0
20
50910.0
11
26749.0
21
50910.0
0
LINE
8
BLACK
10
10521.0
20
51030.0
11
26749.0
21
51030.0
0
ARC
8
BLACK
10
26749.0
20
50970.0
40
60.0
50
270.0
51
450.0
0
ARC
8
BLACK
10
10521.0
20
50970.0
40
60.0
50
90.0
51
270.0
0
LINE
8
BLACK
10
11854.0
20
50999.0
11
11625.0
21
51441.0
0
LINE
8
BLACK
10
11747.0
20
50943.0
11
11518.0
21
51385.0
0
ARC
8
BLACK
10
11571.0
20
51413.0
40
60.0
50
387.0
51
567.0
0
ARC
8
BLACK
10
11801.0
20
50971.0
40
60.0
50
207.0
51
387.0
0
LINE
8
BLACK
10
11854.0
20
50943.0
11
12084.0
21
51385.0
0
LINE
8
BLACK
10
11748.0
20
50999.0
11
11978.0
21
51441.0
0
ARC
8
BLACK
10
12031.0
20
51413.0
40
60.0
50
332.0
51
512.0
0
ARC
8
BLACK
10
11801.0
20
50971.0
40
60.0
50
152.0
51
332.0
0
LINE
8
BLACK
10
11747.0
20
52098.0
11
11518.0
21
51656.0
0
LINE
8
BLACK
10
11854.0
20
52042.0
11
11625.0
21
51600.0
0
ARC
8
BLACK
10
11571.0
20
51628.0
40
60.0
50
152.0
51
332.0
0
ARC
8
BLACK
10
11801.0
20
52070.0
40
60.0
50
-27.0
51
152.0
0
LINE
8
BLACK
10
11748.0
20
52042.0
11
11978.0
21
51600.0
0
LINE
8
BLACK
10
11854.0
20
52098.0
11
12084.0
21
51656.0
0
ARC
8
BLACK
10
12031.0
20
51628.0
40
60.0
50
207.0
51
387.0
0
ARC
8
BLACK
10
11801.0
20
52070.0
40
60.0
50
27.0
51
207.0
0
LINE
8
BLACK
10
12401.0
20
68709.0
11
12430.0
21
68747.0
0
LINE
8
BLACK
10
12430.0
20
68747.0
11
12487.0
21
68785.0
0
LINE
8
BLACK
10
12487.0
20
68785.0
11
12630.0
21
68785.0
0
LINE
8
BLACK
10
12630.0
20
68785.0
11
12687.0
21
68747.0
0
LINE
8
BLACK
10
12687.0
20
68747.0
11
12716.0
21
68709.0
0
LINE
8
BLACK
10
12716.0
20
68709.0
11
12744.0
21
68633.0
0
LINE
8
BLACK
10
12744.0
20
68633.0
11
12744.0
21
68557.0
0
LINE
8
BLACK
10
12744.0
20
68557.0
11
12716.0
21
68442.0
0
LINE
8
BLACK
10
12716.0
20
68442.0
11
12373.0
21
67985.0
0
LINE
8
BLACK
10
12373.0
20
67985.0
11
12744.0
21
67985.0
0
LINE
8
BLACK
10
13001.0
20
68061.0
11
13029.0
21
68023.0
0
LINE
8
BLACK
10
13029.0
20
68023.0
11
13001.0
21
67985.0
0
LINE
8
BLACK
10
13001.0
20
67985.0
11
12972.0
21
68023.0
0
LINE
8
BLACK
10
12972.0
20
68023.0
11
13001.0
21
68061.0
0
LINE
8
BLACK
10
13001.0
20
68061.0
11
13001.0
21
67985.0
0
LINE
8
BLACK
10
13230.0
20
68785.0
11
13630.0
21
68785.0
0
LINE
8
BLACK
10
13630.0
20
68785.0
11
13373.0
21
67985.0
0
LINE
8
BLACK
10
13886.0
20
67985.0
11
14001.0
21
67985.0
0
LINE
8
BLACK
10
14001.0
20
67985.0
11
14058.0
21
68023.0
0
LINE
8
BLACK
10
14058.0
20
68023.0
11
14086.0
21
68061.0
0
LINE
8
BLACK
10
14086.0
20
68061.0
11
14144.0
21
68176.0
0
LINE
8
BLACK
10
14144.0
20
68176.0
11
14172.0
21
68328.0
0
LINE
8
BLACK
10
14172.0
20
68328.0
11
14172.0
21
68633.0
0
LINE
8
BLACK
10
14172.0
20
68633.0
11
14144.0
21
68709.0
0
LINE
8
BLACK
10
14144.0
20
68709.0
11
14115.0
21
68747.0
0
LINE
8
BLACK
10
14115.0
20
68747.0
11
14058.0
21
68785.0
0
LINE
8
BLACK
10
14058.0
20
68785.0
11
13944.0
21
68785.0
0
LINE
8
BLACK
10
13944.0
20
68785.0
11
13886.0
21
68747.0
0
LINE
8
BLACK
10
13886.0
20
68747.0
11
13858.0
21
68709.0
0
LINE
8
BLACK
10
13858.0
20
68709.0
11
13829.0
21
68633.0
0
LINE
8
BLACK
10
13829.0
20
68633.0
11
13829.0
21
68442.0
0
LINE
8
BLACK
10
13829.0
20
68442.0
11
13858.0
21
68366.0
0
LINE
8
BLACK
10
13858.0
20
68366.0
11
13886.0
21
68328.0
0
LINE
8
BLACK
10
13886.0
20
68328.0
11
13944.0
21
68290.0
0
LINE
8
BLACK
10
13944.0
20
68290.0
11
14058.0
21
68290.0
0
LINE
8
BLACK
10
14058.0
20
68290.0
11
14115.0
21
68328.0
0
LINE
8
BLACK
10
14115.0
20
68328.0
11
14144.0
21
68366.0
0
LINE
8
BLACK
10
14144.0
20
68366.0
11
14172.0
21
68442.0
0
LINE
8
BLACK
10
14686.0
20
68519.0
11
14686.0
21
67985.0
0
LINE
8
BLACK
10
14543.0
20
68823.0
11
14400.0
21
68252.0
0
LINE
8
BLACK
10
14400.0
20
68252.0
11
14772.0
21
68252.0
0
LINE
8
BLACK
10
15457.0
20
67985.0
11
15457.0
21
68519.0
0
LINE
8
BLACK
10
15457.0
20
68442.0
11
15485.0
21
68480.0
0
LINE
8
BLACK
10
15485.0
20
68480.0
11
15543.0
21
68519.0
0
LINE
8
BLACK
10
15543.0
20
68519.0
11
15628.0
21
68519.0
0
LINE
8
BLACK
10
15628.0
20
68519.0
11
15685.0
21
68480.0
0
LINE
8
BLACK
10
15685.0
20
68480.0
11
15714.0
21
68404.0
0
LINE
8
BLACK
10
15714.0
20
68404.0
11
15714.0
21
67985.0
0
LINE
8
BLACK
10
15714.0
20
68404.0
11
15743.0
21
68480.0
0
LINE
8
BLACK
10
15743.0
20
68480.0
11
15800.0
21
68519.0
0
LINE
8
BLACK
10
15800.0
20
68519.0
11
15885.0
21
68519.0
0
LINE
8
BLACK
10
15885.0
20
68519.0
11
15943.0
21
68480.0
0
LINE
8
BLACK
10
15943.0
20
68480.0
11
15971.0
21
68404.0
0
LINE
8
BLACK
10
15971.0
20
68404.0
11
15971.0
21
67985.0
0
LINE
8
BLACK
10
16257.0
20
67985.0
11
16257.0
21
68519.0
0
LINE
8
BLACK
10
16257.0
20
68442.0
11
16285.0
21
68480.0
0
LINE
8
BLACK
10
16285.0
20
68480.0
11
16343.0
21
68519.0
0
LINE
8
BLACK
10
16343.0
20
68519.0
11
16428.0
21
68519.0
0
LINE
8
BLACK
10
16428.0
20
68519.0
11
16485.0
21
68480.0
0
LINE
8
BLACK
10
16485.0
20
68480.0
11
16514.0
21
68404.0
0
LINE
8
BLACK
10
16514.0
20
68404.0
11
16514.0
21
67985.0
0
LINE
8
BLACK
10
16514.0
20
68404.0
11
16543.0
21
68480.0
0
LINE
8
BLACK
10
16543.0
20
68480.0
11
16600.0
21
68519.0
0
LINE
8
BLACK
10
16600.0
20
68519.0
11
16685.0
21
68519.0
0
LINE
8
BLACK
10
16685.0
20
68519.0
11
16743.0
21
68480.0
0
LINE
8
BLACK
10
16743.0
20
68480.0
11
16771.0
21
68404.0
0
LINE
8
BLACK
10
16771.0
20
68404.0
11
16771.0
21
67985.0
0
LINE
8
BLACK
10
14050.0
20
67609.0
11
15150.0
21
67609.0
0
LINE
8
BLACK
10
14050.0
20
67729.0
11
15150.0
21
67729.0
0
ARC
8
BLACK
10
15150.0
20
67669.0
40
60.0
50
270.0
51
450.0
0
ARC
8
BLACK
10
14050.0
20
67669.0
40
60.0
50
90.0
51
270.0
0
LINE
8
BLACK
10
15210.0
20
53771.0
11
15210.0
21
68949.0
0
LINE
8
BLACK
10
15090.0
20
53771.0
11
15090.0
21
68949.0
0
ARC
8
BLACK
10
15150.0
20
68949.0
40
60.0
50
360.0
51
540.0
0
ARC
8
BLACK
10
15150.0
20
53771.0
40
60.0
50
180.0
51
360.0
0
LINE
8
BLACK
10
14110.0
20
53771.0
11
14110.0
21
68949.0
0
LINE
8
BLACK
10
13990.0
20
53771.0
11
13990.0
21
68949.0
0
ARC
8
BLACK
10
14050.0
20
68949.0
40
60.0
50
360.0
51
540.0
0
ARC
8
BLACK
10
14050.0
20
53771.0
40
60.0
50
180.0
51
360.0
0
LINE
8
BLACK
10
14078.0
20
67616.0
11
14520.0
21
67845.0
0
LINE
8
BLACK
10
14022.0
20
67723.0
11
14464.0
21
67952.0
0
ARC
8
BLACK
10
14492.0
20
67899.0
40
60.0
50
297.0
51
477.0
0
ARC
8
BLACK
10
14050.0
20
67669.0
40
60.0
50
117.0
51
297.0
0
LINE
8
BLACK
10
14022.0
20
67615.0
11
14464.0
21
67386.0
0
LINE
8
BLACK
10
14078.0
20
67722.0
11
14520.0
21
67493.0
0
ARC
8
BLACK
10
14492.0
20
67439.0
40
60.0
50
242.0
51
422.0
0
ARC
8
BLACK
10
14050.0
20
67669.0
40
60.0
50
62.0
51
242.0
0
LINE
8
BLACK
10
15177.0
20
67722.0
11
14735.0
21
67952.0
0
LINE
8
BLACK
10
15121.0
20
67616.0
11
14679.0
21
67846.0
0
ARC
8
BLACK
10
14707.0
20
67899.0
40
60.0
50
422.0
51
602.0
0
ARC
8
BLACK
10
15149.0
20
67669.0
40
60.0
50
242.0
51
422.0
0
LINE
8
BLACK
10
15121.0
20
67722.0
11
14679.0
21
67492.0
0
LINE
8
BLACK
10
15177.0
20
67616.0
11
14735.0
21
67386.0
0
ARC
8
BLACK
10
14707.0
20
67439.0
40
60.0
50
117.0
51
297.0
0
ARC
8
BLACK
10
15149.0
20
67669.0
40
60.0
50
-62.0
51
117.0
0
LINE
8
BLACK
10
31590.0
20
68094.0
11
31628.0
21
68065.0
0
LINE
8
BLACK
10
31628.0
20
68065.0
11
31666.0
21
68008.0
0
LINE
8
BLACK
10
31666.0
20
68008.0
11
31666.0
21
67865.0
0
LINE
8
BLACK
10
31666.0
20
67865.0
11
31628.0
21
67808.0
0
LINE
8
BLACK
10
31628.0
20
67808.0
11
31590.0
21
67779.0
0
LINE
8
BLACK
10
31590.0
20
67779.0
11
31514.0
21
67751.0
0
LINE
8
BLACK
10
31514.0
20
67751.0
11
31438.0
21
67751.0
0
LINE
8
BLACK
10
31438.0
20
67751.0
11
31323.0
21
67779.0
0
LINE
8
BLACK
10
31323.0
20
67779.0
11
30866.0
21
68122.0
0
LINE
8
BLACK
10
30866.0
20
68122.0
11
30866.0
21
67751.0
0
LINE
8
BLACK
10
30942.0
20
67494.0
11
30904.0
21
67466.0
0
LINE
8
BLACK
10
30904.0
20
67466.0
11
30866.0
21
67494.0
0
LINE
8
BLACK
10
30866.0
20
67494.0
11
30904.0
21
67523.0
0
LINE
8
BLACK
10
30904.0
20
67523.0
11
30942.0
21
67494.0
0
LINE
8
BLACK
10
30942.0
20
67494.0
11
30866.0
21
67494.0
0
LINE
8
BLACK
10
31666.0
20
66951.0
11
31666.0
21
67065.0
0
LINE
8
BLACK
10
31666.0
20
67065.0
11
31628.0
21
67122.0
0
LINE
8
BLACK
10
31628.0
20
67122.0
11
31590.0
21
67151.0
0
LINE
8
BLACK
10
31590.0
20
67151.0
11
31476.0
21
67208.0
0
LINE
8
BLACK
10
31476.0
20
67208.0
11
31323.0
21
67237.0
0
LINE
8
BLACK
10
31323.0
20
67237.0
11
31019.0
21
67237.0
0
LINE
8
BLACK
10
31019.0
20
67237.0
11
30942.0
21
67208.0
0
LINE
8
BLACK
10
30942.0
20
67208.0
11
30904.0
21
67180.0
0
LINE
8
BLACK
10
30904.0
20
67180.0
11
30866.0
21
67122.0
0
LINE
8
BLACK
10
30866.0
20
67122.0
11
30866.0
21
67008.0
0
LINE
8
BLACK
10
30866.0
20
67008.0
11
30904.0
21
66951.0
0
LINE
8
BLACK
10
30904.0
20
66951.0
11
30942.0
21
66922.0
0
LINE
8
BLACK
10
30942.0
20
66922.0
11
31019.0
21
66894.0
0
LINE
8
BLACK
10
31019.0
20
66894.0
11
31209.0
21
66894.0
0
LINE
8
BLACK
10
31209.0
20
66894.0
11
31285.0
21
66922.0
0
LINE
8
BLACK
10
31285.0
20
66922.0
11
31323.0
21
66951.0
0
LINE
8
BLACK
10
31323.0
20
66951.0
11
31361.0
21
67008.0
0
LINE
8
BLACK
10
31361.0
20
67008.0
11
31361.0
21
67122.0
0
LINE
8
BLACK
10
31361.0
20
67122.0
11
31323.0
21
67180.0
0
LINE
8
BLACK
10
31323.0
20
67180.0
11
31285.0
21
67208.0
0
LINE
8
BLACK
10
31285.0
20
67208.0
11
31209.0
21
67237.0
0
LINE
8
BLACK
10
31666.0
20
66380.0
11
31666.0
21
66494.0
0
LINE
8
BLACK
10
31666.0
20
66494.0
11
31628.0
21
66551.0
0
LINE
8
BLACK
10
31628.0
20
66551.0
11
31590.0
21
66580.0
0
LINE
8
BLACK
10
31590.0
20
66580.0
11
31476.0
21
66637.0
0
LINE
8
BLACK
10
31476.0
20
66637.0
11
31323.0
21
66666.0
0
LINE
8
BLACK
10
31323.0
20
66666.0
11
31019.0
21
66666.0
0
LINE
8
BLACK
10
31019.0
20
66666.0
11
30942.0
21
66637.0
0
LINE
8
BLACK
10
30942.0
20
66637.0
11
30904.0
21
66609.0
0
LINE
8
BLACK
10
30904.0
20
66609.0
11
30866.0
21
66551.0
0
LINE
8
BLACK
10
30866.0
20
66551.0
11
30866.0
21
66437.0
0
LINE
8
BLACK
10
30866.0
20
66437.0
11
30904.0
21
66380.0
0
LINE
8
BLACK
10
30904.0
20
66380.0
11
30942.0
21
66351.0
0
LINE
8
BLACK
10
30942.0
20
66351.0
11
31019.0
21
66323.0
0
LINE
8
BLACK
10
31019.0
20
66323.0
11
31209.0
21
66323.0
0
LINE
8
BLACK
10
31209.0
20
66323.0
11
31285.0
21
66351.0
0
LINE
8
BLACK
10
31285.0
20
66351.0
11
31323.0
21
66380.0
0
LINE
8
BLACK
10
31323.0
20
66380.0
11
31361.0
21
66437.0
0
LINE
8
BLACK
10
31361.0
20
66437.0
11
31361.0
21
66551.0
0
LINE
8
BLACK
10
31361.0
20
66551.0
11
31323.0
21
66609.0
0
LINE
8
BLACK
10
31323.0
20
66609.0
11
31285.0
21
66637.0
0
LINE
8
BLACK
10
31285.0
20
66637.0
11
31209.0
21
66666.0
0
LINE
8
BLACK
10
31666.0
20
66123.0
11
31666.0
21
65723.0
0
LINE
8
BLACK
10
31666.0
20
65723.0
11
30866.0
21
65980.0
0
LINE
8
BLACK
10
30866.0
20
65038.0
11
31400.0
21
65038.0
0
LINE
8
BLACK
10
31323.0
20
65038.0
11
31361.0
21
65010.0
0
LINE
8
BLACK
10
31361.0
20
65010.0
11
31400.0
21
64952.0
0
LINE
8
BLACK
10
31400.0
20
64952.0
11
31400.0
21
64867.0
0
LINE
8
BLACK
10
31400.0
20
64867.0
11
31361.0
21
64810.0
0
LINE
8
BLACK
10
31361.0
20
64810.0
11
31285.0
21
64781.0
0
LINE
8
BLACK
10
31285.0
20
64781.0
11
30866.0
21
64781.0
0
LINE
8
BLACK
10
31285.0
20
64781.0
11
31361.0
21
64752.0
0
LINE
8
BLACK
10
31361.0
20
64752.0
11
31400.0
21
64695.0
0
LINE
8
BLACK
10
31400.0
20
64695.0
11
31400.0
21
64610.0
0
LINE
8
BLACK
10
31400.0
20
64610.0
11
31361.0
21
64552.0
0
LINE
8
BLACK
10
31361.0
20
64552.0
11
31285.0
21
64524.0
0
LINE
8
BLACK
10
31285.0
20
64524.0
11
30866.0
21
64524.0
0
LINE
8
BLACK
10
30866.0
20
64238.0
11
31400.0
21
64238.0
0
LINE
8
BLACK
10
31323.0
20
64238.0
11
31361.0
21
64210.0
0
LINE
8
BLACK
10
31361.0
20
64210.0
11
31400.0
21
64152.0
0
LINE
8
BLACK
10
31400.0
20
64152.0
11
31400.0
21
64067.0
0
LINE
8
BLACK
10
31400.0
20
64067.0
11
31361.0
21
64010.0
0
LINE
8
BLACK
10
31361.0
20
64010.0
11
31285.0
21
63981.0
0
LINE
8
BLACK
10
31285.0
20
63981.0
11
30866.0
21
63981.0
0
LINE
8
BLACK
10
31285.0
20
63981.0
11
31361.0
21
63952.0
0
LINE
8
BLACK
10
31361.0
20
63952.0
11
31400.0
21
63895.0
0
LINE
8
BLACK
10
31400.0
20
63895.0
11
31400.0
21
63810.0
0
LINE
8
BLACK
10
31400.0
20
63810.0
11
31361.0
21
63752.0
0
LINE
8
BLACK
10
31361.0
20
63752.0
11
31285.0
21
63724.0
0
LINE
8
BLACK
10
31285.0
20
63724.0
11
30866.0
21
63724.0
0
LINE
8
BLACK
10
30610.0
20
65370.0
11
30610.0
21
66420.0
0
LINE
8
BLACK
10
30490.0
20
65370.0
11
30490.0
21
66420.0
0
ARC
8
BLACK
10
30550.0
20
66420.0
40
60.0
50
360.0
51
540.0
0
ARC
8
BLACK
10
30550.0
20
65370.0
40
60.0
50
180.0
51
360.0
0
LINE
8
BLACK
10
16700.0
20
65310.0
11
31830.0
21
65310.0
0
LINE
8
BLACK
10
16700.0
20
65430.0
11
31830.0
21
65430.0
0
ARC
8
BLACK
10
31830.0
20
65370.0
40
60.0
50
270.0
51
450.0
0
ARC
8
BLACK
10
16700.0
20
65370.0
40
60.0
50
90.0
51
270.0
0
LINE
8
BLACK
10
16700.0
20
66360.0
11
31830.0
21
66360.0
0
LINE
8
BLACK
10
16700.0
20
66480.0
11
31830.0
21
66480.0
0
ARC
8
BLACK
10
31830.0
20
66420.0
40
60.0
50
270.0
51
450.0
0
ARC
8
BLACK
10
16700.0
20
66420.0
40
60.0
50
90.0
51
270.0
0
LINE
8
BLACK
10
30497.0
20
66392.0
11
30727.0
21
65950.0
0
LINE
8
BLACK
10
30603.0
20
66448.0
11
30833.0
21
66006.0
0
ARC
8
BLACK
10
30780.0
20
65978.0
40
60.0
50
207.0
51
387.0
0
ARC
8
BLACK
10
30550.0
20
66420.0
40
60.0
50
27.0
51
207.0
0
LINE
8
BLACK
10
30496.0
20
66448.0
11
30267.0
21
66006.0
0
LINE
8
BLACK
10
30603.0
20
66392.0
11
30374.0
21
65950.0
0
ARC
8
BLACK
10
30320.0
20
65978.0
40
60.0
50
152.0
51
332.0
0
ARC
8
BLACK
10
30550.0
20
66420.0
40
60.0
50
-27.0
51
152.0
0
LINE
8
BLACK
10
30603.0
20
65343.0
11
30833.0
21
65785.0
0
LINE
8
BLACK
10
30497.0
20
65399.0
11
30727.0
21
65841.0
0
ARC
8
BLACK
10
30780.0
20
65813.0
40
60.0
50
332.0
51
512.0
0
ARC
8
BLACK
10
30550.0
20
65371.0
40
60.0
50
152.0
51
332.0
0
LINE
8
BLACK
10
30603.0
20
65399.0
11
30374.0
21
65841.0
0
LINE
8
BLACK
10
30496.0
20
65343.0
11
30267.0
21
65785.0
0
ARC
8
BLACK
10
30320.0
20
65813.0
40
60.0
50
387.0
51
567.0
0
ARC
8
BLACK
10
30550.0
20
65371.0
40
60.0
50
207.0
51
387.0
0
LINE
8
BLACK
10
26751.0
20
68909.0
11
26780.0
21
68947.0
0
LINE
8
BLACK
10
26780.0
20
68947.0
11
26837.0
21
68985.0
0
LINE
8
BLACK
10
26837.0
20
68985.0
11
26980.0
21
68985.0
0
LINE
8
BLACK
10
26980.0
20
68985.0
11
27037.0
21
68947.0
0
LINE
8
BLACK
10
27037.0
20
68947.0
11
27066.0
21
68909.0
0
LINE
8
BLACK
10
27066.0
20
68909.0
11
27094.0
21
68833.0
0
LINE
8
BLACK
10
27094.0
20
68833.0
11
27094.0
21
68757.0
0
LINE
8
BLACK
10
27094.0
20
68757.0
11
27066.0
21
68642.0
0
LINE
8
BLACK
10
27066.0
20
68642.0
11
26723.0
21
68185.0
0
LINE
8
BLACK
10
26723.0
20
68185.0
11
27094.0
21
68185.0
0
LINE
8
BLACK
10
27351.0
20
68261.0
11
27379.0
21
68223.0
0
LINE
8
BLACK
10
27379.0
20
68223.0
11
27351.0
21
68185.0
0
LINE
8
BLACK
10
27351.0
20
68185.0
11
27322.0
21
68223.0
0
LINE
8
BLACK
10
27322.0
20
68223.0
11
27351.0
21
68261.0
0
LINE
8
BLACK
10
27351.0
20
68261.0
11
27351.0
21
68185.0
0
LINE
8
BLACK
10
27580.0
20
68985.0
11
27980.0
21
68985.0
0
LINE
8
BLACK
10
27980.0
20
68985.0
11
27723.0
21
68185.0
0
LINE
8
BLACK
10
28236.0
20
68185.0
11
28351.0
21
68185.0
0
LINE
8
BLACK
10
28351.0
20
68185.0
11
28408.0
21
68223.0
0
LINE
8
BLACK
10
28408.0
20
68223.0
11
28436.0
21
68261.0
0
LINE
8
BLACK
10
28436.0
20
68261.0
11
28494.0
21
68376.0
0
LINE
8
BLACK
10
28494.0
20
68376.0
11
28522.0
21
68528.0
0
LINE
8
BLACK
10
28522.0
20
68528.0
11
28522.0
21
68833.0
0
LINE
8
BLACK
10
28522.0
20
68833.0
11
28494.0
21
68909.0
0
LINE
8
BLACK
10
28494.0
20
68909.0
11
28465.0
21
68947.0
0
LINE
8
BLACK
10
28465.0
20
68947.0
11
28408.0
21
68985.0
0
LINE
8
BLACK
10
28408.0
20
68985.0
11
28294.0
21
68985.0
0
LINE
8
BLACK
10
28294.0
20
68985.0
11
28236.0
21
68947.0
0
LINE
8
BLACK
10
28236.0
20
68947.0
11
28208.0
21
68909.0
0
LINE
8
BLACK
10
28208.0
20
68909.0
11
28179.0
21
68833.0
0
LINE
8
BLACK
10
28179.0
20
68833.0
11
28179.0
21
68642.0
0
LINE
8
BLACK
10
28179.0
20
68642.0
11
28208.0
21
68566.0
0
LINE
8
BLACK
10
28208.0
20
68566.0
11
28236.0
21
68528.0
0
LINE
8
BLACK
10
28236.0
20
68528.0
11
28294.0
21
68490.0
0
LINE
8
BLACK
10
28294.0
20
68490.0
11
28408.0
21
68490.0
0
LINE
8
BLACK
10
28408.0
20
68490.0
11
28465.0
21
68528.0
0
LINE
8
BLACK
10
28465.0
20
68528.0
11
28494.0
21
68566.0
0
LINE
8
BLACK
10
28494.0
20
68566.0
11
28522.0
21
68642.0
0
LINE
8
BLACK
10
29036.0
20
68719.0
11
29036.0
21
68185.0
0
LINE
8
BLACK
10
28893.0
20
69023.0
11
28750.0
21
68452.0
0
LINE
8
BLACK
10
28750.0
20
68452.0
11
29122.0
21
68452.0
0
LINE
8
BLACK
10
29807.0
20
68185.0
11
29807.0
21
68719.0
0
LINE
8
BLACK
10
29807.0
20
68642.0
11
29835.0
21
68680.0
0
LINE
8
BLACK
10
29835.0
20
68680.0
11
29893.0
21
68719.0
0
LINE
8
BLACK
10
29893.0
20
68719.0
11
29978.0
21
68719.0
0
LINE
8
BLACK
10
29978.0
20
68719.0
11
30035.0
21
68680.0
0
LINE
8
BLACK
10
30035.0
20
68680.0
11
30064.0
21
68604.0
0
LINE
8
BLACK
10
30064.0
20
68604.0
11
30064.0
21
68185.0
0
LINE
8
BLACK
10
30064.0
20
68604.0
11
30093.0
21
68680.0
0
LINE
8
BLACK
10
30093.0
20
68680.0
11
30150.0
21
68719.0
0
LINE
8
BLACK
10
30150.0
20
68719.0
11
30235.0
21
68719.0
0
LINE
8
BLACK
10
30235.0
20
68719.0
11
30293.0
21
68680.0
0
LINE
8
BLACK
10
30293.0
20
68680.0
11
30321.0
21
68604.0
0
LINE
8
BLACK
10
30321.0
20
68604.0
11
30321.0
21
68185.0
0
LINE
8
BLACK
10
30607.0
20
68185.0
11
30607.0
21
68719.0
0
LINE
8
BLACK
10
30607.0
20
68642.0
11
30635.0
21
68680.0
0
LINE
8
BLACK
10
30635.0
20
68680.0
11
30693.0
21
68719.0
0
LINE
8
BLACK
10
30693.0
20
68719.0
11
30778.0
21
68719.0
0
LINE
8
BLACK
10
30778.0
20
68719.0
11
30835.0
21
68680.0
0
LINE
8
BLACK
10
30835.0
20
68680.0
11
30864.0
21
68604.0
0
LINE
8
BLACK
10
30864.0
20
68604.0
11
30864.0
21
68185.0
0
LINE
8
BLACK
10
30864.0
20
68604.0
11
30893.0
21
68680.0
0
LINE
8
BLACK
10
30893.0
20
68680.0
11
30950.0
21
68719.0
0
LINE
8
BLACK
10
30950.0
20
68719.0
11
31035.0
21
68719.0
0
LINE
8
BLACK
10
31035.0
20
68719.0
11
31093.0
21
68680.0
0
LINE
8
BLACK
10
31093.0
20
68680.0
11
31121.0
21
68604.0
0
LINE
8
BLACK
10
31121.0
20
68604.0
11
31121.0
21
68185.0
0
LINE
8
BLACK
10
28400.0
20
67809.0
11
29500.0
21
67809.0
0
LINE
8
BLACK
10
28400.0
20
67929.0
11
29500.0
21
67929.0
0
ARC
8
BLACK
10
29500.0
20
67869.0
40
60.0
50
270.0
51
450.0
0
ARC
8
BLACK
10
28400.0
20
67869.0
40
60.0
50
90.0
51
270.0
0
LINE
8
BLACK
10
28460.0
20
53721.0
11
28460.0
21
69149.0
0
LINE
8
BLACK
10
28340.0
20
53721.0
11
28340.0
21
69149.0
0
ARC
8
BLACK
10
28400.0
20
69149.0
40
60.0
50
360.0
51
540.0
0
ARC
8
BLACK
10
28400.0
20
53721.0
40
60.0
50
180.0
51
360.0
0
LINE
8
BLACK
10
29560.0
20
53721.0
11
29560.0
21
69149.0
0
LINE
8
BLACK
10
29440.0
20
53721.0
11
29440.0
21
69149.0
0
ARC
8
BLACK
10
29500.0
20
69149.0
40
60.0
50
360.0
51
540.0
0
ARC
8
BLACK
10
29500.0
20
53721.0
40
60.0
50
180.0
51
360.0
0
LINE
8
BLACK
10
29471.0
20
67922.0
11
29029.0
21
67692.0
0
LINE
8
BLACK
10
29527.0
20
67816.0
11
29085.0
21
67586.0
0
ARC
8
BLACK
10
29057.0
20
67639.0
40
60.0
50
117.0
51
297.0
0
ARC
8
BLACK
10
29499.0
20
67869.0
40
60.0
50
-62.0
51
117.0
0
LINE
8
BLACK
10
29527.0
20
67922.0
11
29085.0
21
68152.0
0
LINE
8
BLACK
10
29471.0
20
67816.0
11
29029.0
21
68046.0
0
ARC
8
BLACK
10
29057.0
20
68099.0
40
60.0
50
422.0
51
602.0
0
ARC
8
BLACK
10
29499.0
20
67869.0
40
60.0
50
242.0
51
422.0
0
LINE
8
BLACK
10
28372.0
20
67815.0
11
28814.0
21
67586.0
0
LINE
8
BLACK
10
28428.0
20
67922.0
11
28870.0
21
67693.0
0
ARC
8
BLACK
10
28842.0
20
67639.0
40
60.0
50
242.0
51
422.0
0
ARC
8
BLACK
10
28400.0
20
67869.0
40
60.0
50
62.0
51
242.0
0
LINE
8
BLACK
10
28428.0
20
67816.0
11
28870.0
21
68045.0
0
LINE
8
BLACK
10
28372.0
20
67923.0
11
28814.0
21
68152.0
0
ARC
8
BLACK
10
28842.0
20
68099.0
40
60.0
50
297.0
51
477.0
0
ARC
8
BLACK
10
28400.0
20
67869.0
40
60.0
50
117.0
51
297.0
0
LINE
8
BLACK
10
-29253.0
20
162616.0
11
-29154.0
21
162517.0
0
LINE
8
BLACK
10
-29146.0
20
162723.0
11
-29047.0
21
162624.0
0
ARC
8
BLACK
10
-29101.0
20
162571.0
40
75.0
50
225.0
51
405.0
0
ARC
8
BLACK
10
-29199.0
20
162669.0
40
75.0
50
45.0
51
225.0
0
ENDSEC
0
EOF
