G04 (created by PCBNEW-RS274X (2011-07-08 BZR 3044)-stable) date Wed 09 Nov 2011 05:00:09 PM COT*
G01*
G70*
G90*
%MOIN*%
G04 Gerber Fmt 3.4, Leading zero omitted, Abs format*
%FSLAX34Y34*%
G04 APERTURE LIST*
%ADD10C,0.006000*%
%ADD11R,0.042900X0.079000*%
%ADD12R,0.144000X0.080000*%
%ADD13R,0.040000X0.080000*%
%ADD14R,0.078700X0.078700*%
%ADD15R,0.060000X0.040000*%
%ADD16R,0.094400X0.098400*%
%ADD17R,0.010000X0.100000*%
%ADD18R,0.100000X0.010000*%
%ADD19R,0.035000X0.055000*%
%ADD20R,0.055000X0.035000*%
%ADD21C,0.051100*%
%ADD22C,0.056000*%
%ADD23C,0.085900*%
%ADD24C,0.130000*%
%ADD25O,0.129900X0.171900*%
%ADD26R,0.070000X0.110000*%
%ADD27R,0.047200X0.047200*%
%ADD28R,0.025000X0.045000*%
%ADD29R,0.045000X0.025000*%
%ADD30R,0.086600X0.023600*%
G04 APERTURE END LIST*
G54D10*
G54D11*
X38500Y-17220D03*
X38500Y-13680D03*
G54D12*
X33300Y-19950D03*
G54D13*
X33300Y-17350D03*
X32400Y-17350D03*
X34200Y-17350D03*
G54D12*
X36350Y-19950D03*
G54D13*
X36350Y-17350D03*
X35450Y-17350D03*
X37250Y-17350D03*
G54D14*
X34750Y-15700D03*
X34750Y-13300D03*
X32250Y-15750D03*
X32250Y-13350D03*
G54D15*
X61150Y-20800D03*
X61150Y-20200D03*
G54D16*
X32258Y-23877D03*
X36075Y-23877D03*
X33321Y-21123D03*
G54D17*
X52523Y-14250D03*
X52326Y-14250D03*
X52129Y-14250D03*
X51932Y-14250D03*
X51735Y-14250D03*
X51538Y-14250D03*
X51341Y-14250D03*
X51144Y-14250D03*
X50947Y-14250D03*
X50750Y-14250D03*
X50553Y-14250D03*
X50356Y-14250D03*
X50159Y-14250D03*
X49962Y-14250D03*
X49765Y-14250D03*
X49568Y-14250D03*
X49371Y-14250D03*
X49174Y-14250D03*
X48977Y-14250D03*
X48780Y-14250D03*
X48583Y-14250D03*
X48386Y-14250D03*
X48189Y-14250D03*
X47992Y-14250D03*
X47795Y-14250D03*
X47598Y-14250D03*
X47401Y-14250D03*
X47204Y-14250D03*
X47007Y-14250D03*
X46810Y-14250D03*
X46613Y-14250D03*
X46416Y-14250D03*
X46219Y-14250D03*
X46022Y-14250D03*
X45825Y-14250D03*
X45628Y-14250D03*
X45431Y-14250D03*
X45234Y-14250D03*
X45037Y-14250D03*
X44840Y-14250D03*
X44643Y-14250D03*
X44446Y-14250D03*
X44249Y-14250D03*
X44052Y-14250D03*
X43855Y-14250D03*
X43658Y-14250D03*
X43461Y-14250D03*
X43264Y-14250D03*
X43067Y-14250D03*
X42870Y-14250D03*
X42673Y-14250D03*
X42476Y-14250D03*
G54D18*
X41370Y-15327D03*
X41370Y-15524D03*
X41370Y-15721D03*
X41370Y-15918D03*
X41370Y-16115D03*
X41370Y-16312D03*
X41370Y-16509D03*
X41370Y-16706D03*
X41370Y-16903D03*
X41370Y-17100D03*
X41370Y-17297D03*
X41370Y-17494D03*
X41370Y-17691D03*
X41370Y-17888D03*
X41370Y-18085D03*
X41370Y-18282D03*
X41370Y-18479D03*
X41370Y-18676D03*
X41370Y-18873D03*
X41370Y-19070D03*
X41370Y-19267D03*
X41370Y-19464D03*
X41370Y-19661D03*
X41370Y-19858D03*
X41370Y-20055D03*
X41370Y-20252D03*
X41370Y-20449D03*
X41370Y-20646D03*
X41370Y-20843D03*
X41370Y-21040D03*
X41370Y-21237D03*
X41370Y-21434D03*
X41370Y-21631D03*
X41370Y-21828D03*
X41370Y-22025D03*
X41370Y-22222D03*
X41370Y-22419D03*
X41370Y-22616D03*
X41370Y-22813D03*
X41370Y-23010D03*
X41370Y-23207D03*
X41370Y-23404D03*
X41370Y-23601D03*
X41370Y-23798D03*
X41370Y-23995D03*
X41370Y-24192D03*
X41370Y-24389D03*
X41370Y-24586D03*
X41370Y-24783D03*
X41370Y-24980D03*
X41370Y-25177D03*
X41370Y-25374D03*
G54D17*
X42477Y-26530D03*
X42674Y-26530D03*
X42871Y-26530D03*
X43068Y-26530D03*
X43265Y-26530D03*
X43462Y-26530D03*
X43659Y-26530D03*
X43856Y-26530D03*
X44053Y-26530D03*
X44250Y-26530D03*
X44447Y-26530D03*
X44644Y-26530D03*
X44841Y-26530D03*
X45038Y-26530D03*
X45235Y-26530D03*
X45432Y-26530D03*
X45629Y-26530D03*
X45826Y-26530D03*
X46023Y-26530D03*
X46220Y-26530D03*
X46417Y-26530D03*
X46614Y-26530D03*
X46811Y-26530D03*
X47008Y-26530D03*
X47205Y-26530D03*
X47402Y-26530D03*
X47599Y-26530D03*
X47796Y-26530D03*
X47993Y-26530D03*
X48190Y-26530D03*
X48387Y-26530D03*
X48584Y-26530D03*
X48781Y-26530D03*
X48978Y-26530D03*
X49175Y-26530D03*
X49372Y-26530D03*
X49569Y-26530D03*
X49766Y-26530D03*
X49963Y-26530D03*
X50160Y-26530D03*
X50357Y-26530D03*
X50554Y-26530D03*
X50751Y-26530D03*
X50948Y-26530D03*
X51145Y-26530D03*
X51342Y-26530D03*
X51539Y-26530D03*
X51736Y-26530D03*
X51933Y-26530D03*
X52130Y-26530D03*
X52327Y-26530D03*
X52524Y-26530D03*
G54D18*
X53650Y-25373D03*
X53650Y-25176D03*
X53650Y-24979D03*
X53650Y-24782D03*
X53650Y-24585D03*
X53650Y-24388D03*
X53650Y-24191D03*
X53650Y-23994D03*
X53650Y-23797D03*
X53650Y-23600D03*
X53650Y-23403D03*
X53650Y-23206D03*
X53650Y-23009D03*
X53650Y-22812D03*
X53650Y-22615D03*
X53650Y-22418D03*
X53650Y-22221D03*
X53650Y-22024D03*
X53650Y-21827D03*
X53650Y-21630D03*
X53650Y-21433D03*
X53650Y-21236D03*
X53650Y-21039D03*
X53650Y-20842D03*
X53650Y-20645D03*
X53650Y-20448D03*
X53650Y-20251D03*
X53650Y-20054D03*
X53650Y-19857D03*
X53650Y-19660D03*
X53650Y-19463D03*
X53650Y-19266D03*
X53650Y-19069D03*
X53650Y-18872D03*
X53650Y-18675D03*
X53650Y-18478D03*
X53650Y-18281D03*
X53650Y-18084D03*
X53650Y-17887D03*
X53650Y-17690D03*
X53650Y-17493D03*
X53650Y-17296D03*
X53650Y-17099D03*
X53650Y-16902D03*
X53650Y-16705D03*
X53650Y-16508D03*
X53650Y-16311D03*
X53650Y-16114D03*
X53650Y-15917D03*
X53650Y-15720D03*
X53650Y-15523D03*
X53650Y-15326D03*
G54D19*
X35575Y-12800D03*
X36325Y-12800D03*
G54D20*
X60350Y-15925D03*
X60350Y-15175D03*
G54D19*
X58225Y-13100D03*
X57475Y-13100D03*
G54D20*
X57950Y-15925D03*
X57950Y-15175D03*
G54D19*
X56375Y-09200D03*
X57125Y-09200D03*
G54D20*
X42250Y-07375D03*
X42250Y-08125D03*
G54D11*
X60950Y-12270D03*
X60950Y-08730D03*
G54D21*
X50900Y-10250D03*
X51400Y-09250D03*
X51900Y-10250D03*
X52400Y-09250D03*
X52900Y-10250D03*
X53400Y-09250D03*
X53900Y-10250D03*
X54400Y-09250D03*
G54D22*
X50499Y-12151D03*
X51499Y-12151D03*
X53801Y-12151D03*
X54801Y-12151D03*
G54D23*
X55750Y-07951D03*
X49550Y-07951D03*
G54D24*
X50400Y-06750D03*
X54900Y-06750D03*
G54D25*
X32319Y-10600D03*
X33500Y-12489D03*
X34681Y-10600D03*
G54D26*
X56600Y-32250D03*
X55200Y-32250D03*
G54D27*
X41600Y-14713D03*
X41600Y-13887D03*
X38300Y-18087D03*
X38300Y-18913D03*
X35863Y-33000D03*
X35037Y-33000D03*
X36237Y-13600D03*
X37063Y-13600D03*
X55737Y-27650D03*
X56563Y-27650D03*
X43750Y-33113D03*
X43750Y-32287D03*
X36713Y-25200D03*
X35887Y-25200D03*
G54D28*
X60550Y-21300D03*
X61150Y-21300D03*
X56300Y-11800D03*
X56900Y-11800D03*
X56300Y-12450D03*
X56900Y-12450D03*
X56150Y-15800D03*
X56750Y-15800D03*
X56150Y-15200D03*
X56750Y-15200D03*
G54D29*
X58900Y-13050D03*
X58900Y-12450D03*
G54D28*
X56200Y-14200D03*
X56800Y-14200D03*
X57400Y-12400D03*
X58000Y-12400D03*
X57700Y-11700D03*
X58300Y-11700D03*
G54D29*
X36250Y-15750D03*
X36250Y-16350D03*
X54850Y-26450D03*
X54850Y-27050D03*
G54D28*
X53550Y-27050D03*
X54150Y-27050D03*
G54D29*
X38100Y-12050D03*
X38100Y-12650D03*
X37450Y-12650D03*
X37450Y-12050D03*
G54D28*
X41950Y-06550D03*
X42550Y-06550D03*
X35200Y-24050D03*
X34600Y-24050D03*
X33850Y-24050D03*
X33250Y-24050D03*
X45750Y-30150D03*
X45150Y-30150D03*
G54D29*
X41200Y-27650D03*
X41200Y-28250D03*
X37400Y-28500D03*
X37400Y-29100D03*
G54D28*
X40450Y-32800D03*
X41050Y-32800D03*
G54D29*
X35350Y-30050D03*
X35350Y-29450D03*
X40600Y-27100D03*
X40600Y-27700D03*
X35350Y-28300D03*
X35350Y-28900D03*
G54D28*
X37200Y-32050D03*
X37800Y-32050D03*
X43100Y-31250D03*
X42500Y-31250D03*
G54D29*
X35950Y-31950D03*
X35950Y-31350D03*
G54D28*
X37200Y-31350D03*
X37800Y-31350D03*
G54D29*
X36550Y-31100D03*
X36550Y-30500D03*
X36550Y-28500D03*
X36550Y-29100D03*
X38950Y-27750D03*
X38950Y-27150D03*
G54D28*
X40800Y-26600D03*
X40200Y-26600D03*
X38850Y-31350D03*
X38250Y-31350D03*
G54D29*
X41700Y-28900D03*
X41700Y-29500D03*
X35050Y-27600D03*
X35050Y-27000D03*
G54D28*
X35100Y-19950D03*
X34500Y-19950D03*
G54D29*
X33000Y-26150D03*
X33000Y-26750D03*
G54D28*
X36900Y-23850D03*
X37500Y-23850D03*
X34450Y-21050D03*
X35050Y-21050D03*
G54D29*
X34950Y-32050D03*
X34950Y-31450D03*
G54D28*
X36050Y-27200D03*
X36650Y-27200D03*
G54D29*
X43100Y-32500D03*
X43100Y-33100D03*
X43450Y-12650D03*
X43450Y-12050D03*
X56000Y-19450D03*
X56000Y-18850D03*
X58800Y-19750D03*
X58800Y-20350D03*
X44450Y-10850D03*
X44450Y-10250D03*
G54D28*
X53550Y-26200D03*
X54150Y-26200D03*
X57600Y-20700D03*
X57000Y-20700D03*
G54D29*
X34250Y-33050D03*
X34250Y-32450D03*
G54D30*
X57082Y-18344D03*
X57082Y-18848D03*
X57082Y-19352D03*
X57082Y-19856D03*
X61019Y-19848D03*
X61019Y-19356D03*
X61019Y-18844D03*
X61019Y-18352D03*
G54D28*
X48700Y-35450D03*
X48100Y-35450D03*
X51500Y-35450D03*
X52100Y-35450D03*
X49750Y-35450D03*
X50350Y-35450D03*
X37050Y-26300D03*
X37650Y-26300D03*
G54D29*
X53100Y-33600D03*
X53100Y-34200D03*
X52150Y-33600D03*
X52150Y-34200D03*
G54D27*
X36563Y-26450D03*
X35737Y-26450D03*
X53100Y-32663D03*
X53100Y-31837D03*
X52150Y-32613D03*
X52150Y-31787D03*
G54D11*
X47600Y-35270D03*
X47600Y-31730D03*
X50900Y-35320D03*
X50900Y-31780D03*
X49250Y-35320D03*
X49250Y-31780D03*
M02*
