M48
;DRILL file {PCBnew (2011-07-08 BZR 3044)-stable} date Thu 18 Aug 2011 06:59:17 PM COT
;FORMAT={2:4/ absolute / inch / keep zeros}
FMAT,2
INCH,TZ
T1C0.012
T2C0.032
T3C0.035
T4C0.039
T5C0.039
T6C0.040
T7C0.063
T8C0.063
T9C0.091
T10C0.100
T11C0.118
T12C0.120
T13C0.130
%
G90
G05
M72
T1
X008500Y-026575
X008550Y-021975
X008625Y-020150
X008675Y-018675
X008725Y-022400
X008975Y-031525
X009050Y-033500
X009050Y-056600
X009100Y-022175
X009125Y-028750
X009225Y-019925
X009225Y-021475
X009300Y-039775
X009325Y-018550
X009350Y-032300
X009375Y-049275
X009425Y-034850
X009475Y-025775
X009475Y-046850
X009500Y-022475
X009525Y-020425
X009625Y-059650
X009675Y-058150
X009700Y-035500
X009725Y-017025
X009750Y-021550
X009850Y-024925
X009850Y-034450
X009875Y-043550
X010000Y-020400
X010025Y-017450
X010050Y-022450
X010150Y-052150
X010300Y-025575
X010300Y-035500
X010350Y-026900
X010425Y-048200
X010475Y-038750
X010550Y-024750
X010750Y-021950
X010875Y-021000
X010900Y-044825
X010950Y-022900
X011025Y-029625
X011050Y-028650
X011125Y-053800
X011200Y-025650
X011400Y-044600
X011900Y-043000
X011900Y-044050
X011900Y-044450
X012300Y-021950
X012325Y-054650
X012500Y-032350
X012825Y-019875
X012925Y-018400
X013050Y-054600
X013075Y-054650
X013375Y-012375
X013375Y-059125
X013450Y-030650
X013600Y-054600
X013675Y-019075
X013700Y-018450
X013800Y-031850
X013850Y-011925
X014200Y-053700
X014650Y-008700
X014750Y-011900
X014750Y-012750
X014750Y-015250
X014750Y-030250
X014850Y-017700
X015050Y-059000
X015075Y-019075
X015075Y-053900
X015100Y-013550
X015100Y-026050
X015150Y-046050
X015200Y-046650
X015250Y-019900
X015350Y-020350
X015600Y-030200
X015700Y-041600
X015700Y-052100
X015750Y-034700
X015750Y-036000
X015750Y-042950
X015750Y-043350
X015750Y-043750
X015750Y-044150
X015750Y-044550
X015750Y-046200
X015750Y-047500
X015800Y-035500
X015850Y-045675
X016075Y-054250
X016100Y-016950
X016100Y-035050
X016100Y-053525
X016150Y-034350
X016200Y-018000
X016250Y-015050
X016350Y-016150
X016400Y-045350
X016500Y-028500
X016500Y-048600
X016550Y-013850
X016550Y-016650
X016650Y-019500
X016650Y-044050
X016650Y-044450
X016700Y-034450
X016700Y-045050
X016800Y-034050
X016950Y-022150
X017100Y-015600
X017100Y-044450
X017300Y-049100
X017350Y-034100
X017500Y-044650
X017550Y-015750
X017550Y-028250
X017550Y-028900
X017600Y-021000
X017600Y-047550
X017850Y-018400
X017950Y-048550
X018000Y-023000
X018000Y-033700
X018250Y-044650
X018250Y-048250
X018300Y-020250
X018300Y-040250
X018300Y-045100
X018550Y-030450
X018550Y-039500
X018650Y-044850
X018700Y-048250
X018750Y-029400
X018800Y-010800
X018850Y-030000
X018900Y-038550
X018950Y-016850
X019050Y-017250
X019050Y-045000
X019100Y-036700
X019100Y-047450
X019325Y-019175
X019400Y-027800
X019450Y-026500
X019450Y-052400
X019500Y-046350
X019650Y-012550
X019750Y-018950
X019800Y-041250
X019850Y-013950
X019850Y-049400
X019900Y-029350
X019925Y-016825
X019950Y-014600
X020050Y-020200
X020150Y-039600
X020250Y-009800
X020250Y-028450
X020250Y-029600
X020300Y-014300
X020400Y-030300
X020400Y-048800
X020525Y-017750
X020550Y-016850
X020675Y-016000
X020700Y-040800
X020750Y-015100
X020750Y-041250
X020850Y-011600
X020850Y-027050
X020900Y-013875
X020950Y-014350
X021000Y-016850
X021100Y-046350
X021250Y-011650
X021275Y-036925
X021300Y-058000
X021350Y-017950
X021400Y-013950
X021400Y-016800
X021550Y-041350
X021550Y-055650
X021700Y-041800
X021800Y-058000
X021950Y-013325
X021950Y-048800
X022050Y-055650
X022300Y-016000
X022350Y-027150
X022400Y-013000
X022400Y-041350
X022450Y-014200
X022550Y-012600
X022700Y-017550
X022700Y-041600
X022800Y-052100
X023000Y-008600
X023000Y-041850
X023050Y-056650
X023050Y-057150
X023100Y-020150
X023250Y-014600
X023450Y-041850
X023500Y-026200
X023700Y-024050
X023700Y-024700
X023750Y-014250
X023900Y-055700
X023950Y-012850
X023950Y-042400
X024000Y-025600
X024025Y-010325
X024050Y-048750
X024100Y-013700
X024150Y-018600
X024150Y-039850
X024250Y-046900
X024300Y-023300
X024300Y-038500
X024400Y-016450
X024400Y-055700
X024500Y-023700
X024600Y-038200
X024625Y-046200
X024700Y-024800
X024700Y-025200
X024700Y-026200
X024750Y-016000
X024900Y-037900
X024975Y-018025
X025200Y-019150
X025200Y-037600
X025350Y-024500
X025350Y-047200
X025400Y-037200
X025500Y-023700
X025500Y-026025
X025800Y-037300
X026200Y-049450
X026250Y-020300
X026300Y-028600
X026550Y-024500
X026550Y-027050
X026600Y-049550
X026700Y-054950
X026950Y-049850
X027300Y-050050
X027500Y-040000
X027500Y-045000
X027600Y-009550
X027600Y-036700
X027650Y-050250
X027800Y-048150
X027800Y-053950
X027900Y-037000
X027900Y-037600
X027900Y-038200
X028050Y-050400
X028100Y-024450
X028100Y-048450
X028150Y-035650
X028200Y-037900
X028300Y-037300
X028300Y-038500
X028400Y-050600
X028450Y-022950
X028450Y-048800
X028550Y-035700
X028550Y-036350
X028700Y-055000
X028700Y-056300
X028700Y-058950
X028950Y-047200
X029050Y-036400
X029100Y-054050
X029125Y-018175
X029150Y-057750
X029200Y-056700
X029200Y-056900
X029350Y-032800
X029400Y-015750
X029400Y-035150
X029650Y-036000
X029650Y-047050
X029800Y-035400
X029800Y-042400
X029850Y-039500
X029900Y-011800
X029900Y-020100
X029900Y-033600
X030050Y-015100
X030300Y-027850
X030300Y-028500
X030300Y-030950
X030350Y-025625
X030350Y-028900
X030400Y-024100
X030400Y-042900
X030400Y-043300
X030400Y-047900
X030500Y-021900
X030500Y-031350
X030500Y-055100
X030700Y-046300
X030750Y-012100
X030750Y-026400
X030750Y-027400
X030750Y-027900
X030800Y-022400
X030800Y-043450
X030825Y-018200
X030850Y-023100
X031050Y-029550
X031100Y-027000
X031150Y-024750
X031150Y-031850
X031200Y-046050
X031250Y-032250
X031250Y-043450
X031250Y-043850
X031400Y-049100
X031500Y-023100
X031550Y-024450
X031550Y-029350
X031650Y-045900
X031700Y-043850
X031700Y-044250
X032000Y-049650
X032050Y-026800
X032050Y-031550
X032100Y-023100
X032100Y-039150
X032100Y-044400
X032200Y-015900
X032200Y-035700
X032200Y-045700
X032250Y-048050
X032500Y-016600
X032550Y-044450
X032550Y-057850
X032600Y-015250
X032650Y-031100
X032700Y-024150
X032800Y-022000
X032800Y-023300
X032900Y-026350
X032900Y-026850
X032900Y-048600
X033000Y-022650
X033000Y-044450
X033100Y-015350
X033200Y-048200
X033250Y-045050
X033300Y-022950
X033300Y-026200
X033400Y-018000
X033450Y-044450
X033600Y-022000
X033650Y-012800
X033650Y-023850
X033800Y-054900
X033950Y-021800
X034000Y-011850
X034000Y-046050
X034150Y-049200
X034350Y-020150
X034450Y-041850
X034525Y-044525
X034600Y-022400
X034700Y-022000
X034750Y-020050
X034800Y-054450
X034850Y-032450
X034900Y-055250
X034950Y-036550
X035125Y-038350
X035150Y-036900
X035150Y-041850
X035150Y-048700
X035200Y-012200
X035300Y-015700
X035350Y-015250
X035350Y-037250
X035450Y-017700
X035450Y-041600
X035500Y-037650
X035525Y-014325
X035550Y-031150
X035550Y-054650
X035600Y-013100
X035600Y-018100
X035650Y-038050
X035750Y-038450
X035750Y-041850
X035750Y-049200
X035775Y-039450
X035800Y-018450
X035850Y-016700
X035900Y-022400
X035950Y-019975
X035950Y-036150
X035950Y-054650
X036000Y-022000
X036000Y-031550
X036050Y-018000
X036150Y-041600
X036175Y-011750
X036200Y-059750
X036350Y-041950
X036550Y-044700
X036700Y-022850
X036700Y-048250
X036750Y-036200
X036850Y-032400
X037050Y-041900
X037200Y-044450
X037250Y-011600
X037250Y-012200
X037250Y-054300
X037350Y-041600
X037450Y-009900
X037600Y-017800
X037900Y-022400
X037900Y-028950
X038000Y-011950
X038050Y-026050
X038050Y-058300
X038200Y-018300
X038200Y-022000
X038200Y-041650
X038250Y-032400
X038300Y-017700
X038450Y-023550
X038450Y-026350
X038450Y-058650
X038500Y-012300
X038500Y-046650
X038600Y-031550
X038750Y-037750
X038800Y-018700
X038800Y-059100
X038900Y-017700
X038900Y-024400
X038900Y-025750
X039000Y-032350
X039000Y-048650
X039050Y-031900
X039050Y-038050
X039100Y-019900
X039250Y-037050
X039350Y-029550
X039400Y-022400
X039450Y-019650
X039500Y-014700
X039500Y-031650
X039500Y-054900
X039700Y-017800
X039750Y-028800
X039750Y-047400
X039800Y-022000
X039800Y-031200
X039900Y-036700
X039900Y-037550
X039900Y-057300
X040000Y-031600
X040050Y-025650
X040050Y-036050
X040100Y-018350
X040100Y-019600
X040300Y-023550
X040300Y-037450
X040300Y-044450
X040350Y-021800
X040350Y-022900
X040400Y-018050
X040400Y-029100
X040400Y-029550
X040400Y-054400
X040550Y-026200
X040550Y-027700
X040550Y-028350
X040550Y-059000
X040600Y-056400
X040701Y-023849
X040750Y-021750
X040750Y-049650
X040800Y-018450
X040800Y-026900
X040800Y-027400
X040850Y-025600
X040900Y-024450
X040900Y-026500
X040900Y-031150
X040900Y-044750
X041150Y-033150
X041250Y-017950
X041350Y-019450
X041350Y-044750
X041350Y-058000
X041400Y-058525
X041500Y-053550
X041650Y-041450
X041700Y-037050
X041750Y-017700
X041750Y-032550
X041800Y-015500
X041800Y-048300
X041850Y-021150
X042250Y-040100
X042250Y-040750
X042400Y-016100
X042450Y-019800
X042450Y-049400
X042500Y-037700
X042600Y-023750
X042600Y-026100
X042650Y-047200
X042700Y-031850
X042750Y-031250
X042800Y-022150
X042800Y-051800
X042950Y-022950
X042950Y-042450
X043000Y-046350
X043050Y-029450
X043100Y-031950
X043100Y-052100
X043200Y-015500
X043350Y-046150
X043350Y-048750
X043400Y-025750
X043400Y-052400
X043700Y-047350
X043700Y-052700
X043750Y-042450
X043800Y-045700
X043850Y-014300
X043850Y-046150
X044000Y-053000
X044100Y-018800
X044150Y-014700
X044200Y-042150
X044250Y-045700
X044350Y-059000
X044400Y-056800
X044550Y-044600
X044600Y-044200
X044850Y-020850
X044900Y-048400
X045000Y-017700
X045050Y-057000
X045050Y-058050
X045450Y-047050
X045550Y-032900
X045650Y-026300
X045650Y-051950
X045700Y-049400
X045850Y-036400
X045900Y-032400
X046000Y-031300
X046100Y-016025
X046300Y-025800
X046400Y-031450
X046450Y-020200
X046600Y-031850
X046650Y-021150
X046700Y-026300
X046900Y-025350
X046900Y-037750
X046950Y-028450
X047000Y-031800
X047200Y-015000
X047200Y-016400
X047300Y-025550
X047300Y-032600
X047400Y-015900
X047400Y-031950
X047550Y-026500
X047700Y-025100
X047700Y-032550
X047750Y-025600
X047950Y-017950
X047950Y-022800
X047950Y-058400
X048000Y-031900
X048050Y-032850
X048150Y-021300
X048250Y-026200
X048250Y-047300
X048300Y-022600
X048300Y-040250
X048350Y-024600
X048500Y-043850
X048550Y-057300
X048650Y-014900
X048650Y-021500
X048700Y-022600
X048900Y-021800
X048900Y-056450
X049100Y-017950
X049250Y-047450
X049350Y-021250
X049500Y-018150
X049550Y-020150
X049550Y-020550
X049600Y-021550
X049600Y-024150
X049700Y-014350
X049750Y-056200
X049850Y-012750
X049900Y-046600
X050200Y-024600
X050300Y-018050
X050300Y-038950
X050300Y-042300
X050350Y-023150
X050350Y-050150
X050500Y-050600
X050650Y-024550
X050750Y-020200
X050750Y-021300
X050800Y-020900
X051000Y-012000
X051000Y-032750
X051050Y-022200
X051100Y-033675
X051400Y-009175
X051550Y-040150
X051650Y-036350
X051850Y-019200
X051850Y-039800
X051950Y-023750
X052325Y-028850
X052375Y-011425
X052400Y-022125
X052450Y-038750
X052500Y-039950
X052500Y-050750
X052850Y-023050
X053050Y-028800
X053100Y-017550
X053100Y-018800
X053150Y-040600
X053200Y-012100
X053350Y-041750
X053350Y-050950
X053450Y-026475
X053500Y-039850
X053700Y-037500
X053800Y-040600
X053850Y-040150
X053850Y-052050
X053950Y-008650
X053950Y-031975
X054052Y-041950
X054100Y-038475
X054150Y-036500
X054150Y-042350
X054650Y-043900
X054750Y-042050
X055000Y-008600
X055000Y-012400
X055000Y-043700
X055100Y-027400
X055150Y-033250
X055200Y-028900
X055500Y-027500
X055625Y-023150
X055700Y-027100
X055850Y-060150
X055900Y-031650
X056000Y-008600
X056000Y-012350
X056100Y-042000
X056250Y-024850
X056250Y-037950
X056300Y-021550
X056300Y-031500
X056350Y-044300
X056350Y-046450
X056400Y-036650
X056550Y-026000
X056550Y-032900
X056650Y-046700
X056700Y-027600
X056700Y-037000
X056700Y-042600
X056750Y-008300
X056750Y-031300
X056800Y-022450
X056800Y-048900
X056850Y-017700
X056900Y-015850
X056900Y-019100
X056950Y-044050
X056950Y-046150
X056950Y-053550
X057050Y-008550
X057050Y-024450
X057100Y-045400
X057150Y-047250
X057200Y-057200
X057250Y-048800
X057250Y-050150
X057270Y-042880
X057300Y-043650
X057350Y-044050
X057375Y-026525
X057450Y-022600
X057500Y-047550
X057600Y-030850
X057650Y-050500
X057750Y-027200
X057800Y-024100
X057850Y-043250
X057850Y-049350
X057900Y-025100
X057900Y-044050
X057950Y-026800
X057950Y-050200
X058000Y-046750
X058100Y-008600
X058150Y-030800
X058225Y-017725
X058300Y-021850
X058350Y-050000
X058500Y-054000
X058500Y-056600
X058550Y-052300
X058650Y-047200
X058700Y-043600
X058750Y-026350
X058775Y-021000
X058800Y-033250
X058800Y-050800
X059000Y-039900
X059040Y-043240
X059050Y-013650
X059050Y-047500
X059100Y-036400
X059150Y-008650
X059200Y-046900
X059200Y-056550
X059300Y-019800
X059300Y-021550
X059300Y-045450
X059450Y-039950
X059650Y-047200
X059750Y-042600
X059800Y-038400
X059800Y-058350
X059950Y-024800
X059950Y-043250
X060000Y-048900
X060250Y-040100
X060250Y-047500
X060450Y-032850
X060450Y-043800
X060450Y-046400
X060500Y-049150
X060550Y-012150
X060550Y-047200
X060575Y-026500
X060650Y-031100
X060750Y-030300
X060750Y-044950
X060750Y-045900
X060750Y-046800
X060800Y-043350
X060850Y-010400
X060850Y-010800
X060850Y-011200
X060900Y-012450
X061000Y-041500
X061100Y-042950
X061100Y-045400
X061125Y-009225
X061125Y-019125
X061150Y-035150
X061200Y-036600
X061300Y-038800
X061400Y-035550
X061400Y-041800
X061400Y-046700
X061500Y-056750
X061600Y-039300
X061675Y-031800
X061725Y-009725
X061750Y-040450
X061850Y-048550
X061850Y-058300
X061975Y-050925
X062000Y-039100
X062050Y-042300
X062075Y-027675
X062300Y-032925
X062300Y-037250
X062300Y-047850
X062450Y-043100
X062625Y-014975
X062700Y-038300
X062700Y-046250
X062700Y-047400
X062750Y-017400
X062750Y-049650
X062750Y-060025
X062775Y-015975
X062850Y-008725
X063100Y-016900
X063100Y-030250
X063300Y-014550
X063300Y-046000
X063550Y-046400
X063550Y-047400
X063650Y-043450
X063650Y-051000
X063700Y-045800
X063700Y-049950
X063750Y-013600
X063750Y-037650
X063750Y-042250
X063930Y-014300
X063950Y-043800
X064000Y-038100
X064000Y-047000
X064000Y-047400
X064050Y-013250
X064150Y-009900
X064150Y-012650
X064200Y-011450
X064200Y-011850
X064200Y-012250
X064250Y-042400
X064300Y-040700
X064600Y-043850
X064700Y-055450
X064750Y-016150
X064750Y-047500
X064800Y-010350
X064800Y-044200
X064800Y-049600
X065050Y-048550
X065100Y-044500
X065250Y-047850
X065250Y-049200
X065350Y-055050
X065350Y-056200
X065400Y-043700
X065450Y-052950
X065700Y-014400
X065700Y-029550
X065700Y-036850
X065800Y-010850
X065800Y-013650
X065850Y-041450
X065900Y-009550
X065900Y-043700
X065950Y-021650
X065950Y-055500
X066000Y-043150
X066050Y-025150
X066050Y-040700
X066150Y-032150
X066200Y-019350
X066250Y-016750
X066250Y-048700
X066300Y-022400
X066400Y-011800
X066400Y-055850
X066500Y-023300
X066500Y-042650
X066800Y-045550
X066850Y-047150
X066950Y-015550
X066950Y-016250
X067050Y-045150
X067050Y-045850
X067150Y-018900
X067200Y-019450
X067350Y-023850
X067400Y-013975
X067400Y-042950
X067500Y-044350
X067600Y-043500
X067700Y-035150
X067750Y-019450
X067850Y-043950
X067850Y-047550
X068150Y-031500
X068200Y-013800
X068200Y-018450
X068450Y-016050
X068450Y-018000
X069100Y-032450
X069150Y-034650
X069250Y-017750
X069350Y-010500
X069500Y-033450
X069650Y-020800
X069800Y-023850
X069800Y-032300
X069900Y-036650
X070200Y-045500
X071000Y-048000
X071375Y-049175
X071525Y-024550
X071600Y-025550
X071825Y-046200
X072150Y-031975
X072300Y-045900
X072700Y-047700
X072900Y-043850
X072925Y-033025
X073025Y-038125
X073050Y-037350
X073100Y-054450
X073225Y-032125
X073275Y-039200
X073600Y-045450
X073650Y-045000
X073650Y-046800
X073750Y-046400
X074025Y-047650
X074025Y-059275
X074050Y-056500
X074750Y-044900
T2
X010763Y-039800
X010763Y-040800
X011550Y-039800
X011550Y-040800
X011650Y-052900
X012650Y-052900
X014850Y-051400
X014850Y-052400
X031500Y-018000
X032500Y-018000
X036350Y-049600
X037350Y-049600
X044631Y-035227
X045631Y-035227
X046450Y-039900
X046631Y-035227
X047631Y-035227
X048631Y-035227
X049631Y-035227
X050631Y-035227
X051631Y-035227
X052631Y-035227
X053631Y-035227
X054631Y-035227
X055631Y-035227
X056631Y-035227
X057631Y-035227
X058631Y-035227
X059200Y-053500
X059200Y-054500
X059200Y-055500
X059630Y-035227
X062200Y-053500
X062200Y-054500
X062200Y-055500
X070300Y-023050
X070300Y-024050
T3
X045250Y-013400
X045750Y-012400
X046250Y-013400
X046750Y-012400
X047250Y-013400
X047750Y-012400
X048250Y-013400
X048750Y-012400
X067396Y-057350
X067846Y-056350
X067846Y-058350
X068296Y-057350
X068746Y-056350
X068746Y-058350
X069196Y-057350
X069645Y-056350
X069645Y-058350
X070095Y-057350
X070545Y-056350
X070545Y-058350
X070995Y-057350
X071445Y-056350
X071445Y-058350
X072045Y-010412
X072045Y-013088
X073029Y-010412
X073029Y-011239
X073029Y-012261
X073029Y-013088
T4
X026100Y-010100
X026100Y-011100
X027100Y-010100
X027100Y-011100
X028100Y-010100
X028100Y-011100
X029100Y-010100
X029100Y-011100
X030100Y-010100
X030100Y-011100
X031100Y-010100
X031100Y-011100
X031400Y-055450
X031400Y-056450
X031450Y-059250
X032100Y-010100
X032100Y-011100
X032400Y-055450
X032400Y-056450
X032450Y-059250
X033100Y-010100
X033100Y-011100
X033400Y-055450
X033400Y-056450
X033450Y-059250
X034100Y-010100
X034100Y-011100
X034400Y-055450
X034400Y-056450
X035100Y-010100
X035100Y-011100
X035400Y-055450
X035400Y-056450
X036400Y-055450
X036400Y-056450
X037400Y-055450
X037400Y-056450
X044849Y-015301
X045849Y-015301
X048151Y-015301
X049151Y-015301
T5
X011900Y-045300
X011900Y-046300
X011900Y-047100
X011900Y-048100
T6
X009800Y-050650
X010800Y-050650
X011700Y-013750
X011700Y-014850
X011700Y-015900
X011700Y-017000
X011700Y-027050
X011700Y-028150
X011700Y-029200
X011700Y-030300
X012700Y-013200
X012700Y-014300
X012700Y-015400
X012700Y-016450
X012700Y-017550
X012700Y-026500
X012700Y-027600
X012700Y-028700
X012700Y-029750
X012700Y-030850
X014050Y-021500
X014050Y-022500
X014775Y-054750
X014775Y-055750
X015050Y-021500
X015050Y-022500
X015600Y-012300
X018600Y-012300
X020600Y-021500
X020600Y-022500
X021600Y-052450
X021600Y-053450
X021950Y-028650
X021950Y-029650
X023100Y-010700
X023100Y-011700
X026300Y-013400
X026300Y-015200
X026300Y-016900
X027300Y-013400
X027300Y-015200
X027300Y-016900
X028300Y-013400
X028300Y-015200
X028300Y-016900
X036400Y-015700
X036400Y-016700
X037400Y-015700
X037400Y-016700
X038000Y-009500
X038000Y-010500
X038000Y-012800
X038000Y-013800
X038400Y-015700
X038400Y-016700
X039000Y-009500
X039000Y-010500
X039000Y-012800
X039000Y-013800
X039400Y-015700
X039400Y-016700
X040000Y-009500
X040000Y-010500
X040000Y-012800
X040000Y-013800
X040400Y-015700
X040400Y-016700
X041000Y-009500
X041000Y-010500
X041000Y-012800
X041000Y-013800
X042000Y-009500
X042000Y-010500
X042000Y-012800
X042000Y-013800
X042350Y-054900
X042350Y-055900
X042350Y-056900
X042350Y-057900
X042350Y-058900
X043350Y-054900
X043350Y-055900
X043350Y-056900
X043350Y-057900
X043350Y-058900
X044800Y-029450
X045800Y-029450
X046450Y-040900
X046450Y-041900
X046450Y-042900
X046450Y-043900
X046450Y-044900
X046450Y-045900
X046450Y-046900
X046450Y-047900
X046450Y-048900
X046450Y-049900
X046450Y-050900
X046450Y-051900
X046450Y-052900
X046450Y-053900
X046450Y-054900
X046450Y-055900
X046450Y-056900
X046450Y-057900
X046450Y-058900
X047450Y-039900
X047450Y-040900
X047450Y-041900
X047450Y-042900
X047450Y-043900
X047450Y-044900
X047450Y-045900
X047450Y-046900
X047450Y-047900
X047450Y-048900
X047450Y-049900
X047450Y-050900
X047450Y-051900
X047450Y-052900
X047450Y-053900
X047450Y-054900
X047450Y-055900
X047450Y-056900
X047450Y-057900
X047450Y-058900
X051050Y-053200
X051050Y-054200
X051050Y-055200
X051150Y-056800
X052150Y-056800
X052550Y-024500
X052550Y-025500
X052850Y-053200
X052850Y-054200
X052850Y-055200
X053150Y-056800
X054150Y-056800
X054600Y-053200
X054600Y-054200
X054600Y-055200
X055150Y-056800
X056150Y-056800
X056200Y-053150
X056200Y-054150
X056200Y-055150
X059000Y-027600
X059000Y-028600
X059000Y-029600
X059000Y-030600
X059000Y-031600
X060000Y-027600
X060000Y-028600
X060000Y-029600
X060000Y-030600
X060000Y-031600
X063800Y-021000
X063800Y-022000
X063800Y-023000
X063800Y-024000
X063800Y-025000
X063800Y-026000
X063800Y-027000
X063800Y-028000
X063800Y-029000
X063800Y-030000
X063800Y-031000
X063800Y-032000
X063800Y-033000
X063800Y-034000
X063800Y-035000
X064800Y-021000
X064800Y-022000
X064800Y-023000
X064800Y-024000
X064800Y-025000
X064800Y-026000
X064800Y-027000
X064800Y-028000
X064800Y-029000
X064800Y-030000
X064800Y-031000
X064800Y-032000
X064800Y-033000
X064800Y-034000
X064800Y-035000
X073900Y-030500
X073900Y-031500
X073900Y-032500
X073900Y-033500
X073900Y-034500
X073900Y-035500
X073900Y-036750
X073900Y-037750
X073900Y-038750
X073900Y-039750
X073900Y-040750
X073900Y-041750
X074000Y-016100
X074000Y-017100
X074000Y-018100
X074000Y-022550
X074000Y-023550
X074000Y-024550
X074000Y-025550
T7
X043900Y-011101
X050100Y-011101
T8
X072950Y-049425
X072950Y-051425
X073950Y-050425
X074950Y-049425
X074950Y-051425
T9
X009700Y-037938
X009700Y-042662
X010850Y-043900
X010850Y-049300
T10
X074225Y-009100
X074225Y-014400
X074525Y-011750
T11
X016725Y-057294
X016725Y-059656
X018614Y-058475
X052700Y-013600
X061200Y-013600
T12
X011700Y-010350
X011700Y-020350
X011700Y-023650
X011700Y-033650
X013050Y-050300
X019400Y-024050
X044750Y-009900
X049250Y-009900
X068300Y-020850
X069750Y-052975
T13
X064650Y-057350
X074500Y-057350
T0
M30
